{"glyphs":{" ":{"ha":472,"x_min":0,"x_max":0,"o":""},"ء":{"ha":681,"x_min":90,"x_max":625,"o":"m 90 89 q 135 97 119 92 l 214 111 q 150 189 175 137 q 125 301 125 240 q 160 445 125 385 q 261 536 196 505 q 412 568 327 568 q 581 528 512 568 l 550 424 q 415 460 481 460 q 292 417 334 460 q 250 293 250 374 q 274 198 250 241 q 338 136 298 155 l 368 140 q 625 167 578 167 l 625 54 q 358 28 557 54 q 90 -12 159 3 l 90 89 z "},"ا":{"ha":401,"x_min":139,"x_max":262,"o":"m 139 1055 l 262 1055 l 262 0 l 139 0 l 139 1055 z "},"ﺎ":{"ha":439,"x_min":139,"x_max":453,"o":"m 139 1055 l 262 1055 l 262 109 l 446 109 q 453 103 453 109 l 453 7 q 446 0 453 0 l 139 0 l 139 1055 z "},"ح":{"ha":895,"x_min":62,"x_max":804,"o":"m 730 17 q 667 75 693 47 q 621 139 640 102 q 289 3 388 76 q 189 -167 189 -71 q 241 -297 189 -256 q 401 -339 292 -339 q 606 -317 471 -339 l 621 -412 q 465 -439 522 -433 q 351 -446 407 -446 q 140 -375 217 -446 q 62 -178 62 -305 q 113 -17 62 -90 q 273 117 164 56 q 583 237 382 178 q 557 363 572 274 q 489 526 538 473 q 354 579 439 579 q 235 559 304 579 q 111 510 165 539 l 62 606 q 197 664 116 640 q 355 688 277 688 q 667 395 621 688 q 716 218 684 286 q 804 113 749 150 l 730 17 z "},"ﺣ":{"ha":806,"x_min":-14,"x_max":715,"o":"m -7 0 q -14 7 -14 0 l -14 103 q -7 109 -14 109 l 589 109 q 501 363 538 159 q 442 531 481 483 q 326 579 404 579 q 125 524 230 579 l 77 619 q 197 673 136 658 q 328 688 258 688 q 469 657 412 688 q 560 567 526 627 q 611 395 593 507 q 657 203 631 271 q 715 106 682 136 l 715 0 l -7 0 z "},"ﺤ":{"ha":798,"x_min":-14,"x_max":811,"o":"m -7 0 q -14 7 -14 0 l -14 103 q -7 109 -14 109 l 589 109 q 501 363 535 162 q 442 530 481 481 q 326 579 403 579 q 125 524 230 579 l 77 619 q 197 673 136 658 q 328 688 258 688 q 469 657 412 688 q 560 567 526 627 q 611 395 593 507 q 711 109 643 177 l 804 109 q 811 103 811 109 l 811 7 q 804 0 811 0 l -7 0 z "},"ﺢ":{"ha":852,"x_min":62,"x_max":867,"o":"m 351 -446 q 140 -375 217 -446 q 62 -178 62 -305 q 115 -16 62 -90 q 278 119 167 58 q 585 237 389 180 q 557 363 570 285 q 489 526 538 473 q 354 579 439 579 q 235 559 304 579 q 111 510 165 539 l 62 606 q 197 664 116 640 q 355 688 277 688 q 667 395 621 688 q 709 211 688 262 q 764 134 730 160 q 852 109 798 109 l 860 109 q 867 103 867 109 l 867 7 q 860 0 867 0 l 852 0 q 720 33 777 0 q 624 139 663 66 q 366 48 458 94 q 232 -50 275 3 q 189 -167 189 -104 q 241 -297 189 -256 q 401 -339 292 -339 q 606 -317 471 -339 l 621 -412 q 465 -439 522 -433 q 351 -446 407 -446 z "},"د":{"ha":707,"x_min":62,"x_max":644,"o":"m 62 109 l 525 109 q 421 426 498 295 q 203 653 345 557 l 248 758 q 508 511 408 675 q 644 106 609 347 l 644 0 l 62 0 l 62 109 z "},"ر":{"ha":452,"x_min":-56,"x_max":334,"o":"m 86 -334 q -56 -294 20 -334 l -20 -201 q 36 -221 14 -216 q 83 -225 58 -225 q 181 -174 146 -225 q 216 -40 216 -123 l 216 673 l 334 673 l 334 -33 q 270 -254 334 -174 q 86 -334 206 -334 z "},"ﺮ":{"ha":498,"x_min":-56,"x_max":513,"o":"m 334 0 l 334 -33 q 270 -254 334 -174 q 86 -334 206 -334 q -56 -294 20 -334 l -20 -201 q 36 -221 14 -216 q 83 -225 58 -225 q 181 -174 146 -225 q 216 -40 216 -123 l 216 673 l 334 673 l 334 109 l 505 109 q 513 103 513 109 l 513 7 q 505 0 513 0 l 334 0 z "},"س":{"ha":1725,"x_min":90,"x_max":1607,"o":"m 1404 0 q 1290 21 1342 0 q 1181 96 1237 41 q 1098 26 1149 53 q 978 0 1047 0 l 815 0 q 732 -249 815 -164 q 469 -334 648 -334 l 370 -334 q 165 -239 241 -334 q 90 22 90 -144 q 105 196 90 108 q 147 350 120 283 l 262 350 q 215 22 215 230 q 262 -161 215 -96 q 396 -225 310 -225 l 464 -225 q 641 -170 585 -225 q 697 -4 697 -115 l 697 566 l 815 566 l 815 109 l 965 109 q 1069 153 1032 109 q 1107 269 1107 197 l 1107 566 l 1225 566 l 1225 232 l 1223 216 q 1300 132 1258 156 q 1404 109 1342 109 l 1489 109 l 1489 673 l 1607 673 l 1607 0 l 1404 0 z "},"ﺳ":{"ha":1219,"x_min":-14,"x_max":1101,"o":"m 899 0 q 784 21 836 0 q 675 97 731 41 q 593 27 644 54 q 472 0 543 0 l -7 0 q -14 7 -14 0 l -14 103 q -7 109 -14 109 l 192 109 l 192 566 l 310 566 l 310 109 l 460 109 q 564 153 527 109 q 602 269 602 197 l 602 566 l 720 566 l 720 232 l 718 216 q 794 133 753 157 q 899 109 835 109 l 983 109 l 983 673 l 1101 673 l 1101 0 l 899 0 z "},"ﺴ":{"ha":1280,"x_min":-14,"x_max":1295,"o":"m 899 0 q 784 21 836 0 q 675 97 731 41 q 593 27 644 54 q 472 0 543 0 l -7 0 q -14 7 -14 0 l -14 103 q -7 109 -14 109 l 192 109 l 192 566 l 310 566 l 310 109 l 460 109 q 564 153 527 109 q 602 269 602 197 l 602 566 l 720 566 l 720 232 l 718 216 q 794 133 753 157 q 899 109 835 109 l 983 109 l 983 673 l 1101 673 l 1101 109 l 1287 109 q 1295 103 1295 109 l 1295 7 q 1287 0 1295 0 l 899 0 z "},"ﺲ":{"ha":1786,"x_min":90,"x_max":1800,"o":"m 1404 0 q 1290 21 1342 0 q 1181 96 1237 41 q 1098 26 1149 53 q 978 0 1047 0 l 815 0 q 732 -249 815 -164 q 469 -334 648 -334 l 370 -334 q 165 -239 241 -334 q 90 22 90 -144 q 105 196 90 108 q 147 350 120 283 l 262 350 q 215 22 215 230 q 262 -161 215 -96 q 396 -225 310 -225 l 464 -225 q 641 -170 585 -225 q 697 -4 697 -115 l 697 566 l 815 566 l 815 109 l 965 109 q 1069 153 1032 109 q 1107 269 1107 197 l 1107 566 l 1225 566 l 1225 232 l 1223 216 q 1300 132 1258 156 q 1404 109 1342 109 l 1489 109 l 1489 673 l 1607 673 l 1607 109 l 1793 109 q 1800 103 1800 109 l 1800 7 q 1793 0 1800 0 l 1404 0 z "},"ص":{"ha":1622,"x_min":90,"x_max":1518,"o":"m 370 -334 q 165 -239 241 -334 q 90 22 90 -144 q 105 196 90 108 q 147 350 120 283 l 262 350 q 215 22 215 230 q 262 -161 215 -96 q 396 -225 310 -225 l 464 -225 q 641 -170 585 -225 q 697 -4 697 -115 l 697 673 l 815 673 l 815 375 q 979 609 880 530 q 1200 688 1077 688 q 1437 602 1357 688 q 1518 335 1518 517 l 1518 0 l 815 0 q 732 -251 815 -168 q 469 -334 648 -334 l 370 -334 m 1400 109 l 1400 329 q 1344 517 1400 457 q 1175 578 1289 578 q 815 225 960 578 l 815 109 l 1400 109 z "},"ﺻ":{"ha":1088,"x_min":-14,"x_max":983,"o":"m -7 0 q -14 7 -14 0 l -14 103 q -7 109 -14 109 l 163 109 l 163 632 l 281 632 l 281 375 q 444 609 346 530 q 665 688 543 688 q 903 602 823 688 q 983 335 983 517 l 983 0 l -7 0 m 865 109 l 865 329 q 809 517 865 457 q 640 578 753 578 q 281 222 427 578 l 281 109 l 865 109 z "},"ﺼ":{"ha":1160,"x_min":-14,"x_max":1174,"o":"m -7 0 q -14 7 -14 0 l -14 103 q -7 109 -14 109 l 163 109 l 163 632 l 281 632 l 281 375 q 444 609 346 530 q 665 688 543 688 q 903 602 823 688 q 983 335 983 517 l 983 109 l 1166 109 q 1174 103 1174 109 l 1174 7 q 1166 0 1174 0 l -7 0 m 865 109 l 865 329 q 809 517 865 457 q 640 578 753 578 q 281 222 427 578 l 281 109 l 865 109 z "},"ﺺ":{"ha":1697,"x_min":90,"x_max":1711,"o":"m 815 0 q 732 -251 815 -168 q 469 -334 648 -334 l 370 -334 q 165 -239 241 -334 q 90 22 90 -144 q 105 196 90 108 q 147 350 120 283 l 262 350 q 215 22 215 230 q 262 -161 215 -96 q 396 -225 310 -225 l 464 -225 q 641 -170 585 -225 q 697 -4 697 -115 l 697 673 l 815 673 l 815 375 q 979 609 880 530 q 1200 688 1077 688 q 1437 602 1357 688 q 1518 335 1518 517 l 1518 109 l 1704 109 q 1711 103 1711 109 l 1711 7 q 1704 0 1711 0 l 815 0 m 1400 109 l 1400 329 q 1344 517 1400 457 q 1175 578 1289 578 q 815 225 960 578 l 815 109 l 1400 109 z "},"ط":{"ha":1116,"x_min":28,"x_max":1025,"o":"m 35 0 q 28 7 28 0 l 28 103 q 35 109 28 109 l 204 109 l 204 1055 l 322 1055 l 322 375 q 486 609 387 530 q 707 688 584 688 q 944 602 864 688 q 1025 335 1025 517 l 1025 0 l 35 0 m 907 109 l 907 329 q 851 517 907 457 q 682 578 795 578 q 486 489 577 578 q 322 222 395 401 l 322 109 l 907 109 z "},"ﻃ":{"ha":1074,"x_min":-14,"x_max":983,"o":"m -7 0 q -14 7 -14 0 l -14 103 q -7 109 -14 109 l 163 109 l 163 1055 l 281 1055 l 281 375 q 444 609 346 530 q 665 688 543 688 q 903 602 823 688 q 983 335 983 517 l 983 0 l -7 0 m 865 109 l 865 329 q 809 517 865 457 q 640 578 753 578 q 281 222 427 578 l 281 109 l 865 109 z "},"ﻄ":{"ha":1160,"x_min":-14,"x_max":1174,"o":"m -7 0 q -14 7 -14 0 l -14 103 q -7 109 -14 109 l 163 109 l 163 1055 l 281 1055 l 281 375 q 444 609 346 530 q 665 688 543 688 q 903 602 823 688 q 983 335 983 517 l 983 109 l 1166 109 q 1174 103 1174 109 l 1174 7 q 1166 0 1174 0 l -7 0 m 865 109 l 865 329 q 809 517 865 457 q 640 578 753 578 q 281 222 427 578 l 281 109 l 865 109 z "},"ﻂ":{"ha":1174,"x_min":41,"x_max":1187,"o":"m 41 109 l 176 109 l 176 1055 l 294 1055 l 294 375 q 458 609 359 530 q 679 688 556 688 q 917 602 836 688 q 997 335 997 517 l 997 109 l 1181 109 q 1187 103 1187 109 l 1187 7 q 1181 0 1187 0 l 41 0 l 41 109 m 879 109 l 879 329 q 823 517 879 457 q 654 578 768 578 q 458 489 549 578 q 294 222 368 401 l 294 109 l 879 109 z "},"ع":{"ha":743,"x_min":90,"x_max":681,"o":"m 379 -446 q 168 -375 245 -446 q 90 -178 90 -305 q 269 96 90 -24 q 146 372 146 203 q 190 540 146 469 q 312 649 234 611 q 488 688 391 688 q 598 676 547 688 q 681 647 648 664 l 643 543 q 481 579 557 579 q 327 526 381 579 q 272 374 272 473 q 295 242 272 302 q 357 147 317 182 q 596 241 473 205 l 629 139 q 409 59 507 109 q 263 -48 311 9 q 216 -167 216 -105 q 269 -298 216 -256 q 429 -339 321 -339 q 633 -317 499 -339 l 648 -412 q 492 -439 550 -433 q 379 -446 435 -446 z "},"ﻋ":{"ha":715,"x_min":-14,"x_max":653,"o":"m -7 0 q -14 7 -14 0 l -14 103 q -7 109 -14 109 l 207 109 q 136 211 163 146 q 109 355 109 276 q 198 600 109 512 q 439 688 288 688 q 549 676 498 688 q 632 647 600 664 l 595 543 q 432 579 509 579 q 235 350 235 579 q 282 175 235 242 q 406 109 329 109 l 653 109 l 653 0 l -7 0 z "},"ﻌ":{"ha":825,"x_min":-14,"x_max":839,"o":"m 669 0 q 544 17 611 0 q 412 69 477 35 q 154 0 290 0 l -7 0 q -14 7 -14 0 l -14 103 q -7 109 -14 109 l 153 109 q 318 136 252 109 q 209 248 264 175 q 114 405 153 321 q 62 566 75 490 q 234 677 138 637 q 428 718 329 718 q 604 690 515 718 q 760 616 693 663 q 693 345 760 473 q 510 138 627 218 q 664 109 587 109 l 832 109 q 839 103 839 109 l 839 7 q 832 0 839 0 l 669 0 m 414 199 q 573 358 521 271 q 632 558 625 445 q 432 610 535 610 q 196 529 314 610 q 275 347 217 434 q 414 199 332 260 z "},"ﻊ":{"ha":852,"x_min":90,"x_max":867,"o":"m 131 -178 q 181 -14 131 -91 q 342 139 231 63 q 174 350 243 233 q 90 566 105 466 q 261 677 166 637 q 456 718 357 718 q 632 690 543 718 q 787 616 721 663 q 720 359 785 483 q 534 140 656 235 q 692 109 610 109 l 860 109 q 867 103 867 109 l 867 7 q 860 0 867 0 l 697 0 q 570 21 644 0 q 436 74 495 42 q 297 -46 337 11 q 257 -167 257 -104 q 309 -297 257 -256 q 469 -339 360 -339 q 574 -332 524 -339 q 673 -317 625 -325 l 689 -412 q 534 -439 589 -433 q 419 -446 480 -446 q 208 -375 285 -446 q 131 -178 131 -304 m 224 529 q 298 359 241 449 q 437 203 356 270 q 598 362 544 276 q 660 558 652 448 q 460 610 563 610 q 224 529 342 610 z "},"ﻛ":{"ha":800,"x_min":-14,"x_max":696,"o":"m -7 0 q -14 7 -14 0 l -14 103 q -7 109 -14 109 l 578 109 l 578 364 q 515 517 578 468 q 322 566 453 566 l 86 566 l 86 679 q 210 863 131 772 q 386 1024 288 954 q 575 1131 483 1095 l 619 1025 q 370 872 492 975 q 201 673 248 770 l 322 673 q 600 599 504 673 q 696 385 696 524 l 696 0 l -7 0 z "},"ﻜ":{"ha":869,"x_min":-14,"x_max":884,"o":"m -7 0 q -14 7 -14 0 l -14 103 q -7 109 -14 109 l 578 109 l 578 364 q 515 517 578 468 q 322 566 453 566 l 86 566 l 86 679 q 210 863 131 772 q 386 1024 288 954 q 575 1131 483 1095 l 619 1025 q 370 872 492 975 q 201 673 248 770 l 322 673 q 600 599 504 673 q 696 385 696 524 l 696 109 l 876 109 q 884 103 884 109 l 884 7 q 876 0 884 0 l -7 0 z "},"ك":{"ha":1101,"x_min":90,"x_max":962,"o":"m 397 496 l 463 505 q 414 593 414 537 q 452 685 414 652 q 555 718 491 718 q 647 697 607 718 l 627 635 q 557 652 597 652 q 506 634 526 652 q 485 581 485 617 q 497 540 485 557 q 526 515 509 524 q 594 526 543 519 q 665 533 646 533 l 665 465 q 604 460 654 465 q 531 452 555 455 q 397 432 411 435 l 397 496 m 350 0 q 157 64 224 0 q 90 249 90 129 q 125 436 90 341 l 229 436 q 208 258 208 337 q 245 149 208 189 q 346 109 282 109 l 844 109 l 844 1055 l 962 1055 l 962 0 l 350 0 z "},"ﻚ":{"ha":1140,"x_min":90,"x_max":1154,"o":"m 350 0 q 157 64 224 0 q 90 249 90 129 q 125 436 90 341 l 229 436 q 208 258 208 337 q 245 149 208 189 q 346 109 282 109 l 844 109 l 844 1055 l 962 1055 l 962 109 l 1147 109 q 1154 103 1154 109 l 1154 7 q 1147 0 1154 0 l 350 0 m 397 496 l 463 505 q 414 593 414 537 q 452 685 414 652 q 555 718 491 718 q 647 697 607 718 l 627 635 q 557 652 597 652 q 506 634 526 652 q 485 581 485 617 q 497 540 485 557 q 526 515 509 524 q 594 526 543 519 q 665 533 646 533 l 665 465 q 604 460 654 465 q 531 452 555 455 q 397 432 411 435 l 397 496 z "},"ل":{"ha":954,"x_min":90,"x_max":815,"o":"m 370 -334 q 165 -239 241 -334 q 90 22 90 -144 q 105 196 90 108 q 147 350 120 283 l 262 350 q 215 22 215 230 q 262 -161 215 -96 q 396 -225 310 -225 l 464 -225 q 641 -170 585 -225 q 697 -4 697 -115 l 697 1055 l 815 1055 l 815 5 q 732 -248 815 -163 q 469 -334 648 -334 l 370 -334 z "},"ﻟ":{"ha":439,"x_min":-14,"x_max":300,"o":"m -7 0 q -14 7 -14 0 l -14 103 q -7 109 -14 109 l 176 109 l 176 1055 l 300 1055 l 300 0 l -7 0 z "},"ﻠ":{"ha":473,"x_min":-14,"x_max":488,"o":"m -7 0 q -14 7 -14 0 l -14 103 q -7 109 -14 109 l 176 109 l 176 1055 l 300 1055 l 300 109 l 481 109 q 488 103 488 109 l 488 7 q 481 0 488 0 l -7 0 z "},"ﻞ":{"ha":961,"x_min":90,"x_max":975,"o":"m 815 0 q 730 -249 813 -165 q 469 -334 646 -334 l 370 -334 q 165 -239 241 -334 q 90 22 90 -144 q 105 196 90 108 q 147 350 120 283 l 262 350 q 215 22 215 230 q 262 -161 215 -96 q 396 -225 310 -225 l 464 -225 q 641 -170 585 -225 q 697 -4 697 -115 l 697 1055 l 815 1055 l 815 109 l 968 109 q 975 103 975 109 l 975 7 q 968 0 975 0 l 815 0 z "},"م":{"ha":901,"x_min":90,"x_max":811,"o":"m 306 0 q 207 -102 207 0 l 207 -444 l 90 -444 l 90 -81 q 113 22 90 -20 q 173 86 135 64 q 260 109 212 109 l 269 109 q 218 346 218 241 q 268 567 218 469 q 385 635 319 610 q 522 660 451 660 q 675 622 609 660 q 776 513 741 583 q 811 353 811 442 q 771 164 811 243 q 660 42 732 85 q 494 0 587 0 l 306 0 m 343 370 q 354 243 343 305 q 396 109 366 181 l 494 109 q 637 172 587 109 q 686 354 686 235 q 638 497 686 441 q 522 553 591 553 q 359 496 435 553 q 346 436 348 467 q 343 370 343 406 z "},"ﻣ":{"ha":798,"x_min":-14,"x_max":707,"o":"m -7 0 q -14 7 -14 0 l -14 103 q -7 109 -14 109 l 165 109 q 114 346 114 243 q 164 567 114 470 q 281 635 215 610 q 418 660 347 660 q 570 622 505 660 q 671 513 636 583 q 707 353 707 442 q 667 164 707 243 q 555 42 627 85 q 390 0 483 0 l -7 0 m 239 370 q 250 243 239 305 q 292 109 262 181 l 390 109 q 532 172 483 109 q 582 354 582 235 q 534 497 582 441 q 418 553 486 553 q 331 537 374 553 q 256 496 289 522 q 241 436 244 467 q 239 370 239 406 z "},"ﻤ":{"ha":842,"x_min":-14,"x_max":856,"o":"m -7 0 q -14 7 -14 0 l -14 103 q -7 109 -14 109 l 165 109 q 114 346 114 243 q 164 567 114 470 q 281 635 215 610 q 418 660 347 660 q 570 622 505 660 q 671 513 636 583 q 707 353 707 442 q 677 189 707 264 q 744 126 707 144 q 842 109 781 109 l 848 109 q 856 103 856 109 l 856 7 q 848 0 856 0 l 842 0 q 715 20 768 0 q 615 90 663 41 q 512 22 571 44 q 390 0 454 0 l -7 0 m 239 370 q 250 243 239 305 q 292 109 262 181 l 390 109 q 532 172 483 109 q 582 354 582 235 q 534 497 582 441 q 418 553 486 553 q 331 537 374 553 q 256 496 289 522 q 241 436 244 467 q 239 370 239 406 z "},"ﻢ":{"ha":946,"x_min":90,"x_max":960,"o":"m 306 0 q 207 -102 207 0 l 207 -444 l 90 -444 l 90 -81 q 113 22 90 -20 q 173 86 135 64 q 260 109 212 109 l 269 109 q 218 346 218 241 q 268 567 218 469 q 385 635 319 610 q 522 660 451 660 q 675 622 609 660 q 776 513 741 583 q 811 353 811 442 q 782 189 811 264 q 850 125 812 142 q 946 109 887 109 l 953 109 q 960 103 960 109 l 960 7 q 953 0 960 0 l 946 0 q 820 20 872 0 q 720 90 768 41 q 617 22 675 44 q 494 0 558 0 l 306 0 m 343 370 q 354 243 343 305 q 396 109 366 181 l 494 109 q 637 172 587 109 q 686 354 686 235 q 638 497 686 441 q 522 553 591 553 q 359 496 435 553 q 346 436 348 467 q 343 370 343 406 z "},"ه":{"ha":829,"x_min":90,"x_max":739,"o":"m 412 -14 q 175 70 259 -14 q 90 309 90 154 q 133 498 90 410 q 250 637 175 587 q 416 688 325 688 q 577 636 503 688 q 696 494 652 584 q 739 309 739 405 q 657 69 739 151 q 412 -14 574 -14 m 415 93 q 614 307 614 93 q 561 507 614 433 q 414 581 508 581 q 272 505 329 581 q 215 307 215 429 q 415 93 215 93 z "},"ﻫ":{"ha":1078,"x_min":-14,"x_max":960,"o":"m 542 109 l 542 271 q 502 420 542 373 q 385 468 463 468 q 274 425 314 468 q 235 302 235 382 q 288 161 235 214 q 428 109 342 109 l 542 109 m -7 0 q -14 7 -14 0 l -14 103 q -7 109 -14 109 l 208 109 q 138 189 164 136 q 111 307 111 242 q 149 456 111 392 q 250 555 186 520 q 390 590 314 590 q 660 292 660 590 l 660 109 l 842 109 l 842 380 q 756 659 842 570 q 488 749 671 749 q 231 708 353 749 l 199 815 q 488 859 329 859 q 837 736 714 859 q 960 392 960 614 l 960 0 l -7 0 z "},"ﻬ":{"ha":1133,"x_min":-14,"x_max":1147,"o":"m -7 0 q -14 7 -14 0 l -14 103 q -7 109 -14 109 l 208 109 q 138 189 164 136 q 111 307 111 242 q 149 456 111 392 q 250 555 186 520 q 390 590 314 590 q 660 292 660 590 l 660 109 l 842 109 l 842 380 q 756 659 842 570 q 488 749 671 749 q 231 708 353 749 l 199 815 q 488 859 329 859 q 837 736 714 859 q 960 392 960 614 l 960 109 l 1140 109 q 1147 103 1147 109 l 1147 7 q 1140 0 1147 0 l -7 0 m 542 109 l 542 271 q 502 420 542 373 q 385 468 463 468 q 274 425 314 468 q 235 302 235 382 q 288 161 235 214 q 428 109 342 109 l 542 109 z "},"ﻪ":{"ha":832,"x_min":90,"x_max":846,"o":"m 443 0 q 183 84 276 0 q 90 321 90 169 q 193 579 90 485 q 471 673 296 673 l 562 673 l 562 761 l 681 761 l 681 109 l 839 109 q 846 103 846 109 l 846 7 q 839 0 846 0 l 443 0 m 562 109 l 562 566 l 475 566 q 282 502 350 566 q 214 322 214 437 q 273 163 214 218 q 440 109 332 109 l 562 109 z "},"و":{"ha":779,"x_min":90,"x_max":661,"o":"m 340 -334 q 90 -262 199 -334 l 146 -170 q 238 -209 191 -193 q 343 -225 286 -225 q 491 -175 437 -225 q 545 -40 545 -124 l 545 0 l 408 0 q 179 81 260 0 q 98 317 98 163 q 202 577 98 480 q 479 673 306 673 l 661 673 l 661 -33 q 577 -254 661 -175 q 340 -334 494 -334 m 543 109 l 543 566 l 484 566 q 291 500 360 566 q 222 318 222 435 q 270 159 222 210 q 412 109 317 109 l 543 109 z "},"ﻮ":{"ha":768,"x_min":90,"x_max":782,"o":"m 543 109 l 543 566 l 484 566 q 291 500 360 566 q 222 318 222 435 q 270 159 222 210 q 412 109 317 109 l 543 109 m 661 -33 q 577 -254 661 -175 q 340 -334 494 -334 q 90 -262 199 -334 l 146 -170 q 238 -209 191 -193 q 343 -225 286 -225 q 491 -175 437 -225 q 545 -40 545 -124 l 545 0 l 408 0 q 179 81 260 0 q 98 317 98 163 q 202 577 98 480 q 479 673 306 673 l 661 673 l 661 109 l 775 109 q 782 103 782 109 l 782 7 q 775 0 782 0 l 661 0 l 661 -33 z "},"ى":{"ha":1165,"x_min":90,"x_max":1117,"o":"m 370 -334 q 165 -243 239 -334 q 90 1 90 -153 q 102 132 90 74 q 139 252 114 191 l 254 252 q 230 177 239 213 q 218 109 222 142 q 215 9 215 75 q 262 -164 215 -103 q 396 -225 309 -225 l 668 -225 q 837 -186 774 -225 q 899 -83 899 -148 q 881 -33 899 -58 q 833 15 863 -9 q 732 82 804 39 q 615 160 648 132 q 565 220 582 189 q 547 288 547 251 q 609 462 547 370 q 761 614 670 554 q 937 673 852 673 q 1030 654 970 673 q 1117 618 1090 635 l 1067 525 q 1009 542 1046 535 q 942 549 971 549 q 833 511 895 549 q 728 417 771 473 q 685 311 685 361 q 789 201 685 264 q 934 98 891 139 q 1001 11 977 58 q 1025 -86 1025 -37 q 932 -268 1025 -202 q 668 -334 839 -334 l 370 -334 z "},"ﻰ":{"ha":1339,"x_min":90,"x_max":1353,"o":"m 370 -334 q 165 -243 239 -334 q 90 1 90 -153 q 102 132 90 74 q 139 252 114 191 l 254 252 q 230 177 239 213 q 218 109 222 142 q 215 9 215 75 q 262 -164 215 -103 q 396 -225 309 -225 l 654 -225 q 819 -188 753 -225 q 884 -100 884 -151 q 858 -51 884 -71 q 780 -16 832 -31 q 636 37 675 14 q 576 92 597 59 q 555 171 555 125 q 603 326 555 251 q 727 447 651 400 q 879 493 803 493 q 962 476 926 493 q 1030 427 998 459 q 1109 320 1062 395 q 1198 191 1169 224 q 1247 141 1227 157 q 1290 117 1267 125 q 1339 109 1312 109 l 1346 109 q 1353 103 1353 109 l 1353 7 q 1346 0 1353 0 l 1339 0 q 1226 26 1280 0 q 1116 113 1173 52 q 1044 208 1099 130 q 938 336 977 303 q 864 368 899 368 q 783 339 826 368 q 710 266 739 310 q 681 187 681 222 q 706 146 681 164 q 785 111 730 127 q 927 60 885 82 q 990 9 968 39 q 1011 -58 1011 -20 q 654 -334 1011 -334 l 370 -334 z "},"ﻻ":{"ha":936,"x_min":62,"x_max":811,"o":"m 62 109 l 374 109 l 195 868 l 323 868 l 503 109 l 541 109 q 688 269 688 109 l 688 1055 l 811 1055 l 811 253 q 741 69 811 138 q 554 0 671 0 l 62 0 l 62 109 z "},"ﻼ":{"ha":985,"x_min":62,"x_max":999,"o":"m 62 109 l 374 109 l 195 868 l 323 868 l 503 109 l 688 109 l 688 1055 l 811 1055 l 811 109 l 991 109 q 999 103 999 109 l 999 7 q 991 0 999 0 l 62 0 l 62 109 z "},"ـ":{"ha":237,"x_min":-14,"x_max":252,"o":"m 244 109 q 252 103 252 109 l 252 7 q 244 0 252 0 l -7 0 q -14 7 -14 0 l -14 103 q -7 109 -14 109 l 244 109 z "},"ٮ":{"ha":1080,"x_min":90,"x_max":962,"o":"m 350 0 q 160 72 230 0 q 90 269 90 144 q 100 376 90 315 q 125 478 110 436 l 236 478 q 215 279 215 378 q 251 156 215 203 q 346 109 287 109 l 844 109 l 844 673 l 962 673 l 962 0 l 350 0 z "},"ٯ":{"ha":1217,"x_min":90,"x_max":1099,"o":"m 419 -334 q 178 -243 267 -334 q 90 1 90 -153 q 147 329 90 178 l 262 329 q 215 9 215 196 q 275 -164 215 -103 q 444 -225 335 -225 l 725 -225 q 921 -173 861 -225 q 981 -9 981 -120 l 981 0 l 852 0 q 617 81 699 0 q 536 317 536 163 q 640 577 536 481 q 917 673 744 673 l 1099 673 l 1099 -8 q 747 -334 1099 -334 l 419 -334 m 981 109 l 981 566 l 921 566 q 729 500 798 566 q 660 318 660 435 q 707 159 660 210 q 850 109 754 109 l 981 109 z "},"٠":{"ha":457,"x_min":139,"x_max":318,"o":"m 139 524 l 318 524 l 318 264 l 139 264 l 139 524 z "},"١":{"ha":401,"x_min":139,"x_max":262,"o":"m 139 936 l 262 936 l 262 0 l 139 0 l 139 936 z "},"٢":{"ha":665,"x_min":62,"x_max":616,"o":"m 62 838 l 62 936 l 616 936 l 616 823 l 196 823 l 488 0 l 354 0 l 62 838 z "},"٣":{"ha":818,"x_min":62,"x_max":755,"o":"m 62 936 l 195 936 l 257 726 q 302 720 269 720 q 360 772 343 720 q 378 936 378 824 l 501 936 q 495 814 501 865 q 472 728 489 764 q 534 720 500 720 q 610 768 589 720 q 632 936 632 817 l 755 936 l 755 917 q 706 687 755 758 q 541 615 656 615 q 410 647 456 615 q 342 616 379 616 q 285 631 303 616 l 490 0 l 358 0 l 62 936 z "},"٤":{"ha":668,"x_min":118,"x_max":619,"o":"m 395 -14 q 251 7 315 -14 q 153 64 187 28 q 118 143 118 100 q 188 280 118 193 q 364 450 257 368 l 293 507 q 153 660 153 618 q 199 760 153 702 q 322 870 245 819 q 498 954 399 922 l 536 848 q 432 802 488 833 q 326 730 376 771 q 275 676 275 689 q 400 555 275 656 l 509 467 q 313 263 342 298 q 267 202 283 229 q 252 155 252 176 q 296 109 252 128 q 406 90 340 90 q 619 119 541 90 l 619 17 q 395 -14 532 -14 z "},"٥":{"ha":829,"x_min":90,"x_max":739,"o":"m 412 -14 q 167 80 243 -14 q 90 361 90 173 q 135 654 90 515 q 254 871 180 793 q 416 949 328 949 q 581 869 507 949 q 697 650 654 789 q 739 361 739 511 q 705 147 739 229 q 602 25 670 64 q 412 -14 533 -14 m 415 93 q 565 161 519 93 q 611 364 611 229 q 584 611 611 497 q 512 784 557 724 q 414 843 468 843 q 319 780 363 843 q 247 603 275 718 q 218 364 218 488 q 265 161 218 229 q 415 93 311 93 z "},"٦":{"ha":693,"x_min":0,"x_max":554,"o":"m 431 823 l 0 823 l 0 936 l 554 936 l 554 0 l 431 0 l 431 823 z "},"٧":{"ha":733,"x_min":28,"x_max":705,"o":"m 28 936 l 155 936 l 323 300 q 366 117 352 194 q 408 300 380 205 l 576 936 l 705 936 l 443 0 l 289 0 l 28 936 z "},"٨":{"ha":733,"x_min":28,"x_max":705,"o":"m 289 936 l 443 936 l 705 0 l 576 0 l 408 636 q 366 819 378 736 q 323 636 352 741 l 155 0 l 28 0 l 289 936 z "},"٩":{"ha":757,"x_min":41,"x_max":632,"o":"m 515 374 l 358 374 q 124 450 207 374 q 41 667 41 526 q 116 873 41 795 q 315 950 191 950 q 557 842 481 950 q 632 498 632 734 l 632 0 l 515 0 l 515 374 m 514 482 q 494 690 514 611 q 432 805 473 769 q 315 842 390 842 q 200 795 242 842 q 158 665 158 749 q 355 482 158 482 l 514 482 z "},"۴":{"ha":782,"x_min":62,"x_max":741,"o":"m 62 936 l 195 936 l 239 782 q 385 736 281 762 q 329 848 329 770 q 366 939 329 906 q 471 972 403 972 q 554 958 522 972 l 534 882 q 476 892 508 892 q 440 879 456 892 q 425 832 425 865 q 511 732 425 756 q 625 895 625 751 l 741 895 l 741 878 q 498 629 741 629 q 379 638 435 629 q 271 671 324 648 l 490 0 l 358 0 l 62 936 z "},"۵":{"ha":829,"x_min":90,"x_max":739,"o":"m 306 98 q 371 216 367 98 l 460 216 q 528 98 464 98 q 592 155 572 98 q 611 322 611 212 q 584 584 611 459 q 512 776 556 709 q 414 843 467 843 q 320 772 364 843 q 248 576 277 702 q 218 322 218 450 q 238 155 218 212 q 306 98 258 98 m 288 -9 q 139 72 188 -9 q 90 319 90 154 q 136 630 90 479 q 256 865 182 781 q 416 949 330 949 q 578 863 505 949 q 695 626 651 777 q 739 319 739 475 q 692 72 739 153 q 543 -9 646 -9 q 467 12 503 -9 q 412 69 431 33 q 362 12 396 33 q 288 -9 328 -9 z "},"۶":{"ha":686,"x_min":90,"x_max":624,"o":"m 90 0 q 189 215 131 126 q 345 387 248 304 q 170 488 231 413 q 109 677 109 563 q 144 824 109 763 q 246 918 180 885 q 396 950 311 950 q 495 939 444 950 q 586 908 546 928 l 545 806 q 399 842 474 842 q 276 796 316 842 q 236 671 236 750 q 433 472 236 507 q 579 567 504 530 l 624 463 q 351 250 454 365 q 205 0 248 136 l 90 0 z "},"ﮨ":{"ha":432,"x_min":-14,"x_max":314,"o":"m 193 -282 q 98 -247 134 -282 q 61 -160 61 -212 q 77 -88 61 -125 q 134 0 92 -52 l -7 0 q -14 7 -14 0 l -14 103 q -7 109 -14 109 l 176 109 l 176 673 l 300 673 l 300 0 l 239 0 q 171 -127 171 -85 q 183 -159 171 -144 q 220 -174 195 -174 l 314 -174 l 314 -282 l 193 -282 z "},"ﮩ":{"ha":793,"x_min":-14,"x_max":807,"o":"m 800 109 q 807 103 807 109 l 807 7 q 800 0 807 0 l 616 0 l 616 -345 l 486 -345 q 263 -258 350 -345 q 146 0 177 -171 l -7 0 q -14 7 -14 0 l -14 103 q -7 109 -14 109 l 235 109 q 493 -236 282 -236 l 493 109 l 800 109 z "},"ھ":{"ha":1120,"x_min":90,"x_max":1002,"o":"m 583 109 l 583 271 q 545 420 583 372 q 427 468 506 468 q 316 425 356 468 q 277 302 277 382 q 329 161 277 214 q 469 109 382 109 l 583 109 m 90 109 l 250 109 q 179 190 205 137 q 153 307 153 242 q 190 456 153 392 q 291 555 227 519 q 432 590 356 590 q 701 292 701 590 l 701 109 l 884 109 l 884 380 q 798 660 884 570 q 529 749 711 749 q 272 708 395 749 l 240 815 q 529 859 370 859 q 878 737 754 859 q 1002 392 1002 615 l 1002 0 l 90 0 l 90 109 z "},"ے":{"ha":802,"x_min":62,"x_max":920,"o":"m 272 -282 q 117 -236 172 -282 q 62 -103 62 -189 q 88 -5 62 -47 q 166 71 113 37 q 342 155 218 106 q 486 226 448 199 q 538 286 524 253 q 553 383 553 319 l 553 437 l 676 437 l 676 383 q 655 253 676 303 q 584 164 633 202 q 414 75 534 125 q 257 4 296 26 q 202 -42 218 -19 q 186 -103 186 -66 q 209 -153 186 -133 q 269 -174 233 -174 l 920 -174 l 920 -282 l 272 -282 z "},"ﮯ":{"ha":539,"x_min":62,"x_max":920,"o":"m 551 109 q 558 103 558 109 l 558 7 q 551 0 558 0 l 351 0 q 232 -29 277 0 q 186 -103 186 -58 q 208 -155 186 -136 q 269 -174 231 -174 l 920 -174 l 920 -282 l 272 -282 q 117 -236 172 -282 q 62 -103 62 -189 q 104 4 62 -44 q 217 80 145 52 q 370 109 290 109 l 551 109 z "},"ک":{"ha":1122,"x_min":90,"x_max":1018,"o":"m 350 0 q 157 64 224 0 q 90 249 90 129 q 98 336 90 284 q 118 436 105 389 l 229 436 q 208 262 208 321 q 245 150 208 191 q 346 109 282 109 l 900 109 l 900 364 q 838 517 900 468 q 644 566 775 566 l 408 566 l 408 679 q 532 863 453 772 q 708 1024 610 954 q 897 1131 805 1095 l 942 1025 q 693 873 816 976 q 524 673 570 771 l 644 673 q 922 599 826 673 q 1018 385 1018 524 l 1018 0 l 350 0 z "},"ﮏ":{"ha":1192,"x_min":90,"x_max":1206,"o":"m 350 0 q 157 64 224 0 q 90 249 90 129 q 98 336 90 284 q 118 436 105 389 l 229 436 q 208 262 208 321 q 245 150 208 191 q 346 109 282 109 l 900 109 l 900 364 q 838 517 900 468 q 644 566 775 566 l 408 566 l 408 679 q 532 863 453 772 q 708 1024 610 954 q 897 1131 805 1095 l 942 1025 q 693 873 816 976 q 524 673 570 771 l 644 673 q 922 599 826 673 q 1018 385 1018 524 l 1018 109 l 1198 109 q 1206 103 1206 109 l 1206 7 q 1198 0 1206 0 l 350 0 z "},"گ":{"ha":1122,"x_min":90,"x_max":1018,"o":"m 350 0 q 157 64 224 0 q 90 249 90 129 q 98 336 90 284 q 118 436 105 389 l 229 436 q 208 262 208 321 q 245 150 208 191 q 346 109 282 109 l 900 109 l 900 364 q 838 517 900 468 q 644 566 775 566 l 408 566 l 408 679 q 532 863 453 772 q 708 1024 610 954 q 897 1131 805 1095 l 942 1025 q 693 873 816 976 q 524 673 570 771 l 644 673 q 922 599 826 673 q 1018 385 1018 524 l 1018 0 l 350 0 m 371 871 q 551 1096 416 972 q 820 1275 685 1219 l 860 1182 q 680 1082 774 1149 q 512 936 585 1014 q 408 789 440 858 l 371 871 z "},"ﮔ":{"ha":800,"x_min":-14,"x_max":696,"o":"m -7 0 q -14 7 -14 0 l -14 103 q -7 109 -14 109 l 578 109 l 578 364 q 515 517 578 468 q 322 566 453 566 l 86 566 l 86 679 q 210 863 131 772 q 386 1024 288 954 q 575 1131 483 1095 l 619 1025 q 370 872 492 975 q 201 673 248 770 l 322 673 q 600 599 504 673 q 696 385 696 524 l 696 0 l -7 0 m 52 871 q 231 1096 97 972 q 500 1275 366 1219 l 541 1182 q 360 1082 455 1149 q 193 936 265 1014 q 89 789 121 858 l 52 871 z "},"ﮕ":{"ha":869,"x_min":-14,"x_max":884,"o":"m -7 0 q -14 7 -14 0 l -14 103 q -7 109 -14 109 l 578 109 l 578 364 q 515 517 578 468 q 322 566 453 566 l 86 566 l 86 679 q 210 863 131 772 q 386 1024 288 954 q 575 1131 483 1095 l 619 1025 q 370 872 492 975 q 201 673 248 770 l 322 673 q 600 599 504 673 q 696 385 696 524 l 696 109 l 876 109 q 884 103 884 109 l 884 7 q 876 0 884 0 l -7 0 m 52 871 q 231 1096 97 972 q 500 1275 366 1219 l 541 1182 q 360 1082 455 1149 q 193 936 265 1014 q 89 789 121 858 l 52 871 z "},"ﮓ":{"ha":1192,"x_min":90,"x_max":1206,"o":"m 350 0 q 157 64 224 0 q 90 249 90 129 q 98 336 90 284 q 118 436 105 389 l 229 436 q 208 262 208 321 q 245 150 208 191 q 346 109 282 109 l 900 109 l 900 364 q 838 517 900 468 q 644 566 775 566 l 408 566 l 408 679 q 532 863 453 772 q 708 1024 610 954 q 897 1131 805 1095 l 942 1025 q 693 873 816 976 q 524 673 570 771 l 644 673 q 922 599 826 673 q 1018 385 1018 524 l 1018 109 l 1198 109 q 1206 103 1206 109 l 1206 7 q 1198 0 1206 0 l 350 0 m 371 871 q 551 1096 416 972 q 820 1275 685 1219 l 860 1182 q 680 1082 774 1149 q 512 936 585 1014 q 408 789 440 858 l 371 871 z "},"ں":{"ha":933,"x_min":90,"x_max":815,"o":"m 370 -334 q 165 -243 239 -334 q 90 1 90 -153 q 147 309 90 168 l 262 309 q 215 9 215 189 q 262 -164 215 -103 q 396 -225 309 -225 l 464 -225 q 641 -170 585 -225 q 697 -4 697 -115 l 697 673 l 815 673 l 815 5 q 732 -248 815 -163 q 469 -334 648 -334 l 370 -334 z "},"ﮟ":{"ha":961,"x_min":90,"x_max":975,"o":"m 815 0 q 730 -249 813 -165 q 469 -334 646 -334 l 370 -334 q 165 -243 239 -334 q 90 1 90 -153 q 147 309 90 168 l 262 309 q 215 9 215 189 q 262 -164 215 -103 q 396 -225 309 -225 l 464 -225 q 641 -170 585 -225 q 697 -3 697 -115 l 697 673 l 815 673 l 815 109 l 968 109 q 975 103 975 109 l 975 7 q 968 0 975 0 l 815 0 z "},"٪":{"ha":796,"x_min":69,"x_max":726,"o":"m 136 844 l 282 844 l 282 699 l 136 699 l 136 844 m 619 936 l 726 936 l 176 0 l 69 0 l 619 936 m 509 258 l 654 258 l 654 113 l 509 113 l 509 258 z "},"؟":{"ha":673,"x_min":90,"x_max":611,"o":"m 351 293 q 330 387 351 351 q 236 486 309 422 q 142 582 170 545 q 103 660 115 619 q 90 753 90 700 q 162 938 90 870 q 363 1006 234 1006 q 611 937 479 1006 l 568 839 q 471 880 521 863 q 363 897 420 897 q 249 858 290 897 q 208 751 208 819 q 218 678 208 709 q 251 618 229 647 q 330 542 274 590 q 422 432 399 481 q 446 306 446 383 l 446 281 l 351 281 l 351 293 m 392 -20 q 331 3 355 -20 q 306 75 306 25 q 392 170 306 170 q 478 75 478 170 q 456 5 478 31 q 392 -20 433 -20 z "},"،":{"ha":393,"x_min":90,"x_max":302,"o":"m 90 16 q 210 340 130 163 l 302 340 q 235 0 262 164 l 100 0 l 90 16 z "},"؛":{"ha":410,"x_min":90,"x_max":319,"o":"m 176 -14 q 90 81 90 -14 q 115 153 90 130 q 176 175 140 175 q 238 153 213 175 q 262 81 262 130 q 176 -14 262 -14 m 107 604 q 227 929 152 768 l 319 929 q 282 756 302 860 q 252 589 261 652 l 117 589 l 107 604 z "},"٫":{"ha":393,"x_min":90,"x_max":302,"o":"m 90 -179 q 128 -6 107 -110 q 158 161 149 98 l 293 161 l 302 146 q 183 -179 269 12 l 90 -179 z "},"٬":{"ha":393,"x_min":90,"x_max":302,"o":"m 90 195 q 128 369 107 264 q 158 534 149 473 l 293 534 l 302 519 q 183 195 270 389 l 90 195 z "},"٭":{"ha":764,"x_min":56,"x_max":708,"o":"m 146 493 l 310 714 l 56 733 l 75 864 l 340 789 l 311 1055 l 450 1055 l 421 789 l 690 864 l 708 733 l 452 714 l 618 493 l 497 428 l 378 671 l 271 428 l 146 493 z "},"ً":{"ha":0,"x_min":-163,"x_max":163,"o":"m -163 1154 l 163 1275 l 163 1200 l -163 1078 l -163 1154 m -163 1311 l 163 1432 l 163 1357 l -163 1235 l -163 1311 z "},"ٍ":{"ha":0,"x_min":-163,"x_max":163,"o":"m -163 -461 l 163 -340 l 163 -415 l -163 -538 l -163 -461 m -163 -304 l 163 -183 l 163 -258 l -163 -380 l -163 -304 z "},"َ":{"ha":0,"x_min":-163,"x_max":163,"o":"m -163 1154 l 163 1275 l 163 1200 l -163 1078 l -163 1154 z "},"ُ":{"ha":0,"x_min":-204,"x_max":204,"o":"m -62 1083 q -204 1129 -140 1083 l -164 1187 q -65 1153 -113 1153 q 4 1162 -24 1153 q -40 1280 -40 1219 q -5 1364 -40 1333 q 85 1396 29 1396 q 172 1364 140 1396 q 204 1286 204 1333 q 167 1188 204 1236 q 68 1112 130 1141 q -62 1083 5 1083 m 65 1186 q 117 1231 102 1206 q 132 1280 132 1257 q 118 1316 132 1302 q 82 1329 104 1329 q 46 1316 61 1329 q 31 1274 31 1302 q 65 1186 31 1231 z "},"ٌ":{"ha":0,"x_min":-249,"x_max":239,"o":"m 7 1083 q -126 1131 -71 1083 l -147 1149 l -204 1103 l -249 1156 l -140 1254 q -67 1179 -104 1206 q 1 1153 -30 1153 q 40 1160 29 1153 q 7 1217 20 1185 q -5 1280 -5 1250 q 29 1364 -5 1333 q 119 1396 64 1396 q 206 1365 174 1396 q 239 1286 239 1335 q 207 1183 239 1230 q 121 1110 175 1137 q 7 1083 68 1083 m 104 1182 q 167 1280 167 1217 q 153 1316 167 1302 q 117 1329 138 1329 q 80 1316 96 1329 q 65 1274 65 1302 q 104 1182 65 1233 z "},"ِ":{"ha":0,"x_min":-163,"x_max":163,"o":"m -163 -304 l 163 -183 l 163 -258 l -163 -380 l -163 -304 z "},"ّ":{"ha":0,"x_min":-221,"x_max":222,"o":"m -107 1120 q -192 1154 -162 1120 q -221 1254 -221 1188 l -221 1341 l -149 1341 l -149 1267 q -136 1207 -149 1225 q -93 1190 -124 1190 q -32 1254 -32 1190 l -32 1377 l 33 1377 l 33 1282 q 46 1232 33 1245 q 86 1218 59 1218 q 137 1236 123 1218 q 150 1295 150 1254 l 150 1397 l 222 1397 l 222 1282 q 192 1182 222 1217 q 103 1147 162 1147 q 5 1189 38 1147 q -107 1120 -28 1120 z "},"ْ":{"ha":0,"x_min":-153,"x_max":154,"o":"m -1 1133 q -112 1172 -71 1133 q -153 1279 -153 1211 q -111 1386 -153 1348 q -1 1425 -70 1425 q 111 1385 68 1425 q 154 1280 154 1345 q 111 1173 154 1213 q -1 1133 68 1133 m -1 1203 q 54 1223 32 1203 q 75 1279 75 1242 q 54 1336 75 1316 q -1 1356 32 1356 q -57 1336 -35 1356 q -78 1279 -78 1316 q -1 1203 -78 1203 z "},"ٓ":{"ha":0,"x_min":-205,"x_max":232,"o":"m -205 1055 q -167 1160 -198 1122 q -78 1198 -136 1198 q -28 1189 -53 1198 q 21 1168 -3 1179 q 65 1147 44 1156 q 104 1137 87 1137 q 146 1152 132 1137 q 170 1200 160 1166 l 232 1200 q 193 1096 224 1134 q 104 1057 162 1057 q 55 1067 79 1057 q 7 1088 31 1076 q -37 1109 -16 1099 q -78 1118 -59 1118 q -120 1104 -106 1118 q -143 1055 -134 1089 l -205 1055 z "},"ٔ":{"ha":0,"x_min":-138,"x_max":131,"o":"m -138 1104 l -72 1114 q -121 1202 -121 1145 q -82 1294 -121 1261 q 21 1326 -43 1326 q 113 1305 75 1326 l 92 1243 q 22 1260 64 1260 q -29 1243 -8 1260 q -50 1189 -50 1225 q -38 1148 -50 1165 q -8 1124 -26 1132 q 58 1134 5 1127 q 131 1141 111 1141 l 131 1074 q 82 1070 120 1074 q -60 1053 43 1066 l -138 1040 l -138 1104 z "},"ٕ":{"ha":0,"x_min":-138,"x_max":131,"o":"m -138 -302 l -72 -293 q -106 -258 -92 -281 q -121 -205 -121 -236 q -83 -114 -121 -147 q 21 -81 -45 -81 q 113 -102 75 -81 l 92 -164 q 22 -147 64 -147 q -29 -164 -8 -147 q -50 -218 -50 -182 q -8 -283 -50 -262 q 61 -273 5 -280 q 131 -265 117 -265 l 131 -334 q -1 -347 100 -334 q -138 -367 -102 -359 l -138 -302 z "},"ٰ":{"ha":0,"x_min":-40,"x_max":39,"o":"m -40 1396 l 39 1396 l 39 1126 l -40 1126 l -40 1396 z "},"ٖ":{"ha":0,"x_min":-40,"x_max":39,"o":"m -40 -268 l 39 -268 l 39 -538 l -40 -538 l -40 -268 z "},"ؕ":{"ha":0,"x_min":-161,"x_max":126,"o":"m -161 876 l -140 876 l -140 1129 l -85 1129 l -85 953 q -42 1018 -68 994 q 24 1043 -17 1043 q 126 922 126 1043 l 126 817 l -161 817 l -161 876 m 71 876 l 71 911 q 58 965 71 947 q 17 983 46 983 q -40 961 -16 983 q -85 890 -65 939 l -85 876 l 71 876 z "},"ﺪ":{"ha":790,"x_min":62,"x_max":804,"o":"m 62 109 l 525 109 q 421 426 498 295 q 203 653 345 557 l 248 758 q 508 509 408 673 q 643 109 609 345 l 798 109 q 804 103 804 109 l 804 7 q 798 0 804 0 l 62 0 l 62 109 z "},"ہ":{"ha":905,"x_min":69,"x_max":920,"o":"m 69 0 q 245 291 173 197 q 402 444 318 385 q 599 534 487 503 l 729 534 l 729 109 l 913 109 q 920 103 920 109 l 920 7 q 913 0 920 0 l 606 0 l 606 421 q 455 341 515 386 q 345 225 395 296 q 218 0 294 154 l 69 0 z "},"چ":{"ha":895,"x_min":62,"x_max":804,"o":"m 730 17 q 667 75 693 47 q 621 139 640 102 q 289 3 388 76 q 189 -167 189 -71 q 378 -339 189 -339 l 351 -446 q 140 -375 217 -446 q 62 -178 62 -305 q 113 -17 62 -90 q 273 117 164 56 q 583 237 382 178 q 557 363 572 274 q 489 526 538 473 q 354 579 439 579 q 235 559 304 579 q 111 510 165 539 l 62 606 q 197 664 116 640 q 355 688 277 688 q 667 395 621 688 q 716 218 684 286 q 804 113 749 150 l 730 17 m 543 -399 q 492 -381 512 -399 q 471 -322 471 -363 q 492 -264 471 -283 q 543 -246 512 -246 q 594 -264 572 -246 q 615 -322 615 -283 q 594 -381 615 -363 q 543 -399 572 -399 m 424 -229 q 369 -210 391 -229 q 346 -146 346 -190 q 369 -83 346 -102 q 424 -63 391 -63 q 481 -85 460 -63 q 502 -146 502 -108 q 481 -207 502 -184 q 424 -229 461 -229 m 664 -229 q 607 -208 628 -229 q 586 -146 586 -186 q 607 -85 586 -106 q 664 -63 628 -63 q 721 -85 701 -63 q 742 -146 742 -108 q 722 -207 742 -184 q 664 -229 701 -229 z "},"ﭻ":{"ha":852,"x_min":62,"x_max":867,"o":"m 351 -446 q 140 -375 217 -446 q 62 -178 62 -305 q 115 -16 62 -90 q 278 119 167 58 q 585 237 389 180 q 557 363 570 285 q 489 526 538 473 q 354 579 439 579 q 235 559 304 579 q 111 510 165 539 l 62 606 q 197 664 116 640 q 355 688 277 688 q 667 395 621 688 q 709 211 688 262 q 764 134 730 160 q 852 109 798 109 l 860 109 q 867 103 867 109 l 867 7 q 860 0 867 0 l 852 0 q 720 33 777 0 q 624 139 663 66 q 366 48 458 94 q 232 -50 275 3 q 189 -167 189 -104 q 378 -339 189 -339 l 351 -446 m 543 -399 q 492 -381 512 -399 q 471 -322 471 -363 q 492 -264 471 -283 q 543 -246 512 -246 q 594 -264 572 -246 q 615 -322 615 -283 q 594 -381 615 -363 q 543 -399 572 -399 m 424 -229 q 369 -210 391 -229 q 346 -146 346 -190 q 369 -83 346 -102 q 424 -63 391 -63 q 481 -85 460 -63 q 502 -146 502 -108 q 481 -207 502 -184 q 424 -229 461 -229 m 664 -229 q 607 -208 628 -229 q 586 -146 586 -186 q 607 -85 586 -106 q 664 -63 628 -63 q 721 -85 701 -63 q 742 -146 742 -108 q 722 -207 742 -184 q 664 -229 701 -229 z "},"أ":{"ha":401,"x_min":61,"x_max":330,"o":"m 139 972 l 262 972 l 262 0 l 139 0 l 139 972 m 61 1104 l 127 1114 q 78 1202 78 1145 q 117 1294 78 1261 q 220 1326 156 1326 q 311 1305 274 1326 l 290 1243 q 221 1260 262 1260 q 170 1243 191 1260 q 149 1189 149 1225 q 161 1148 149 1165 q 191 1124 173 1132 q 257 1134 204 1127 q 330 1141 310 1141 l 330 1074 q 280 1070 319 1074 q 139 1053 242 1066 l 61 1040 l 61 1104 z "},"ﺄ":{"ha":439,"x_min":61,"x_max":453,"o":"m 139 972 l 262 972 l 262 109 l 446 109 q 453 103 453 109 l 453 7 q 446 0 453 0 l 139 0 l 139 972 m 61 1104 l 127 1114 q 78 1202 78 1145 q 117 1294 78 1261 q 220 1326 156 1326 q 311 1305 274 1326 l 290 1243 q 221 1260 262 1260 q 170 1243 191 1260 q 149 1189 149 1225 q 161 1148 149 1165 q 191 1124 173 1132 q 257 1134 204 1127 q 330 1141 310 1141 l 330 1074 q 280 1070 319 1074 q 139 1053 242 1066 l 61 1040 l 61 1104 z "},"إ":{"ha":401,"x_min":71,"x_max":339,"o":"m 139 1055 l 262 1055 l 262 0 l 139 0 l 139 1055 m 71 -302 l 136 -293 q 102 -258 117 -281 q 87 -205 87 -236 q 125 -114 87 -147 q 229 -81 163 -81 q 321 -102 283 -81 l 300 -164 q 231 -147 272 -147 q 179 -164 200 -147 q 158 -218 158 -182 q 200 -283 158 -262 q 269 -273 214 -280 q 339 -265 325 -265 l 339 -334 q 207 -347 308 -334 q 71 -367 106 -359 l 71 -302 z "},"ﺈ":{"ha":439,"x_min":71,"x_max":453,"o":"m 139 1055 l 262 1055 l 262 109 l 446 109 q 453 103 453 109 l 453 7 q 446 0 453 0 l 139 0 l 139 1055 m 71 -302 l 136 -293 q 102 -258 117 -281 q 87 -205 87 -236 q 125 -114 87 -147 q 229 -81 163 -81 q 321 -102 283 -81 l 300 -164 q 231 -147 272 -147 q 179 -164 200 -147 q 158 -218 158 -182 q 200 -283 158 -262 q 269 -273 214 -280 q 339 -265 325 -265 l 339 -334 q 207 -347 308 -334 q 71 -367 106 -359 l 71 -302 z "},"آ":{"ha":401,"x_min":-12,"x_max":425,"o":"m 139 972 l 262 972 l 262 0 l 139 0 l 139 972 m -12 1055 q 26 1160 -5 1122 q 115 1198 58 1198 q 165 1189 140 1198 q 214 1168 191 1179 q 259 1147 237 1156 q 298 1137 280 1137 q 339 1152 326 1137 q 363 1200 353 1166 l 425 1200 q 387 1096 418 1134 q 298 1057 355 1057 q 248 1067 273 1057 q 201 1088 224 1076 q 156 1109 178 1099 q 115 1118 134 1118 q 73 1104 87 1118 q 50 1055 60 1089 l -12 1055 z "},"ﺂ":{"ha":439,"x_min":-12,"x_max":453,"o":"m 139 972 l 262 972 l 262 109 l 446 109 q 453 103 453 109 l 453 7 q 446 0 453 0 l 139 0 l 139 972 m -12 1055 q 26 1160 -5 1122 q 115 1198 58 1198 q 165 1189 140 1198 q 214 1168 191 1179 q 259 1147 237 1156 q 298 1137 280 1137 q 339 1152 326 1137 q 363 1200 353 1166 l 425 1200 q 387 1096 418 1134 q 298 1057 355 1057 q 248 1067 273 1057 q 201 1088 224 1076 q 156 1109 178 1099 q 115 1118 134 1118 q 73 1104 87 1118 q 50 1055 60 1089 l -12 1055 z "},"ٱ":{"ha":401,"x_min":18,"x_max":357,"o":"m 139 972 l 262 972 l 262 0 l 139 0 l 139 972 m 18 1133 l 82 1133 q 237 1275 131 1275 q 326 1238 295 1275 q 357 1133 357 1200 l 357 1069 l 18 1069 l 18 1133 m 286 1133 q 274 1192 286 1174 q 237 1210 262 1210 q 191 1188 213 1210 q 159 1133 169 1166 l 286 1133 z "},"ﭑ":{"ha":439,"x_min":18,"x_max":453,"o":"m 139 972 l 262 972 l 262 109 l 446 109 q 453 103 453 109 l 453 7 q 446 0 453 0 l 139 0 l 139 972 m 18 1133 l 82 1133 q 237 1275 131 1275 q 326 1238 295 1275 q 357 1133 357 1200 l 357 1069 l 18 1069 l 18 1133 m 286 1133 q 274 1192 286 1174 q 237 1210 262 1210 q 191 1188 213 1210 q 159 1133 169 1166 l 286 1133 z "},"ب":{"ha":1080,"x_min":90,"x_max":962,"o":"m 350 0 q 160 72 230 0 q 90 269 90 144 q 100 376 90 315 q 125 478 110 436 l 236 478 q 215 279 215 378 q 251 156 215 203 q 346 109 287 109 l 844 109 l 844 673 l 962 673 l 962 0 l 350 0 m 579 -278 q 522 -256 543 -278 q 501 -195 501 -235 q 522 -133 501 -155 q 579 -111 543 -111 q 637 -134 616 -111 q 657 -195 657 -157 q 637 -255 657 -233 q 579 -278 616 -278 z "},"ﺑ":{"ha":418,"x_min":-14,"x_max":310,"o":"m -7 0 q -14 7 -14 0 l -14 103 q -7 109 -14 109 l 176 109 l 176 673 l 300 673 l 300 0 l -7 0 m 232 -278 q 175 -256 196 -278 q 154 -195 154 -235 q 175 -133 154 -155 q 232 -111 195 -111 q 290 -134 269 -111 q 310 -195 310 -157 q 290 -255 310 -233 q 232 -278 269 -278 z "},"ﺒ":{"ha":473,"x_min":-14,"x_max":488,"o":"m -7 0 q -14 7 -14 0 l -14 103 q -7 109 -14 109 l 176 109 l 176 673 l 300 673 l 300 109 l 481 109 q 488 103 488 109 l 488 7 q 481 0 488 0 l -7 0 m 231 -278 q 174 -256 195 -278 q 153 -195 153 -235 q 173 -133 153 -155 q 231 -111 194 -111 q 288 -134 268 -111 q 309 -195 309 -157 q 288 -255 309 -233 q 231 -278 268 -278 z "},"ﺐ":{"ha":1140,"x_min":90,"x_max":1154,"o":"m 350 0 q 160 72 230 0 q 90 269 90 144 q 100 376 90 315 q 125 478 110 436 l 236 478 q 215 279 215 378 q 251 156 215 203 q 346 109 287 109 l 844 109 l 844 673 l 962 673 l 962 109 l 1147 109 q 1154 103 1154 109 l 1154 7 q 1147 0 1154 0 l 350 0 m 579 -278 q 522 -256 543 -278 q 501 -195 501 -235 q 522 -133 501 -155 q 579 -111 543 -111 q 637 -134 616 -111 q 657 -195 657 -157 q 637 -255 657 -233 q 579 -278 616 -278 z "},"پ":{"ha":1080,"x_min":90,"x_max":962,"o":"m 350 0 q 160 72 230 0 q 90 269 90 144 q 100 376 90 315 q 125 478 110 436 l 236 478 q 215 279 215 378 q 251 156 215 203 q 346 109 287 109 l 844 109 l 844 673 l 962 673 l 962 0 l 350 0 m 571 -467 q 519 -449 540 -467 q 499 -390 499 -431 q 519 -332 499 -351 q 571 -314 540 -314 q 622 -332 600 -314 q 643 -390 643 -351 q 622 -449 643 -431 q 571 -467 600 -467 m 452 -297 q 396 -277 419 -297 q 374 -214 374 -258 q 396 -151 374 -170 q 452 -131 419 -131 q 509 -153 488 -131 q 530 -214 530 -176 q 509 -274 530 -252 q 452 -297 489 -297 m 692 -297 q 635 -275 656 -297 q 614 -214 614 -254 q 635 -153 614 -174 q 692 -131 656 -131 q 749 -153 728 -131 q 770 -214 770 -176 q 749 -274 770 -252 q 692 -297 729 -297 z "},"ﭗ":{"ha":1140,"x_min":90,"x_max":1154,"o":"m 350 0 q 160 72 230 0 q 90 269 90 144 q 100 376 90 315 q 125 478 110 436 l 236 478 q 215 279 215 378 q 251 156 215 203 q 346 109 287 109 l 844 109 l 844 673 l 962 673 l 962 109 l 1147 109 q 1154 103 1154 109 l 1154 7 q 1147 0 1154 0 l 350 0 m 571 -467 q 519 -449 540 -467 q 499 -390 499 -431 q 519 -332 499 -351 q 571 -314 540 -314 q 622 -332 600 -314 q 643 -390 643 -351 q 622 -449 643 -431 q 571 -467 600 -467 m 452 -297 q 396 -277 419 -297 q 374 -214 374 -258 q 396 -151 374 -170 q 452 -131 419 -131 q 509 -153 488 -131 q 530 -214 530 -176 q 509 -274 530 -252 q 452 -297 489 -297 m 692 -297 q 635 -275 656 -297 q 614 -214 614 -254 q 635 -153 614 -174 q 692 -131 656 -131 q 749 -153 728 -131 q 770 -214 770 -176 q 749 -274 770 -252 q 692 -297 729 -297 z "},"ﭘ":{"ha":519,"x_min":-14,"x_max":396,"o":"m -7 0 q -14 7 -14 0 l -14 103 q -7 109 -14 109 l 260 109 l 260 673 l 383 673 l 383 0 l -7 0 m 197 -467 q 146 -449 166 -467 q 125 -390 125 -431 q 146 -332 125 -351 q 197 -314 166 -314 q 248 -332 227 -314 q 269 -390 269 -351 q 248 -449 269 -431 q 197 -467 227 -467 m 78 -297 q 23 -277 45 -297 q 0 -214 0 -258 q 23 -151 0 -170 q 78 -131 45 -131 q 135 -153 115 -131 q 156 -214 156 -176 q 136 -274 156 -252 q 78 -297 115 -297 m 318 -297 q 261 -275 282 -297 q 240 -214 240 -254 q 261 -153 240 -174 q 318 -131 282 -131 q 375 -153 355 -131 q 396 -214 396 -176 q 376 -274 396 -252 q 318 -297 355 -297 z "},"ﭙ":{"ha":543,"x_min":-14,"x_max":557,"o":"m -7 0 q -14 7 -14 0 l -14 103 q -7 109 -14 109 l 218 109 l 218 673 l 342 673 l 342 109 l 550 109 q 557 103 557 109 l 557 7 q 550 0 557 0 l -7 0 m 292 -467 q 240 -449 260 -467 q 220 -390 220 -431 q 240 -332 220 -351 q 292 -314 260 -314 q 342 -332 321 -314 q 363 -390 363 -351 q 342 -449 363 -431 q 292 -467 321 -467 m 172 -297 q 117 -277 140 -297 q 94 -214 94 -258 q 117 -151 94 -170 q 172 -131 140 -131 q 230 -153 209 -131 q 250 -214 250 -176 q 230 -274 250 -252 q 172 -297 210 -297 m 412 -297 q 355 -275 376 -297 q 334 -214 334 -254 q 355 -153 334 -174 q 412 -131 376 -131 q 470 -153 449 -131 q 490 -214 490 -176 q 470 -274 490 -252 q 412 -297 450 -297 z "},"ت":{"ha":1080,"x_min":90,"x_max":962,"o":"m 350 0 q 160 72 230 0 q 90 269 90 144 q 100 376 90 315 q 125 478 110 436 l 236 478 q 215 279 215 378 q 251 156 215 203 q 346 109 287 109 l 844 109 l 844 673 l 962 673 l 962 0 l 350 0 m 406 674 q 350 694 373 674 q 328 758 328 713 q 350 821 328 802 q 406 841 373 841 q 462 820 441 841 q 483 758 483 798 q 462 696 483 718 q 406 674 441 674 m 646 674 q 589 696 610 674 q 568 758 568 718 q 588 819 568 798 q 646 841 609 841 q 703 818 683 841 q 724 758 724 795 q 703 697 724 720 q 646 674 683 674 z "},"ﺗ":{"ha":519,"x_min":-14,"x_max":511,"o":"m -7 0 q -14 7 -14 0 l -14 103 q -7 109 -14 109 l 260 109 l 260 673 l 383 673 l 383 0 l -7 0 m 193 806 q 138 825 161 806 q 115 889 115 845 q 138 953 115 933 q 193 972 161 972 q 250 951 229 972 q 271 889 271 930 q 250 827 271 849 q 193 806 229 806 m 433 806 q 376 827 397 806 q 355 889 355 849 q 376 951 355 929 q 433 972 397 972 q 491 950 471 972 q 511 889 511 927 q 491 828 511 851 q 433 806 471 806 z "},"ﺘ":{"ha":543,"x_min":-14,"x_max":557,"o":"m -7 0 q -14 7 -14 0 l -14 103 q -7 109 -14 109 l 218 109 l 218 673 l 342 673 l 342 109 l 550 109 q 557 103 557 109 l 557 7 q 550 0 557 0 l -7 0 m 159 806 q 103 825 126 806 q 81 889 81 845 q 103 953 81 933 q 159 972 126 972 q 215 951 194 972 q 236 889 236 930 q 215 827 236 849 q 159 806 195 806 m 399 806 q 342 827 363 806 q 321 889 321 849 q 341 951 321 929 q 399 972 362 972 q 456 950 436 972 q 477 889 477 927 q 456 828 477 851 q 399 806 436 806 z "},"ﺖ":{"ha":1140,"x_min":90,"x_max":1154,"o":"m 350 0 q 160 72 230 0 q 90 269 90 144 q 100 376 90 315 q 125 478 110 436 l 236 478 q 215 279 215 378 q 251 156 215 203 q 346 109 287 109 l 844 109 l 844 673 l 962 673 l 962 109 l 1147 109 q 1154 103 1154 109 l 1154 7 q 1147 0 1154 0 l 350 0 m 406 674 q 350 694 373 674 q 328 758 328 713 q 350 821 328 802 q 406 841 373 841 q 462 820 441 841 q 483 758 483 798 q 462 696 483 718 q 406 674 441 674 m 646 674 q 589 696 610 674 q 568 758 568 718 q 588 819 568 798 q 646 841 609 841 q 703 818 683 841 q 724 758 724 795 q 703 697 724 720 q 646 674 683 674 z "},"ث":{"ha":1080,"x_min":90,"x_max":962,"o":"m 350 0 q 160 72 230 0 q 90 269 90 144 q 100 376 90 315 q 125 478 110 436 l 236 478 q 215 279 215 378 q 251 156 215 203 q 346 109 287 109 l 844 109 l 844 673 l 962 673 l 962 0 l 350 0 m 536 863 q 485 881 505 863 q 465 939 465 899 q 485 998 465 979 q 536 1016 505 1016 q 587 997 566 1016 q 608 939 608 979 q 587 881 608 899 q 536 863 566 863 m 417 675 q 362 695 385 675 q 339 759 339 715 q 362 823 339 803 q 417 842 385 842 q 475 820 454 842 q 495 759 495 797 q 475 698 495 721 q 417 675 454 675 m 657 675 q 600 697 621 675 q 579 759 579 719 q 600 821 579 799 q 657 842 621 842 q 715 820 694 842 q 735 759 735 797 q 715 698 735 721 q 657 675 694 675 z "},"ﺛ":{"ha":519,"x_min":-14,"x_max":511,"o":"m -7 0 q -14 7 -14 0 l -14 103 q -7 109 -14 109 l 260 109 l 260 673 l 383 673 l 383 0 l -7 0 m 313 993 q 261 1011 281 993 q 241 1069 241 1029 q 261 1128 241 1109 q 313 1146 281 1146 q 363 1127 342 1146 q 385 1069 385 1109 q 363 1011 385 1029 q 313 993 342 993 m 193 806 q 138 825 161 806 q 115 889 115 845 q 138 953 115 933 q 193 972 161 972 q 251 950 231 972 q 271 889 271 927 q 251 828 271 851 q 193 806 231 806 m 433 806 q 376 827 397 806 q 355 889 355 849 q 376 951 355 929 q 433 972 397 972 q 491 950 471 972 q 511 889 511 927 q 491 828 511 851 q 433 806 471 806 z "},"ﺜ":{"ha":543,"x_min":-14,"x_max":557,"o":"m -7 0 q -14 7 -14 0 l -14 103 q -7 109 -14 109 l 218 109 l 218 673 l 342 673 l 342 109 l 550 109 q 557 103 557 109 l 557 7 q 550 0 557 0 l -7 0 m 278 993 q 227 1011 247 993 q 206 1069 206 1029 q 227 1128 206 1109 q 278 1146 247 1146 q 329 1127 307 1146 q 350 1069 350 1109 q 329 1011 350 1029 q 278 993 307 993 m 159 806 q 103 825 126 806 q 81 889 81 845 q 103 953 81 933 q 159 972 126 972 q 216 950 196 972 q 237 889 237 927 q 216 828 237 851 q 159 806 196 806 m 399 806 q 342 827 363 806 q 321 889 321 849 q 341 951 321 929 q 399 972 362 972 q 456 950 436 972 q 477 889 477 927 q 456 828 477 851 q 399 806 436 806 z "},"ﺚ":{"ha":1140,"x_min":90,"x_max":1154,"o":"m 350 0 q 160 72 230 0 q 90 269 90 144 q 100 376 90 315 q 125 478 110 436 l 236 478 q 215 279 215 378 q 251 156 215 203 q 346 109 287 109 l 844 109 l 844 673 l 962 673 l 962 109 l 1147 109 q 1154 103 1154 109 l 1154 7 q 1147 0 1154 0 l 350 0 m 536 861 q 485 879 505 861 q 465 938 465 897 q 485 996 465 978 q 536 1015 505 1015 q 587 996 566 1015 q 608 938 608 977 q 587 879 608 897 q 536 861 566 861 m 417 674 q 362 694 385 674 q 339 758 339 713 q 362 821 339 802 q 417 841 385 841 q 475 818 454 841 q 495 758 495 795 q 475 697 495 720 q 417 674 454 674 m 657 674 q 600 696 621 674 q 579 758 579 718 q 600 819 579 798 q 657 841 621 841 q 715 818 694 841 q 735 758 735 795 q 715 697 735 720 q 657 674 694 674 z "},"ٹ":{"ha":1080,"x_min":90,"x_max":962,"o":"m 350 0 q 160 72 230 0 q 90 269 90 144 q 100 376 90 315 q 125 478 110 436 l 236 478 q 215 279 215 378 q 251 156 215 203 q 346 109 287 109 l 844 109 l 844 673 l 962 673 l 962 0 l 350 0 m 394 734 l 415 734 l 415 987 l 471 987 l 471 810 q 513 876 488 851 q 579 901 538 901 q 682 780 682 901 l 682 674 l 394 674 l 394 734 m 626 734 l 626 768 q 614 823 626 805 q 572 841 602 841 q 515 819 540 841 q 471 748 490 797 l 471 734 l 626 734 z "},"ﭨ":{"ha":519,"x_min":-14,"x_max":458,"o":"m -7 0 q -14 7 -14 0 l -14 103 q -7 109 -14 109 l 260 109 l 260 673 l 383 673 l 383 0 l -7 0 m 170 876 l 191 876 l 191 1129 l 247 1129 l 247 953 q 289 1018 264 994 q 355 1043 315 1043 q 458 922 458 1043 l 458 817 l 170 817 l 170 876 m 402 876 l 402 911 q 390 965 402 947 q 349 983 378 983 q 291 961 316 983 q 247 890 267 939 l 247 876 l 402 876 z "},"ﭩ":{"ha":543,"x_min":-14,"x_max":557,"o":"m -7 0 q -14 7 -14 0 l -14 103 q -7 109 -14 109 l 218 109 l 218 673 l 342 673 l 342 109 l 550 109 q 557 103 557 109 l 557 7 q 550 0 557 0 l -7 0 m 132 876 l 153 876 l 153 1129 l 208 1129 l 208 953 q 251 1018 225 994 q 317 1043 276 1043 q 419 922 419 1043 l 419 817 l 132 817 l 132 876 m 363 876 l 363 911 q 351 965 363 947 q 310 983 339 983 q 253 961 277 983 q 208 890 228 939 l 208 876 l 363 876 z "},"ﭧ":{"ha":1140,"x_min":90,"x_max":1154,"o":"m 350 0 q 160 72 230 0 q 90 269 90 144 q 100 376 90 315 q 125 478 110 436 l 236 478 q 215 279 215 378 q 251 156 215 203 q 346 109 287 109 l 844 109 l 844 673 l 962 673 l 962 109 l 1147 109 q 1154 103 1154 109 l 1154 7 q 1147 0 1154 0 l 350 0 m 394 734 l 415 734 l 415 987 l 471 987 l 471 810 q 513 876 488 851 q 579 901 538 901 q 682 780 682 901 l 682 674 l 394 674 l 394 734 m 626 734 l 626 768 q 614 823 626 805 q 572 841 602 841 q 515 819 540 841 q 471 748 490 797 l 471 734 l 626 734 z "},"ة":{"ha":829,"x_min":90,"x_max":739,"o":"m 412 -14 q 175 70 259 -14 q 90 309 90 154 q 133 498 90 410 q 250 637 175 587 q 416 688 325 688 q 577 636 503 688 q 696 494 652 584 q 739 309 739 405 q 657 69 739 151 q 412 -14 574 -14 m 415 93 q 614 307 614 93 q 561 507 614 433 q 414 581 508 581 q 272 505 329 581 q 215 307 215 429 q 415 93 215 93 m 277 806 q 221 825 244 806 q 199 889 199 845 q 221 953 199 933 q 277 972 244 972 q 333 951 312 972 q 354 889 354 930 q 333 827 354 849 q 277 806 313 806 m 517 806 q 460 827 481 806 q 439 889 439 849 q 459 951 439 929 q 517 972 480 972 q 574 950 554 972 q 595 889 595 927 q 574 828 595 851 q 517 806 554 806 z "},"ﺔ":{"ha":832,"x_min":90,"x_max":846,"o":"m 443 0 q 183 84 276 0 q 90 321 90 169 q 193 579 90 485 q 471 673 296 673 l 562 673 l 562 761 l 681 761 l 681 109 l 839 109 q 846 103 846 109 l 846 7 q 839 0 846 0 l 443 0 m 562 109 l 562 566 l 475 566 q 282 502 350 566 q 214 322 214 437 q 273 163 214 218 q 440 109 332 109 l 562 109 m 371 889 q 316 909 338 889 q 293 972 293 928 q 316 1036 293 1017 q 371 1056 338 1056 q 427 1035 406 1056 q 448 972 448 1013 q 428 911 448 932 q 371 889 407 889 m 611 889 q 554 911 575 889 q 533 972 533 932 q 554 1034 533 1013 q 611 1056 574 1056 q 669 1033 648 1056 q 689 972 689 1010 q 669 912 689 935 q 611 889 648 889 z "},"ﭼ":{"ha":806,"x_min":-14,"x_max":715,"o":"m -7 0 q -14 7 -14 0 l -14 103 q -7 109 -14 109 l 589 109 q 501 363 538 159 q 442 531 481 483 q 326 579 404 579 q 125 524 230 579 l 77 619 q 197 673 136 658 q 328 688 258 688 q 469 657 412 688 q 560 567 526 627 q 611 395 593 507 q 657 203 631 271 q 715 106 682 136 l 715 0 l -7 0 m 332 -467 q 280 -449 300 -467 q 260 -390 260 -431 q 280 -332 260 -351 q 332 -314 300 -314 q 382 -332 361 -314 q 404 -390 404 -351 q 382 -449 404 -431 q 332 -467 361 -467 m 212 -297 q 157 -277 180 -297 q 134 -214 134 -258 q 157 -151 134 -170 q 212 -131 180 -131 q 270 -153 249 -131 q 290 -214 290 -176 q 270 -274 290 -252 q 212 -297 250 -297 m 452 -297 q 395 -275 416 -297 q 374 -214 374 -254 q 395 -153 374 -174 q 452 -131 416 -131 q 510 -153 489 -131 q 530 -214 530 -176 q 510 -274 530 -252 q 452 -297 490 -297 z "},"ﭽ":{"ha":798,"x_min":-14,"x_max":811,"o":"m -7 0 q -14 7 -14 0 l -14 103 q -7 109 -14 109 l 589 109 q 501 363 535 162 q 442 530 481 481 q 326 579 403 579 q 125 524 230 579 l 77 619 q 197 673 136 658 q 328 688 258 688 q 469 657 412 688 q 560 567 526 627 q 611 395 593 507 q 711 109 643 177 l 804 109 q 811 103 811 109 l 811 7 q 804 0 811 0 l -7 0 m 332 -467 q 280 -449 300 -467 q 260 -390 260 -431 q 280 -332 260 -351 q 332 -314 300 -314 q 382 -332 361 -314 q 404 -390 404 -351 q 382 -449 404 -431 q 332 -467 361 -467 m 212 -297 q 157 -277 180 -297 q 134 -214 134 -258 q 157 -151 134 -170 q 212 -131 180 -131 q 270 -153 249 -131 q 290 -214 290 -176 q 270 -274 290 -252 q 212 -297 250 -297 m 452 -297 q 395 -275 416 -297 q 374 -214 374 -254 q 395 -153 374 -174 q 452 -131 416 -131 q 510 -153 489 -131 q 530 -214 530 -176 q 510 -274 530 -252 q 452 -297 490 -297 z "},"ج":{"ha":895,"x_min":62,"x_max":804,"o":"m 730 17 q 667 75 693 47 q 621 139 640 102 q 289 3 388 76 q 189 -167 189 -71 q 241 -297 189 -256 q 401 -339 292 -339 q 606 -317 471 -339 l 621 -412 q 465 -439 522 -433 q 351 -446 407 -446 q 140 -375 217 -446 q 62 -178 62 -305 q 113 -17 62 -90 q 273 117 164 56 q 583 237 382 178 q 557 363 572 274 q 489 526 538 473 q 354 579 439 579 q 235 559 304 579 q 111 510 165 539 l 62 606 q 197 664 116 640 q 355 688 277 688 q 667 395 621 688 q 716 218 684 286 q 804 113 749 150 l 730 17 m 416 -237 q 359 -215 380 -237 q 338 -153 338 -193 q 359 -92 338 -113 q 416 -70 380 -70 q 474 -93 454 -70 q 494 -153 494 -115 q 474 -214 494 -191 q 416 -237 454 -237 z "},"ﺟ":{"ha":806,"x_min":-14,"x_max":715,"o":"m -7 0 q -14 7 -14 0 l -14 103 q -7 109 -14 109 l 589 109 q 501 363 538 159 q 442 531 481 483 q 326 579 404 579 q 125 524 230 579 l 77 619 q 197 673 136 658 q 328 688 258 688 q 469 657 412 688 q 560 567 526 627 q 611 395 593 507 q 657 203 631 271 q 715 106 682 136 l 715 0 l -7 0 m 323 -278 q 267 -256 288 -278 q 245 -195 245 -235 q 266 -133 245 -155 q 323 -111 287 -111 q 381 -134 361 -111 q 401 -195 401 -157 q 381 -255 401 -233 q 323 -278 361 -278 z "},"ﺠ":{"ha":798,"x_min":-14,"x_max":811,"o":"m -7 0 q -14 7 -14 0 l -14 103 q -7 109 -14 109 l 589 109 q 501 363 535 162 q 442 530 481 481 q 326 579 403 579 q 125 524 230 579 l 77 619 q 197 673 136 658 q 328 688 258 688 q 469 657 412 688 q 560 567 526 627 q 611 395 593 507 q 711 109 643 177 l 804 109 q 811 103 811 109 l 811 7 q 804 0 811 0 l -7 0 m 323 -278 q 267 -256 288 -278 q 245 -195 245 -235 q 266 -133 245 -155 q 323 -111 287 -111 q 381 -134 361 -111 q 401 -195 401 -157 q 381 -255 401 -233 q 323 -278 361 -278 z "},"ﺞ":{"ha":852,"x_min":62,"x_max":867,"o":"m 351 -446 q 140 -375 217 -446 q 62 -178 62 -305 q 115 -16 62 -90 q 278 119 167 58 q 585 237 389 180 q 557 363 570 285 q 489 526 538 473 q 354 579 439 579 q 235 559 304 579 q 111 510 165 539 l 62 606 q 197 664 116 640 q 355 688 277 688 q 667 395 621 688 q 709 211 688 262 q 764 134 730 160 q 852 109 798 109 l 860 109 q 867 103 867 109 l 867 7 q 860 0 867 0 l 852 0 q 720 33 777 0 q 624 139 663 66 q 366 48 458 94 q 232 -50 275 3 q 189 -167 189 -104 q 241 -297 189 -256 q 401 -339 292 -339 q 606 -317 471 -339 l 621 -412 q 465 -439 522 -433 q 351 -446 407 -446 m 416 -237 q 359 -215 380 -237 q 338 -153 338 -193 q 359 -92 338 -113 q 416 -70 380 -70 q 474 -93 454 -70 q 494 -153 494 -115 q 474 -214 494 -191 q 416 -237 454 -237 z "},"خ":{"ha":895,"x_min":62,"x_max":804,"o":"m 730 17 q 667 75 693 47 q 621 139 640 102 q 289 3 388 76 q 189 -167 189 -71 q 241 -297 189 -256 q 401 -339 292 -339 q 606 -317 471 -339 l 621 -412 q 465 -439 522 -433 q 351 -446 407 -446 q 140 -375 217 -446 q 62 -178 62 -305 q 113 -17 62 -90 q 273 117 164 56 q 583 237 382 178 q 557 363 572 274 q 489 526 538 473 q 354 579 439 579 q 235 559 304 579 q 111 510 165 539 l 62 606 q 197 664 116 640 q 355 688 277 688 q 667 395 621 688 q 716 218 684 286 q 804 113 749 150 l 730 17 m 343 806 q 286 827 307 806 q 265 889 265 849 q 286 951 265 929 q 343 972 307 972 q 401 950 380 972 q 421 889 421 927 q 401 828 421 851 q 343 806 380 806 z "},"ﺧ":{"ha":806,"x_min":-14,"x_max":715,"o":"m -7 0 q -14 7 -14 0 l -14 103 q -7 109 -14 109 l 589 109 q 501 363 538 159 q 442 531 481 483 q 326 579 404 579 q 125 524 230 579 l 77 619 q 197 673 136 658 q 328 688 258 688 q 469 657 412 688 q 560 567 526 627 q 611 395 593 507 q 657 203 631 271 q 715 106 682 136 l 715 0 l -7 0 m 343 806 q 286 827 307 806 q 265 889 265 849 q 286 951 265 929 q 343 972 307 972 q 401 950 380 972 q 421 889 421 927 q 401 828 421 851 q 343 806 380 806 z "},"ﺨ":{"ha":798,"x_min":-14,"x_max":811,"o":"m -7 0 q -14 7 -14 0 l -14 103 q -7 109 -14 109 l 589 109 q 501 363 535 162 q 442 530 481 481 q 326 579 403 579 q 125 524 230 579 l 77 619 q 197 673 136 658 q 328 688 258 688 q 469 657 412 688 q 560 567 526 627 q 611 395 593 507 q 711 109 643 177 l 804 109 q 811 103 811 109 l 811 7 q 804 0 811 0 l -7 0 m 343 806 q 286 827 307 806 q 265 889 265 849 q 286 951 265 929 q 343 972 307 972 q 401 950 380 972 q 421 889 421 927 q 401 828 421 851 q 343 806 380 806 z "},"ﺦ":{"ha":852,"x_min":62,"x_max":867,"o":"m 351 -446 q 140 -375 217 -446 q 62 -178 62 -305 q 115 -16 62 -90 q 278 119 167 58 q 585 237 389 180 q 557 363 570 285 q 489 526 538 473 q 354 579 439 579 q 235 559 304 579 q 111 510 165 539 l 62 606 q 197 664 116 640 q 355 688 277 688 q 667 395 621 688 q 709 211 688 262 q 764 134 730 160 q 852 109 798 109 l 860 109 q 867 103 867 109 l 867 7 q 860 0 867 0 l 852 0 q 720 33 777 0 q 624 139 663 66 q 366 48 458 94 q 232 -50 275 3 q 189 -167 189 -104 q 241 -297 189 -256 q 401 -339 292 -339 q 606 -317 471 -339 l 621 -412 q 465 -439 522 -433 q 351 -446 407 -446 m 343 806 q 286 827 307 806 q 265 889 265 849 q 286 951 265 929 q 343 972 307 972 q 401 950 380 972 q 421 889 421 927 q 401 828 421 851 q 343 806 380 806 z "},"ذ":{"ha":707,"x_min":62,"x_max":644,"o":"m 62 109 l 525 109 q 421 426 498 295 q 203 653 345 557 l 248 758 q 508 511 408 675 q 644 106 609 347 l 644 0 l 62 0 l 62 109 m 252 886 q 195 908 216 886 q 174 970 174 930 q 194 1031 174 1010 q 252 1053 215 1053 q 309 1030 289 1053 q 330 970 330 1008 q 309 909 330 932 q 252 886 289 886 z "},"ﺬ":{"ha":790,"x_min":62,"x_max":804,"o":"m 62 109 l 525 109 q 421 426 498 295 q 203 653 345 557 l 248 758 q 508 509 408 673 q 643 109 609 345 l 798 109 q 804 103 804 109 l 804 7 q 798 0 804 0 l 62 0 l 62 109 m 252 886 q 195 908 216 886 q 174 970 174 930 q 194 1031 174 1010 q 252 1053 215 1053 q 309 1030 289 1053 q 330 970 330 1008 q 309 909 330 932 q 252 886 289 886 z "},"ڈ":{"ha":707,"x_min":62,"x_max":644,"o":"m 62 109 l 525 109 q 421 426 498 295 q 203 653 345 557 l 248 758 q 508 511 408 675 q 644 106 609 347 l 644 0 l 62 0 l 62 109 m 121 940 l 142 940 l 142 1193 l 197 1193 l 197 1017 q 240 1082 214 1057 q 306 1107 265 1107 q 408 986 408 1107 l 408 880 l 121 880 l 121 940 m 353 940 l 353 975 q 340 1029 353 1011 q 299 1047 328 1047 q 242 1025 267 1047 q 197 954 217 1003 l 197 940 l 353 940 z "},"ﮉ":{"ha":790,"x_min":62,"x_max":804,"o":"m 62 109 l 525 109 q 421 426 498 295 q 203 653 345 557 l 248 758 q 508 509 408 673 q 643 109 609 345 l 798 109 q 804 103 804 109 l 804 7 q 798 0 804 0 l 62 0 l 62 109 m 121 940 l 142 940 l 142 1193 l 197 1193 l 197 1017 q 240 1082 214 1057 q 306 1107 265 1107 q 408 986 408 1107 l 408 880 l 121 880 l 121 940 m 353 940 l 353 975 q 340 1029 353 1011 q 299 1047 328 1047 q 242 1025 267 1047 q 197 954 217 1003 l 197 940 l 353 940 z "},"ز":{"ha":452,"x_min":-56,"x_max":346,"o":"m 86 -334 q -56 -294 20 -334 l -20 -201 q 36 -221 14 -216 q 83 -225 58 -225 q 181 -174 146 -225 q 216 -40 216 -123 l 216 673 l 334 673 l 334 -33 q 270 -254 334 -174 q 86 -334 206 -334 m 268 806 q 211 827 232 806 q 190 889 190 849 q 211 951 190 929 q 268 972 231 972 q 326 950 305 972 q 346 889 346 927 q 326 828 346 851 q 268 806 305 806 z "},"ﺰ":{"ha":498,"x_min":-56,"x_max":513,"o":"m 334 0 l 334 -33 q 270 -254 334 -174 q 86 -334 206 -334 q -56 -294 20 -334 l -20 -201 q 36 -221 14 -216 q 83 -225 58 -225 q 181 -174 146 -225 q 216 -40 216 -123 l 216 673 l 334 673 l 334 109 l 505 109 q 513 103 513 109 l 513 7 q 505 0 513 0 l 334 0 m 296 806 q 239 827 260 806 q 218 889 218 849 q 238 951 218 929 q 296 972 259 972 q 353 950 333 972 q 374 889 374 927 q 353 828 374 851 q 296 806 333 806 z "},"ڑ":{"ha":452,"x_min":-56,"x_max":414,"o":"m 86 -334 q -56 -294 20 -334 l -20 -201 q 36 -221 14 -216 q 83 -225 58 -225 q 181 -174 146 -225 q 216 -40 216 -123 l 216 673 l 334 673 l 334 -33 q 270 -254 334 -174 q 86 -334 206 -334 m 126 876 l 147 876 l 147 1129 l 203 1129 l 203 953 q 245 1018 220 994 q 311 1043 271 1043 q 414 922 414 1043 l 414 817 l 126 817 l 126 876 m 358 876 l 358 911 q 346 965 358 947 q 304 983 334 983 q 247 961 272 983 q 203 890 222 939 l 203 876 l 358 876 z "},"ﮍ":{"ha":498,"x_min":-56,"x_max":513,"o":"m 334 0 l 334 -33 q 270 -254 334 -174 q 86 -334 206 -334 q -56 -294 20 -334 l -20 -201 q 36 -221 14 -216 q 83 -225 58 -225 q 181 -174 146 -225 q 216 -40 216 -123 l 216 673 l 334 673 l 334 109 l 505 109 q 513 103 513 109 l 513 7 q 505 0 513 0 l 334 0 m 154 876 l 175 876 l 175 1129 l 231 1129 l 231 953 q 273 1018 248 994 q 339 1043 298 1043 q 441 922 441 1043 l 441 817 l 154 817 l 154 876 m 386 876 l 386 911 q 374 965 386 947 q 332 983 361 983 q 275 961 300 983 q 231 890 250 939 l 231 876 l 386 876 z "},"ژ":{"ha":452,"x_min":-56,"x_max":472,"o":"m 86 -334 q -56 -294 20 -334 l -20 -201 q 36 -221 14 -216 q 83 -225 58 -225 q 181 -174 146 -225 q 216 -40 216 -123 l 216 673 l 334 673 l 334 -33 q 270 -254 334 -174 q 86 -334 206 -334 m 273 993 q 222 1011 242 993 q 201 1069 201 1029 q 222 1128 201 1109 q 273 1146 242 1146 q 324 1127 302 1146 q 345 1069 345 1109 q 324 1011 345 1029 q 273 993 302 993 m 154 806 q 99 825 121 806 q 76 889 76 845 q 99 953 76 933 q 154 972 121 972 q 212 950 191 972 q 232 889 232 927 q 212 828 232 851 q 154 806 191 806 m 394 806 q 337 827 358 806 q 316 889 316 849 q 337 951 316 929 q 394 972 357 972 q 452 950 431 972 q 472 889 472 927 q 452 828 472 851 q 394 806 431 806 z "},"ﮋ":{"ha":498,"x_min":-56,"x_max":513,"o":"m 334 0 l 334 -33 q 270 -254 334 -174 q 86 -334 206 -334 q -56 -294 20 -334 l -20 -201 q 36 -221 14 -216 q 83 -225 58 -225 q 181 -174 146 -225 q 216 -40 216 -123 l 216 673 l 334 673 l 334 109 l 505 109 q 513 103 513 109 l 513 7 q 505 0 513 0 l 334 0 m 301 993 q 250 1011 270 993 q 229 1069 229 1029 q 250 1128 229 1109 q 301 1146 270 1146 q 352 1127 330 1146 q 373 1069 373 1109 q 352 1011 373 1029 q 301 993 330 993 m 182 806 q 126 825 149 806 q 104 889 104 845 q 126 953 104 933 q 182 972 149 972 q 239 950 219 972 q 260 889 260 927 q 239 828 260 851 q 182 806 219 806 m 422 806 q 365 827 386 806 q 344 889 344 849 q 365 951 344 929 q 422 972 385 972 q 479 950 459 972 q 500 889 500 927 q 479 828 500 851 q 422 806 459 806 z "},"ش":{"ha":1725,"x_min":90,"x_max":1607,"o":"m 1404 0 q 1290 21 1342 0 q 1181 96 1237 41 q 1098 26 1149 53 q 978 0 1047 0 l 815 0 q 732 -249 815 -164 q 469 -334 648 -334 l 370 -334 q 165 -239 241 -334 q 90 22 90 -144 q 105 196 90 108 q 147 350 120 283 l 262 350 q 215 22 215 230 q 262 -161 215 -96 q 396 -225 310 -225 l 464 -225 q 641 -170 585 -225 q 697 -4 697 -115 l 697 566 l 815 566 l 815 109 l 965 109 q 1069 153 1032 109 q 1107 269 1107 197 l 1107 566 l 1225 566 l 1225 232 l 1223 216 q 1300 132 1258 156 q 1404 109 1342 109 l 1489 109 l 1489 673 l 1607 673 l 1607 0 l 1404 0 m 1157 993 q 1105 1011 1126 993 q 1085 1069 1085 1029 q 1105 1128 1085 1109 q 1157 1146 1126 1146 q 1207 1127 1186 1146 q 1229 1069 1229 1109 q 1207 1011 1229 1029 q 1157 993 1186 993 m 1038 806 q 982 825 1005 806 q 960 889 960 845 q 982 953 960 933 q 1038 972 1005 972 q 1095 950 1075 972 q 1116 889 1116 927 q 1095 828 1116 851 q 1038 806 1075 806 m 1278 806 q 1221 827 1242 806 q 1200 889 1200 849 q 1220 951 1200 929 q 1278 972 1241 972 q 1335 950 1315 972 q 1356 889 1356 927 q 1335 828 1356 851 q 1278 806 1315 806 z "},"ﺷ":{"ha":1219,"x_min":-14,"x_max":1101,"o":"m 899 0 q 784 21 836 0 q 675 97 731 41 q 593 27 644 54 q 472 0 543 0 l -7 0 q -14 7 -14 0 l -14 103 q -7 109 -14 109 l 192 109 l 192 566 l 310 566 l 310 109 l 460 109 q 564 153 527 109 q 602 269 602 197 l 602 566 l 720 566 l 720 232 l 718 216 q 794 133 753 157 q 899 109 835 109 l 983 109 l 983 673 l 1101 673 l 1101 0 l 899 0 m 659 993 q 607 1011 627 993 q 587 1069 587 1029 q 607 1128 587 1109 q 659 1146 627 1146 q 709 1127 688 1146 q 730 1069 730 1109 q 709 1011 730 1029 q 659 993 688 993 m 539 806 q 484 825 507 806 q 461 889 461 845 q 484 953 461 933 q 539 972 507 972 q 597 950 576 972 q 617 889 617 927 q 597 828 617 851 q 539 806 576 806 m 779 806 q 722 827 743 806 q 701 889 701 849 q 722 951 701 929 q 779 972 743 972 q 837 950 817 972 q 857 889 857 927 q 837 828 857 851 q 779 806 817 806 z "},"ﺸ":{"ha":1280,"x_min":-14,"x_max":1295,"o":"m 899 0 q 784 21 836 0 q 675 97 731 41 q 593 27 644 54 q 472 0 543 0 l -7 0 q -14 7 -14 0 l -14 103 q -7 109 -14 109 l 192 109 l 192 566 l 310 566 l 310 109 l 460 109 q 564 153 527 109 q 602 269 602 197 l 602 566 l 720 566 l 720 232 l 718 216 q 794 133 753 157 q 899 109 835 109 l 983 109 l 983 673 l 1101 673 l 1101 109 l 1287 109 q 1295 103 1295 109 l 1295 7 q 1287 0 1295 0 l 899 0 m 660 993 q 608 1011 629 993 q 588 1069 588 1029 q 608 1128 588 1109 q 660 1146 629 1146 q 710 1127 689 1146 q 732 1069 732 1109 q 710 1011 732 1029 q 660 993 689 993 m 541 806 q 485 825 508 806 q 463 889 463 845 q 485 953 463 933 q 541 972 508 972 q 598 950 578 972 q 618 889 618 927 q 598 828 618 851 q 541 806 578 806 m 781 806 q 724 827 745 806 q 703 889 703 849 q 723 951 703 929 q 781 972 744 972 q 838 950 818 972 q 859 889 859 927 q 838 828 859 851 q 781 806 818 806 z "},"ﺶ":{"ha":1786,"x_min":90,"x_max":1800,"o":"m 1404 0 q 1290 21 1342 0 q 1181 96 1237 41 q 1098 26 1149 53 q 978 0 1047 0 l 815 0 q 732 -249 815 -164 q 469 -334 648 -334 l 370 -334 q 165 -239 241 -334 q 90 22 90 -144 q 105 196 90 108 q 147 350 120 283 l 262 350 q 215 22 215 230 q 262 -161 215 -96 q 396 -225 310 -225 l 464 -225 q 641 -170 585 -225 q 697 -4 697 -115 l 697 566 l 815 566 l 815 109 l 965 109 q 1069 153 1032 109 q 1107 269 1107 197 l 1107 566 l 1225 566 l 1225 232 l 1223 216 q 1300 132 1258 156 q 1404 109 1342 109 l 1489 109 l 1489 673 l 1607 673 l 1607 109 l 1793 109 q 1800 103 1800 109 l 1800 7 q 1793 0 1800 0 l 1404 0 m 1164 993 q 1112 1011 1133 993 q 1092 1069 1092 1029 q 1112 1128 1092 1109 q 1164 1146 1133 1146 q 1214 1127 1193 1146 q 1236 1069 1236 1109 q 1214 1011 1236 1029 q 1164 993 1193 993 m 1044 806 q 989 825 1012 806 q 966 889 966 845 q 989 953 966 933 q 1044 972 1012 972 q 1102 950 1082 972 q 1122 889 1122 927 q 1102 828 1122 851 q 1044 806 1082 806 m 1284 806 q 1227 827 1249 806 q 1206 889 1206 849 q 1227 951 1206 929 q 1284 972 1248 972 q 1342 950 1322 972 q 1362 889 1362 927 q 1342 828 1362 851 q 1284 806 1322 806 z "},"ض":{"ha":1622,"x_min":90,"x_max":1518,"o":"m 370 -334 q 165 -239 241 -334 q 90 22 90 -144 q 105 196 90 108 q 147 350 120 283 l 262 350 q 215 22 215 230 q 262 -161 215 -96 q 396 -225 310 -225 l 464 -225 q 641 -170 585 -225 q 697 -4 697 -115 l 697 673 l 815 673 l 815 375 q 979 609 880 530 q 1200 688 1077 688 q 1437 602 1357 688 q 1518 335 1518 517 l 1518 0 l 815 0 q 732 -251 815 -168 q 469 -334 648 -334 l 370 -334 m 1400 109 l 1400 329 q 1344 517 1400 457 q 1175 578 1289 578 q 815 225 960 578 l 815 109 l 1400 109 m 1171 806 q 1114 827 1135 806 q 1093 889 1093 849 q 1113 951 1093 929 q 1171 972 1134 972 q 1228 950 1208 972 q 1249 889 1249 927 q 1228 828 1249 851 q 1171 806 1208 806 z "},"ﺿ":{"ha":1088,"x_min":-14,"x_max":983,"o":"m -7 0 q -14 7 -14 0 l -14 103 q -7 109 -14 109 l 163 109 l 163 632 l 281 632 l 281 375 q 444 609 346 530 q 665 688 543 688 q 903 602 823 688 q 983 335 983 517 l 983 0 l -7 0 m 865 109 l 865 329 q 809 517 865 457 q 640 578 753 578 q 281 222 427 578 l 281 109 l 865 109 m 627 806 q 570 827 591 806 q 549 889 549 849 q 569 951 549 929 q 627 972 590 972 q 684 950 664 972 q 705 889 705 927 q 684 828 705 851 q 627 806 664 806 z "},"ﻀ":{"ha":1160,"x_min":-14,"x_max":1174,"o":"m -7 0 q -14 7 -14 0 l -14 103 q -7 109 -14 109 l 163 109 l 163 632 l 281 632 l 281 375 q 444 609 346 530 q 665 688 543 688 q 903 602 823 688 q 983 335 983 517 l 983 109 l 1166 109 q 1174 103 1174 109 l 1174 7 q 1166 0 1174 0 l -7 0 m 865 109 l 865 329 q 809 517 865 457 q 640 578 753 578 q 281 222 427 578 l 281 109 l 865 109 m 628 806 q 571 827 592 806 q 550 889 550 849 q 571 951 550 929 q 628 972 591 972 q 686 950 665 972 q 706 889 706 927 q 686 828 706 851 q 628 806 665 806 z "},"ﺾ":{"ha":1697,"x_min":90,"x_max":1711,"o":"m 815 0 q 732 -251 815 -168 q 469 -334 648 -334 l 370 -334 q 165 -239 241 -334 q 90 22 90 -144 q 105 196 90 108 q 147 350 120 283 l 262 350 q 215 22 215 230 q 262 -161 215 -96 q 396 -225 310 -225 l 464 -225 q 641 -170 585 -225 q 697 -4 697 -115 l 697 673 l 815 673 l 815 375 q 979 609 880 530 q 1200 688 1077 688 q 1437 602 1357 688 q 1518 335 1518 517 l 1518 109 l 1704 109 q 1711 103 1711 109 l 1711 7 q 1704 0 1711 0 l 815 0 m 1400 109 l 1400 329 q 1344 517 1400 457 q 1175 578 1289 578 q 815 225 960 578 l 815 109 l 1400 109 m 1171 806 q 1114 827 1135 806 q 1093 889 1093 849 q 1113 951 1093 929 q 1171 972 1134 972 q 1228 950 1208 972 q 1249 889 1249 927 q 1228 828 1249 851 q 1171 806 1208 806 z "},"ظ":{"ha":1116,"x_min":28,"x_max":1025,"o":"m 35 0 q 28 7 28 0 l 28 103 q 35 109 28 109 l 204 109 l 204 1055 l 322 1055 l 322 375 q 486 609 387 530 q 707 688 584 688 q 944 602 864 688 q 1025 335 1025 517 l 1025 0 l 35 0 m 907 109 l 907 329 q 851 517 907 457 q 682 578 795 578 q 486 489 577 578 q 322 222 395 401 l 322 109 l 907 109 m 677 806 q 621 827 642 806 q 600 889 600 849 q 620 951 600 929 q 677 972 641 972 q 735 950 715 972 q 755 889 755 927 q 735 828 755 851 q 677 806 715 806 z "},"ﻇ":{"ha":1074,"x_min":-14,"x_max":983,"o":"m -7 0 q -14 7 -14 0 l -14 103 q -7 109 -14 109 l 163 109 l 163 1055 l 281 1055 l 281 375 q 444 609 346 530 q 665 688 543 688 q 903 602 823 688 q 983 335 983 517 l 983 0 l -7 0 m 865 109 l 865 329 q 809 517 865 457 q 640 578 753 578 q 281 222 427 578 l 281 109 l 865 109 m 636 806 q 579 827 600 806 q 558 889 558 849 q 579 951 558 929 q 636 972 600 972 q 694 950 673 972 q 714 889 714 927 q 694 828 714 851 q 636 806 673 806 z "},"ﻈ":{"ha":1160,"x_min":-14,"x_max":1174,"o":"m -7 0 q -14 7 -14 0 l -14 103 q -7 109 -14 109 l 163 109 l 163 1055 l 281 1055 l 281 375 q 444 609 346 530 q 665 688 543 688 q 903 602 823 688 q 983 335 983 517 l 983 109 l 1166 109 q 1174 103 1174 109 l 1174 7 q 1166 0 1174 0 l -7 0 m 865 109 l 865 329 q 809 517 865 457 q 640 578 753 578 q 281 222 427 578 l 281 109 l 865 109 m 636 806 q 579 827 600 806 q 558 889 558 849 q 579 951 558 929 q 636 972 600 972 q 694 950 673 972 q 714 889 714 927 q 694 828 714 851 q 636 806 673 806 z "},"ﻆ":{"ha":1174,"x_min":41,"x_max":1187,"o":"m 41 109 l 176 109 l 176 1055 l 294 1055 l 294 375 q 458 609 359 530 q 679 688 556 688 q 917 602 836 688 q 997 335 997 517 l 997 109 l 1181 109 q 1187 103 1187 109 l 1187 7 q 1181 0 1187 0 l 41 0 l 41 109 m 879 109 l 879 329 q 823 517 879 457 q 654 578 768 578 q 458 489 549 578 q 294 222 368 401 l 294 109 l 879 109 m 636 806 q 579 827 600 806 q 558 889 558 849 q 579 951 558 929 q 636 972 600 972 q 694 950 673 972 q 714 889 714 927 q 694 828 714 851 q 636 806 673 806 z "},"غ":{"ha":743,"x_min":90,"x_max":681,"o":"m 379 -446 q 168 -375 245 -446 q 90 -178 90 -305 q 269 96 90 -24 q 146 372 146 203 q 190 540 146 469 q 312 649 234 611 q 488 688 391 688 q 598 676 547 688 q 681 647 648 664 l 643 543 q 481 579 557 579 q 327 526 381 579 q 272 374 272 473 q 295 242 272 302 q 357 147 317 182 q 596 241 473 205 l 629 139 q 409 59 507 109 q 263 -48 311 9 q 216 -167 216 -105 q 269 -298 216 -256 q 429 -339 321 -339 q 633 -317 499 -339 l 648 -412 q 492 -439 550 -433 q 379 -446 435 -446 m 424 806 q 367 827 388 806 q 346 889 346 849 q 367 951 346 929 q 424 972 387 972 q 481 950 461 972 q 502 889 502 927 q 481 828 502 851 q 424 806 461 806 z "},"ﻏ":{"ha":715,"x_min":-14,"x_max":653,"o":"m -7 0 q -14 7 -14 0 l -14 103 q -7 109 -14 109 l 207 109 q 136 211 163 146 q 109 355 109 276 q 198 600 109 512 q 439 688 288 688 q 549 676 498 688 q 632 647 600 664 l 595 543 q 432 579 509 579 q 235 350 235 579 q 282 175 235 242 q 406 109 329 109 l 653 109 l 653 0 l -7 0 m 401 806 q 345 827 366 806 q 323 889 323 849 q 344 951 323 929 q 401 972 365 972 q 459 950 439 972 q 479 889 479 927 q 459 828 479 851 q 401 806 439 806 z "},"ﻐ":{"ha":825,"x_min":-14,"x_max":839,"o":"m 669 0 q 544 17 611 0 q 412 69 477 35 q 154 0 290 0 l -7 0 q -14 7 -14 0 l -14 103 q -7 109 -14 109 l 153 109 q 318 136 252 109 q 209 248 264 175 q 114 405 153 321 q 62 566 75 490 q 234 677 138 637 q 428 718 329 718 q 604 690 515 718 q 760 616 693 663 q 693 345 760 473 q 510 138 627 218 q 664 109 587 109 l 832 109 q 839 103 839 109 l 839 7 q 832 0 839 0 l 669 0 m 414 199 q 573 358 521 271 q 632 558 625 445 q 432 610 535 610 q 196 529 314 610 q 275 347 217 434 q 414 199 332 260 m 396 861 q 339 883 360 861 q 318 945 318 905 q 339 1006 318 985 q 396 1028 359 1028 q 454 1005 433 1028 q 474 945 474 983 q 454 884 474 907 q 396 861 433 861 z "},"ﻎ":{"ha":852,"x_min":90,"x_max":867,"o":"m 131 -178 q 181 -14 131 -91 q 342 139 231 63 q 174 350 243 233 q 90 566 105 466 q 261 677 166 637 q 456 718 357 718 q 632 690 543 718 q 787 616 721 663 q 720 359 785 483 q 534 140 656 235 q 692 109 610 109 l 860 109 q 867 103 867 109 l 867 7 q 860 0 867 0 l 697 0 q 570 21 644 0 q 436 74 495 42 q 297 -46 337 11 q 257 -167 257 -104 q 309 -297 257 -256 q 469 -339 360 -339 q 574 -332 524 -339 q 673 -317 625 -325 l 689 -412 q 534 -439 589 -433 q 419 -446 480 -446 q 208 -375 285 -446 q 131 -178 131 -304 m 224 529 q 298 359 241 449 q 437 203 356 270 q 598 362 544 276 q 660 558 652 448 q 460 610 563 610 q 224 529 342 610 m 424 861 q 367 883 388 861 q 346 945 346 905 q 367 1006 346 985 q 424 1028 387 1028 q 481 1005 461 1028 q 502 945 502 983 q 481 884 502 907 q 424 861 461 861 z "},"ﮐ":{"ha":800,"x_min":-14,"x_max":696,"o":"m -7 0 q -14 7 -14 0 l -14 103 q -7 109 -14 109 l 578 109 l 578 364 q 515 517 578 468 q 322 566 453 566 l 86 566 l 86 679 q 210 863 131 772 q 386 1024 288 954 q 575 1131 483 1095 l 619 1025 q 370 872 492 975 q 201 673 248 770 l 322 673 q 600 599 504 673 q 696 385 696 524 l 696 0 l -7 0 z "},"ﮑ":{"ha":869,"x_min":-14,"x_max":884,"o":"m -7 0 q -14 7 -14 0 l -14 103 q -7 109 -14 109 l 578 109 l 578 364 q 515 517 578 468 q 322 566 453 566 l 86 566 l 86 679 q 210 863 131 772 q 386 1024 288 954 q 575 1131 483 1095 l 619 1025 q 370 872 492 975 q 201 673 248 770 l 322 673 q 600 599 504 673 q 696 385 696 524 l 696 109 l 876 109 q 884 103 884 109 l 884 7 q 876 0 884 0 l -7 0 z "},"ف":{"ha":1406,"x_min":90,"x_max":1287,"o":"m 350 0 q 160 72 230 0 q 90 269 90 144 q 100 376 90 315 q 125 478 110 436 l 236 478 q 215 279 215 378 q 251 156 215 203 q 346 109 287 109 l 798 109 q 745 201 765 144 q 725 318 725 259 q 827 577 725 481 q 1105 673 929 673 l 1287 673 l 1287 0 l 350 0 m 1169 109 l 1169 566 l 1109 566 q 917 501 986 566 q 848 319 848 437 q 1039 109 848 109 l 1169 109 m 1025 806 q 968 827 989 806 q 947 889 947 849 q 967 951 947 929 q 1025 972 988 972 q 1082 950 1062 972 q 1103 889 1103 927 q 1082 828 1103 851 q 1025 806 1062 806 z "},"ﻓ":{"ha":812,"x_min":-14,"x_max":694,"o":"m 576 109 l 576 566 l 517 566 q 325 501 393 566 q 256 319 256 437 q 446 109 256 109 l 576 109 m -7 0 q -14 7 -14 0 l -14 103 q -7 109 -14 109 l 204 109 q 151 205 169 149 q 132 318 132 262 q 234 577 132 481 q 513 673 336 673 l 694 673 l 694 0 l -7 0 m 431 806 q 374 827 395 806 q 353 889 353 849 q 373 951 353 929 q 431 972 394 972 q 488 950 468 972 q 509 889 509 927 q 488 828 509 851 q 431 806 468 806 z "},"ﻔ":{"ha":835,"x_min":-14,"x_max":848,"o":"m 576 109 l 576 566 l 517 566 q 324 500 393 566 q 256 318 256 435 q 446 109 256 109 l 576 109 m -7 0 q -14 7 -14 0 l -14 103 q -7 109 -14 109 l 204 109 q 151 205 169 149 q 132 318 132 262 q 235 578 132 484 q 513 673 338 673 l 694 673 l 694 109 l 842 109 q 848 105 846 109 l 848 102 l 848 5 q 842 0 848 0 l -7 0 m 443 806 q 386 827 407 806 q 365 889 365 849 q 386 951 365 929 q 443 972 406 972 q 500 950 480 972 q 521 889 521 927 q 500 828 521 851 q 443 806 480 806 z "},"ﻒ":{"ha":1434,"x_min":90,"x_max":1447,"o":"m 1169 109 l 1169 566 l 1109 566 q 917 501 986 566 q 848 319 848 437 q 1039 109 848 109 l 1169 109 m 350 0 q 160 72 230 0 q 90 269 90 144 q 100 376 90 315 q 125 478 110 436 l 236 478 q 215 279 215 378 q 251 156 215 203 q 346 109 287 109 l 798 109 q 745 201 765 144 q 725 318 725 259 q 827 577 725 481 q 1105 673 929 673 l 1287 673 l 1287 109 l 1440 109 q 1447 103 1447 109 l 1447 7 q 1440 0 1447 0 l 350 0 m 1025 806 q 968 827 989 806 q 947 889 947 849 q 967 951 947 929 q 1025 972 988 972 q 1082 950 1062 972 q 1103 889 1103 927 q 1082 828 1103 851 q 1025 806 1062 806 z "},"ﭪ":{"ha":1406,"x_min":90,"x_max":1287,"o":"m 350 0 q 160 72 230 0 q 90 269 90 144 q 100 376 90 315 q 125 478 110 436 l 236 478 q 215 279 215 378 q 251 156 215 203 q 346 109 287 109 l 798 109 q 745 201 765 144 q 725 318 725 259 q 827 577 725 481 q 1105 673 929 673 l 1287 673 l 1287 0 l 350 0 m 1169 109 l 1169 566 l 1109 566 q 917 501 986 566 q 848 319 848 437 q 1039 109 848 109 l 1169 109 m 1021 993 q 969 1011 989 993 q 949 1069 949 1029 q 969 1128 949 1109 q 1021 1146 989 1146 q 1071 1127 1050 1146 q 1093 1069 1093 1109 q 1071 1011 1093 1029 q 1021 993 1050 993 m 901 806 q 846 825 869 806 q 823 889 823 845 q 846 953 823 933 q 901 972 869 972 q 959 950 939 972 q 979 889 979 927 q 959 828 979 851 q 901 806 939 806 m 1141 806 q 1084 827 1105 806 q 1063 889 1063 849 q 1084 951 1063 929 q 1141 972 1105 972 q 1199 950 1179 972 q 1219 889 1219 927 q 1199 828 1219 851 q 1141 806 1179 806 z "},"ﭬ":{"ha":812,"x_min":-14,"x_max":694,"o":"m 576 109 l 576 566 l 517 566 q 325 501 393 566 q 256 319 256 437 q 446 109 256 109 l 576 109 m -7 0 q -14 7 -14 0 l -14 103 q -7 109 -14 109 l 204 109 q 151 205 169 149 q 132 318 132 262 q 234 577 132 481 q 513 673 336 673 l 694 673 l 694 0 l -7 0 m 460 993 q 408 1011 429 993 q 388 1069 388 1029 q 408 1128 388 1109 q 460 1146 429 1146 q 510 1127 489 1146 q 532 1069 532 1109 q 510 1011 532 1029 q 460 993 489 993 m 340 806 q 285 825 308 806 q 262 889 262 845 q 285 953 262 933 q 340 972 308 972 q 398 950 378 972 q 418 889 418 927 q 398 828 418 851 q 340 806 378 806 m 581 806 q 524 827 545 806 q 503 889 503 849 q 523 951 503 929 q 581 972 544 972 q 638 950 618 972 q 659 889 659 927 q 638 828 659 851 q 581 806 618 806 z "},"ﭭ":{"ha":835,"x_min":-14,"x_max":848,"o":"m 576 109 l 576 566 l 517 566 q 324 500 393 566 q 256 318 256 435 q 446 109 256 109 l 576 109 m -7 0 q -14 7 -14 0 l -14 103 q -7 109 -14 109 l 204 109 q 151 205 169 149 q 132 318 132 262 q 235 578 132 484 q 513 673 338 673 l 694 673 l 694 109 l 842 109 q 848 105 846 109 l 848 102 l 848 5 q 842 0 848 0 l -7 0 m 460 993 q 408 1011 429 993 q 388 1069 388 1029 q 408 1128 388 1109 q 460 1146 429 1146 q 510 1127 489 1146 q 532 1069 532 1109 q 510 1011 532 1029 q 460 993 489 993 m 340 806 q 285 825 308 806 q 262 889 262 845 q 285 953 262 933 q 340 972 308 972 q 398 950 378 972 q 418 889 418 927 q 398 828 418 851 q 340 806 378 806 m 581 806 q 524 827 545 806 q 503 889 503 849 q 523 951 503 929 q 581 972 544 972 q 638 950 618 972 q 659 889 659 927 q 638 828 659 851 q 581 806 618 806 z "},"ﭫ":{"ha":1434,"x_min":90,"x_max":1447,"o":"m 1169 109 l 1169 566 l 1109 566 q 917 501 986 566 q 848 319 848 437 q 1039 109 848 109 l 1169 109 m 350 0 q 160 72 230 0 q 90 269 90 144 q 100 376 90 315 q 125 478 110 436 l 236 478 q 215 279 215 378 q 251 156 215 203 q 346 109 287 109 l 798 109 q 745 201 765 144 q 725 318 725 259 q 827 577 725 481 q 1105 673 929 673 l 1287 673 l 1287 109 l 1440 109 q 1447 103 1447 109 l 1447 7 q 1440 0 1447 0 l 350 0 m 1021 993 q 969 1011 989 993 q 949 1069 949 1029 q 969 1128 949 1109 q 1021 1146 989 1146 q 1071 1127 1050 1146 q 1093 1069 1093 1109 q 1071 1011 1093 1029 q 1021 993 1050 993 m 901 806 q 846 825 869 806 q 823 889 823 845 q 846 953 823 933 q 901 972 869 972 q 959 950 939 972 q 979 889 979 927 q 959 828 979 851 q 901 806 939 806 m 1141 806 q 1084 827 1105 806 q 1063 889 1063 849 q 1084 951 1063 929 q 1141 972 1105 972 q 1199 950 1179 972 q 1219 889 1219 927 q 1199 828 1219 851 q 1141 806 1179 806 z "},"ﻗ":{"ha":812,"x_min":-14,"x_max":694,"o":"m 576 109 l 576 566 l 517 566 q 325 501 393 566 q 256 319 256 437 q 446 109 256 109 l 576 109 m -7 0 q -14 7 -14 0 l -14 103 q -7 109 -14 109 l 204 109 q 151 205 169 149 q 132 318 132 262 q 234 577 132 481 q 513 673 336 673 l 694 673 l 694 0 l -7 0 m 346 806 q 291 825 313 806 q 268 889 268 845 q 291 953 268 933 q 346 972 313 972 q 402 951 381 972 q 423 889 423 930 q 402 827 423 849 q 346 806 382 806 m 586 806 q 529 827 550 806 q 508 889 508 849 q 529 951 508 929 q 586 972 549 972 q 644 950 623 972 q 664 889 664 927 q 644 828 664 851 q 586 806 623 806 z "},"ﻘ":{"ha":835,"x_min":-14,"x_max":848,"o":"m 576 109 l 576 566 l 517 566 q 324 500 393 566 q 256 318 256 435 q 446 109 256 109 l 576 109 m -7 0 q -14 7 -14 0 l -14 103 q -7 109 -14 109 l 204 109 q 151 205 169 149 q 132 318 132 262 q 235 578 132 484 q 513 673 338 673 l 694 673 l 694 109 l 842 109 q 848 105 846 109 l 848 102 l 848 5 q 842 0 848 0 l -7 0 m 346 806 q 291 825 313 806 q 268 889 268 845 q 291 953 268 933 q 346 972 313 972 q 402 951 381 972 q 423 889 423 930 q 402 827 423 849 q 346 806 382 806 m 586 806 q 529 827 550 806 q 508 889 508 849 q 529 951 508 929 q 586 972 549 972 q 644 950 623 972 q 664 889 664 927 q 644 828 664 851 q 586 806 623 806 z "},"ق":{"ha":1217,"x_min":90,"x_max":1099,"o":"m 419 -334 q 178 -243 267 -334 q 90 1 90 -153 q 147 329 90 178 l 262 329 q 215 9 215 196 q 275 -164 215 -103 q 444 -225 335 -225 l 725 -225 q 921 -173 861 -225 q 981 -9 981 -120 l 981 0 l 852 0 q 617 81 699 0 q 536 317 536 163 q 640 577 536 481 q 917 673 744 673 l 1099 673 l 1099 -8 q 747 -334 1099 -334 l 419 -334 m 981 109 l 981 566 l 921 566 q 729 500 798 566 q 660 318 660 435 q 707 159 660 210 q 850 109 754 109 l 981 109 m 746 806 q 691 825 713 806 q 668 889 668 845 q 691 953 668 933 q 746 972 713 972 q 802 951 781 972 q 823 889 823 930 q 803 827 823 849 q 746 806 782 806 m 986 806 q 929 827 950 806 q 908 889 908 849 q 929 951 908 929 q 986 972 949 972 q 1044 950 1023 972 q 1064 889 1064 927 q 1044 828 1064 851 q 986 806 1023 806 z "},"ﻖ":{"ha":1244,"x_min":90,"x_max":1258,"o":"m 981 109 l 981 566 l 921 566 q 729 500 798 566 q 660 318 660 435 q 707 159 660 210 q 850 109 754 109 l 981 109 m 1251 109 q 1258 103 1258 109 l 1258 7 q 1251 0 1258 0 l 1099 0 l 1099 -8 q 747 -334 1099 -334 l 419 -334 q 178 -243 267 -334 q 90 1 90 -153 q 147 329 90 178 l 262 329 q 215 9 215 196 q 275 -164 215 -103 q 444 -225 335 -225 l 725 -225 q 921 -173 861 -225 q 981 -9 981 -120 l 981 0 l 852 0 q 617 81 699 0 q 536 317 536 163 q 640 577 536 481 q 917 673 744 673 l 1099 673 l 1099 109 l 1251 109 m 771 806 q 716 825 739 806 q 693 889 693 845 q 716 953 693 933 q 771 972 739 972 q 827 951 806 972 q 848 889 848 930 q 828 827 848 849 q 771 806 807 806 m 1011 806 q 954 827 975 806 q 933 889 933 849 q 954 951 933 929 q 1011 972 975 972 q 1069 950 1048 972 q 1089 889 1089 927 q 1069 828 1089 851 q 1011 806 1048 806 z "},"ﻧ":{"ha":418,"x_min":-14,"x_max":315,"o":"m -7 0 q -14 7 -14 0 l -14 103 q -7 109 -14 109 l 176 109 l 176 673 l 300 673 l 300 0 l -7 0 m 237 806 q 180 827 201 806 q 159 889 159 849 q 180 951 159 929 q 237 972 201 972 q 295 950 275 972 q 315 889 315 927 q 295 828 315 851 q 237 806 275 806 z "},"ﻨ":{"ha":473,"x_min":-14,"x_max":488,"o":"m -7 0 q -14 7 -14 0 l -14 103 q -7 109 -14 109 l 176 109 l 176 673 l 300 673 l 300 109 l 481 109 q 488 103 488 109 l 488 7 q 481 0 488 0 l -7 0 m 233 806 q 176 827 197 806 q 155 889 155 849 q 176 951 155 929 q 233 972 197 972 q 291 950 271 972 q 311 889 311 927 q 291 828 311 851 q 233 806 271 806 z "},"ن":{"ha":933,"x_min":90,"x_max":815,"o":"m 370 -334 q 165 -243 239 -334 q 90 1 90 -153 q 147 309 90 168 l 262 309 q 215 9 215 189 q 262 -164 215 -103 q 396 -225 309 -225 l 464 -225 q 641 -170 585 -225 q 697 -4 697 -115 l 697 673 l 815 673 l 815 5 q 732 -248 815 -163 q 469 -334 648 -334 l 370 -334 m 456 674 q 399 696 420 674 q 378 758 378 718 q 398 819 378 798 q 456 841 419 841 q 513 818 493 841 q 534 758 534 795 q 513 697 534 720 q 456 674 493 674 z "},"ﻦ":{"ha":961,"x_min":90,"x_max":975,"o":"m 815 0 q 730 -249 813 -165 q 469 -334 646 -334 l 370 -334 q 165 -243 239 -334 q 90 1 90 -153 q 147 309 90 168 l 262 309 q 215 9 215 189 q 262 -164 215 -103 q 396 -225 309 -225 l 464 -225 q 641 -170 585 -225 q 697 -3 697 -115 l 697 673 l 815 673 l 815 109 l 968 109 q 975 103 975 109 l 975 7 q 968 0 975 0 l 815 0 m 456 674 q 399 696 420 674 q 378 758 378 718 q 398 819 378 798 q 456 841 419 841 q 513 818 493 841 q 534 758 534 795 q 513 697 534 720 q 456 674 493 674 z "},"ە":{"ha":829,"x_min":90,"x_max":739,"o":"m 412 -14 q 175 70 259 -14 q 90 309 90 154 q 133 498 90 410 q 250 637 175 587 q 416 688 325 688 q 577 636 503 688 q 696 494 652 584 q 739 309 739 405 q 657 69 739 151 q 412 -14 574 -14 m 415 93 q 614 307 614 93 q 561 507 614 433 q 414 581 508 581 q 272 505 329 581 q 215 307 215 429 q 415 93 215 93 z "},"ۀ":{"ha":829,"x_min":90,"x_max":739,"o":"m 412 -14 q 175 70 259 -14 q 90 309 90 154 q 133 498 90 410 q 250 637 175 587 q 416 688 325 688 q 577 636 503 688 q 696 494 652 584 q 739 309 739 405 q 657 69 739 151 q 412 -14 574 -14 m 415 93 q 614 307 614 93 q 561 507 614 433 q 414 581 508 581 q 272 505 329 581 q 215 307 215 429 q 415 93 215 93 m 239 859 l 304 869 q 256 957 256 901 q 295 1049 256 1017 q 397 1082 334 1082 q 489 1061 452 1082 l 468 998 q 399 1015 440 1015 q 347 998 368 1015 q 326 944 326 981 q 338 904 326 920 q 368 879 351 887 q 435 889 382 882 q 507 897 488 897 l 507 829 q 458 825 496 829 q 317 808 420 821 l 239 795 l 239 859 z "},"ﮥ":{"ha":832,"x_min":90,"x_max":846,"o":"m 443 0 q 183 84 276 0 q 90 321 90 169 q 193 579 90 485 q 471 673 296 673 l 562 673 l 562 761 l 681 761 l 681 109 l 839 109 q 846 103 846 109 l 846 7 q 839 0 846 0 l 443 0 m 562 109 l 562 566 l 475 566 q 282 502 350 566 q 214 322 214 437 q 273 163 214 218 q 440 109 332 109 l 562 109 m 239 859 l 304 869 q 256 957 256 901 q 295 1049 256 1017 q 397 1082 334 1082 q 489 1061 452 1082 l 468 998 q 399 1015 440 1015 q 347 998 368 1015 q 326 944 326 981 q 338 904 326 920 q 368 879 351 887 q 435 889 382 882 q 507 897 488 897 l 507 829 q 458 825 496 829 q 317 808 420 821 l 239 795 l 239 859 z "},"ؤ":{"ha":779,"x_min":90,"x_max":661,"o":"m 340 -334 q 90 -262 199 -334 l 146 -170 q 238 -209 191 -193 q 343 -225 286 -225 q 491 -175 437 -225 q 545 -40 545 -124 l 545 0 l 408 0 q 179 81 260 0 q 98 317 98 163 q 202 577 98 480 q 479 673 306 673 l 661 673 l 661 -33 q 577 -254 661 -175 q 340 -334 494 -334 m 543 109 l 543 566 l 484 566 q 291 500 360 566 q 222 318 222 435 q 270 159 222 210 q 412 109 317 109 l 543 109 m 239 859 l 304 869 q 256 957 256 901 q 295 1049 256 1017 q 397 1082 334 1082 q 489 1061 452 1082 l 468 998 q 399 1015 440 1015 q 347 998 368 1015 q 326 944 326 981 q 338 904 326 920 q 368 879 351 887 q 435 889 382 882 q 507 897 488 897 l 507 829 q 458 825 496 829 q 317 808 420 821 l 239 795 l 239 859 z "},"ﺆ":{"ha":768,"x_min":90,"x_max":782,"o":"m 543 109 l 543 566 l 484 566 q 291 500 360 566 q 222 318 222 435 q 270 159 222 210 q 412 109 317 109 l 543 109 m 661 -33 q 577 -254 661 -175 q 340 -334 494 -334 q 90 -262 199 -334 l 146 -170 q 238 -209 191 -193 q 343 -225 286 -225 q 491 -175 437 -225 q 545 -40 545 -124 l 545 0 l 408 0 q 179 81 260 0 q 98 317 98 163 q 202 577 98 480 q 479 673 306 673 l 661 673 l 661 109 l 775 109 q 782 103 782 109 l 782 7 q 775 0 782 0 l 661 0 l 661 -33 m 239 859 l 304 869 q 256 957 256 901 q 295 1049 256 1017 q 397 1082 334 1082 q 489 1061 452 1082 l 468 998 q 399 1015 440 1015 q 347 998 368 1015 q 326 944 326 981 q 338 904 326 920 q 368 879 351 887 q 435 889 382 882 q 507 897 488 897 l 507 829 q 458 825 496 829 q 317 808 420 821 l 239 795 l 239 859 z "},"ﯨ":{"ha":418,"x_min":-14,"x_max":300,"o":"m -7 0 q -14 7 -14 0 l -14 103 q -7 109 -14 109 l 176 109 l 176 673 l 300 673 l 300 0 l -7 0 z "},"ﯩ":{"ha":473,"x_min":-14,"x_max":488,"o":"m -7 0 q -14 7 -14 0 l -14 103 q -7 109 -14 109 l 176 109 l 176 673 l 300 673 l 300 109 l 481 109 q 488 103 488 109 l 488 7 q 481 0 488 0 l -7 0 z "},"ﻳ":{"ha":519,"x_min":-14,"x_max":401,"o":"m -7 0 q -14 7 -14 0 l -14 103 q -7 109 -14 109 l 260 109 l 260 673 l 383 673 l 383 0 l -7 0 m 83 -278 q 28 -258 51 -278 q 5 -195 5 -239 q 28 -131 5 -151 q 83 -111 51 -111 q 140 -133 119 -111 q 161 -195 161 -154 q 140 -256 161 -235 q 83 -278 119 -278 m 323 -278 q 267 -256 288 -278 q 245 -195 245 -235 q 266 -133 245 -155 q 323 -111 287 -111 q 381 -134 361 -111 q 401 -195 401 -157 q 381 -255 401 -233 q 323 -278 361 -278 z "},"ﻴ":{"ha":543,"x_min":-14,"x_max":557,"o":"m -7 0 q -14 7 -14 0 l -14 103 q -7 109 -14 109 l 218 109 l 218 673 l 342 673 l 342 109 l 550 109 q 557 103 557 109 l 557 7 q 550 0 557 0 l -7 0 m 164 -278 q 109 -258 132 -278 q 86 -195 86 -239 q 109 -131 86 -151 q 164 -111 132 -111 q 220 -133 199 -111 q 241 -195 241 -154 q 221 -256 241 -235 q 164 -278 200 -278 m 404 -278 q 347 -256 368 -278 q 326 -195 326 -235 q 347 -133 326 -155 q 404 -111 368 -111 q 462 -134 441 -111 q 482 -195 482 -157 q 462 -255 482 -233 q 404 -278 441 -278 z "},"ي":{"ha":1165,"x_min":90,"x_max":1117,"o":"m 370 -334 q 165 -243 239 -334 q 90 1 90 -153 q 102 132 90 74 q 139 252 114 191 l 254 252 q 230 177 239 213 q 218 109 222 142 q 215 9 215 75 q 262 -164 215 -103 q 396 -225 309 -225 l 668 -225 q 837 -186 774 -225 q 899 -83 899 -148 q 881 -33 899 -58 q 833 15 863 -9 q 732 82 804 39 q 615 160 648 132 q 565 220 582 189 q 547 288 547 251 q 609 462 547 370 q 761 614 670 554 q 937 673 852 673 q 1030 654 970 673 q 1117 618 1090 635 l 1067 525 q 1009 542 1046 535 q 942 549 971 549 q 833 511 895 549 q 728 417 771 473 q 685 311 685 361 q 789 201 685 264 q 934 98 891 139 q 1001 11 977 58 q 1025 -86 1025 -37 q 932 -268 1025 -202 q 668 -334 839 -334 l 370 -334 m 412 -611 q 357 -591 380 -611 q 334 -528 334 -572 q 357 -464 334 -484 q 412 -444 380 -444 q 469 -466 448 -444 q 490 -528 490 -487 q 469 -589 490 -568 q 412 -611 448 -611 m 652 -611 q 595 -589 616 -611 q 574 -528 574 -568 q 595 -466 574 -488 q 652 -444 616 -444 q 710 -467 690 -444 q 730 -528 730 -490 q 710 -588 730 -566 q 652 -611 690 -611 z "},"ﻲ":{"ha":1339,"x_min":90,"x_max":1353,"o":"m 370 -334 q 165 -243 239 -334 q 90 1 90 -153 q 102 132 90 74 q 139 252 114 191 l 254 252 q 230 177 239 213 q 218 109 222 142 q 215 9 215 75 q 262 -164 215 -103 q 396 -225 309 -225 l 654 -225 q 819 -188 753 -225 q 884 -100 884 -151 q 858 -51 884 -71 q 780 -16 832 -31 q 636 37 675 14 q 576 92 597 59 q 555 171 555 125 q 603 326 555 251 q 727 447 651 400 q 879 493 803 493 q 962 476 926 493 q 1030 427 998 459 q 1109 320 1062 395 q 1198 191 1169 224 q 1247 141 1227 157 q 1290 117 1267 125 q 1339 109 1312 109 l 1346 109 q 1353 103 1353 109 l 1353 7 q 1346 0 1353 0 l 1339 0 q 1226 26 1280 0 q 1116 113 1173 52 q 1044 208 1099 130 q 938 336 977 303 q 864 368 899 368 q 783 339 826 368 q 710 266 739 310 q 681 187 681 222 q 706 146 681 164 q 785 111 730 127 q 927 60 885 82 q 990 9 968 39 q 1011 -58 1011 -20 q 654 -334 1011 -334 l 370 -334 m 412 -611 q 357 -591 380 -611 q 334 -528 334 -572 q 357 -464 334 -484 q 412 -444 380 -444 q 469 -466 448 -444 q 490 -528 490 -487 q 469 -589 490 -568 q 412 -611 448 -611 m 652 -611 q 595 -589 616 -611 q 574 -528 574 -568 q 595 -466 574 -488 q 652 -444 616 -444 q 710 -467 690 -444 q 730 -528 730 -490 q 710 -588 730 -566 q 652 -611 690 -611 z "},"ی":{"ha":1165,"x_min":90,"x_max":1117,"o":"m 370 -334 q 165 -243 239 -334 q 90 1 90 -153 q 102 132 90 74 q 139 252 114 191 l 254 252 q 230 177 239 213 q 218 109 222 142 q 215 9 215 75 q 262 -164 215 -103 q 396 -225 309 -225 l 668 -225 q 837 -186 774 -225 q 899 -83 899 -148 q 881 -33 899 -58 q 833 15 863 -9 q 732 82 804 39 q 615 160 648 132 q 565 220 582 189 q 547 288 547 251 q 609 462 547 370 q 761 614 670 554 q 937 673 852 673 q 1030 654 970 673 q 1117 618 1090 635 l 1067 525 q 1009 542 1046 535 q 942 549 971 549 q 833 511 895 549 q 728 417 771 473 q 685 311 685 361 q 789 201 685 264 q 934 98 891 139 q 1001 11 977 58 q 1025 -86 1025 -37 q 932 -268 1025 -202 q 668 -334 839 -334 l 370 -334 z "},"ﯾ":{"ha":519,"x_min":-14,"x_max":401,"o":"m -7 0 q -14 7 -14 0 l -14 103 q -7 109 -14 109 l 260 109 l 260 673 l 383 673 l 383 0 l -7 0 m 83 -278 q 28 -258 51 -278 q 5 -195 5 -239 q 28 -131 5 -151 q 83 -111 51 -111 q 140 -133 119 -111 q 161 -195 161 -154 q 140 -256 161 -235 q 83 -278 119 -278 m 323 -278 q 267 -256 288 -278 q 245 -195 245 -235 q 266 -133 245 -155 q 323 -111 287 -111 q 381 -134 361 -111 q 401 -195 401 -157 q 381 -255 401 -233 q 323 -278 361 -278 z "},"ﯿ":{"ha":543,"x_min":-14,"x_max":557,"o":"m -7 0 q -14 7 -14 0 l -14 103 q -7 109 -14 109 l 218 109 l 218 673 l 342 673 l 342 109 l 550 109 q 557 103 557 109 l 557 7 q 550 0 557 0 l -7 0 m 164 -278 q 109 -258 132 -278 q 86 -195 86 -239 q 109 -131 86 -151 q 164 -111 132 -111 q 220 -133 199 -111 q 241 -195 241 -154 q 221 -256 241 -235 q 164 -278 200 -278 m 404 -278 q 347 -256 368 -278 q 326 -195 326 -235 q 347 -133 326 -155 q 404 -111 368 -111 q 462 -134 441 -111 q 482 -195 482 -157 q 462 -255 482 -233 q 404 -278 441 -278 z "},"ﯽ":{"ha":1339,"x_min":90,"x_max":1353,"o":"m 370 -334 q 165 -243 239 -334 q 90 1 90 -153 q 102 132 90 74 q 139 252 114 191 l 254 252 q 230 177 239 213 q 218 109 222 142 q 215 9 215 75 q 262 -164 215 -103 q 396 -225 309 -225 l 654 -225 q 819 -188 753 -225 q 884 -100 884 -151 q 858 -51 884 -71 q 780 -16 832 -31 q 636 37 675 14 q 576 92 597 59 q 555 171 555 125 q 603 326 555 251 q 727 447 651 400 q 879 493 803 493 q 962 476 926 493 q 1030 427 998 459 q 1109 320 1062 395 q 1198 191 1169 224 q 1247 141 1227 157 q 1290 117 1267 125 q 1339 109 1312 109 l 1346 109 q 1353 103 1353 109 l 1353 7 q 1346 0 1353 0 l 1339 0 q 1226 26 1280 0 q 1116 113 1173 52 q 1044 208 1099 130 q 938 336 977 303 q 864 368 899 368 q 783 339 826 368 q 710 266 739 310 q 681 187 681 222 q 706 146 681 164 q 785 111 730 127 q 927 60 885 82 q 990 9 968 39 q 1011 -58 1011 -20 q 654 -334 1011 -334 l 370 -334 z "},"ۓ":{"ha":802,"x_min":62,"x_max":920,"o":"m 272 -282 q 117 -236 172 -282 q 62 -103 62 -189 q 88 -5 62 -47 q 166 71 113 37 q 342 155 218 106 q 486 226 448 199 q 538 286 524 253 q 553 383 553 319 l 553 437 l 676 437 l 676 383 q 655 253 676 303 q 584 164 633 202 q 414 75 534 125 q 257 4 296 26 q 202 -42 218 -19 q 186 -103 186 -66 q 209 -153 186 -133 q 269 -174 233 -174 l 920 -174 l 920 -282 l 272 -282 m 125 341 l 191 351 q 142 439 142 382 q 181 531 142 498 q 283 564 220 564 q 375 543 338 564 l 354 480 q 285 497 326 497 q 233 480 254 497 q 212 426 212 463 q 224 386 212 402 q 254 361 237 369 q 321 371 268 364 q 393 378 374 378 l 393 311 q 344 307 382 311 q 203 290 306 303 l 125 277 l 125 341 z "},"ﮱ":{"ha":539,"x_min":62,"x_max":920,"o":"m 551 109 q 558 103 558 109 l 558 7 q 551 0 558 0 l 351 0 q 232 -29 277 0 q 186 -103 186 -58 q 208 -155 186 -136 q 269 -174 231 -174 l 920 -174 l 920 -282 l 272 -282 q 117 -236 172 -282 q 62 -103 62 -189 q 104 4 62 -44 q 217 80 145 52 q 370 109 290 109 l 551 109 m 167 256 l 233 266 q 184 354 184 298 q 223 446 184 414 q 326 479 262 479 q 417 458 380 479 l 396 395 q 327 412 368 412 q 275 395 296 412 q 254 341 254 378 q 267 301 254 317 q 296 276 279 284 q 363 287 310 279 q 435 294 416 294 l 435 226 q 386 222 425 226 q 245 205 348 218 l 167 193 l 167 256 z "},"ئ":{"ha":1165,"x_min":90,"x_max":1117,"o":"m 370 -334 q 165 -243 239 -334 q 90 1 90 -153 q 102 132 90 74 q 139 252 114 191 l 254 252 q 230 177 239 213 q 218 109 222 142 q 215 9 215 75 q 262 -164 215 -103 q 396 -225 309 -225 l 668 -225 q 837 -186 774 -225 q 899 -83 899 -148 q 881 -33 899 -58 q 833 15 863 -9 q 732 82 804 39 q 615 160 648 132 q 565 220 582 189 q 547 288 547 251 q 609 462 547 370 q 761 614 670 554 q 937 673 852 673 q 1030 654 970 673 q 1117 618 1090 635 l 1067 525 q 1009 542 1046 535 q 942 549 971 549 q 833 511 895 549 q 728 417 771 473 q 685 311 685 361 q 789 201 685 264 q 934 98 891 139 q 1001 11 977 58 q 1025 -86 1025 -37 q 932 -268 1025 -202 q 668 -334 839 -334 l 370 -334 m 208 481 l 274 490 q 225 578 225 522 q 264 671 225 638 q 367 703 303 703 q 458 682 421 703 l 437 620 q 368 637 410 637 q 317 620 338 637 q 296 566 296 602 q 308 525 296 542 q 338 500 320 509 q 404 511 351 504 q 477 518 457 518 l 477 450 q 428 447 466 450 q 286 429 389 443 l 208 417 l 208 481 z "},"ﺋ":{"ha":519,"x_min":-14,"x_max":432,"o":"m -7 0 q -14 7 -14 0 l -14 103 q -7 109 -14 109 l 260 109 l 260 673 l 383 673 l 383 0 l -7 0 m 163 865 l 229 874 q 180 962 180 906 q 219 1055 180 1022 q 322 1087 258 1087 q 414 1066 376 1087 l 393 1004 q 323 1021 365 1021 q 272 1003 293 1021 q 251 949 251 986 q 263 909 251 926 q 293 884 275 892 q 359 895 307 888 q 432 902 412 902 l 432 834 q 383 830 421 834 q 241 813 345 827 l 163 801 l 163 865 z "},"ﺌ":{"ha":543,"x_min":-14,"x_max":557,"o":"m -7 0 q -14 7 -14 0 l -14 103 q -7 109 -14 109 l 218 109 l 218 673 l 342 673 l 342 109 l 550 109 q 557 103 557 109 l 557 7 q 550 0 557 0 l -7 0 m 136 865 l 201 874 q 153 962 153 906 q 192 1055 153 1022 q 294 1087 231 1087 q 386 1066 349 1087 l 365 1004 q 296 1021 337 1021 q 244 1003 265 1021 q 223 949 223 986 q 235 909 223 926 q 265 884 248 892 q 332 895 279 888 q 404 902 385 902 l 404 834 q 355 830 393 834 q 214 813 317 827 l 136 801 l 136 865 z "},"ﺊ":{"ha":1339,"x_min":90,"x_max":1353,"o":"m 370 -334 q 165 -243 239 -334 q 90 1 90 -153 q 102 132 90 74 q 139 252 114 191 l 254 252 q 230 177 239 213 q 218 109 222 142 q 215 9 215 75 q 262 -164 215 -103 q 396 -225 309 -225 l 654 -225 q 819 -188 753 -225 q 884 -100 884 -151 q 858 -51 884 -71 q 780 -16 832 -31 q 636 37 675 14 q 576 92 597 59 q 555 171 555 125 q 603 326 555 251 q 727 447 651 400 q 879 493 803 493 q 962 476 926 493 q 1030 427 998 459 q 1109 320 1062 395 q 1198 191 1169 224 q 1247 141 1227 157 q 1290 117 1267 125 q 1339 109 1312 109 l 1346 109 q 1353 103 1353 109 l 1353 7 q 1346 0 1353 0 l 1339 0 q 1226 26 1280 0 q 1116 113 1173 52 q 1044 208 1099 130 q 938 336 977 303 q 864 368 899 368 q 783 339 826 368 q 710 266 739 310 q 681 187 681 222 q 706 146 681 164 q 785 111 730 127 q 927 60 885 82 q 990 9 968 39 q 1011 -58 1011 -20 q 654 -334 1011 -334 l 370 -334 m 279 481 l 345 490 q 296 578 296 522 q 335 671 296 638 q 437 703 374 703 q 529 682 492 703 l 508 620 q 439 637 480 637 q 387 620 408 637 q 366 566 366 602 q 378 525 366 542 q 408 500 391 509 q 475 511 422 504 q 547 518 528 518 l 547 450 q 498 447 536 450 q 357 429 460 443 l 279 417 l 279 481 z "},"ﻷ":{"ha":936,"x_min":62,"x_max":811,"o":"m 62 109 l 374 109 l 195 868 l 323 868 l 503 109 l 541 109 q 688 269 688 109 l 688 1055 l 811 1055 l 811 253 q 741 69 811 138 q 554 0 671 0 l 62 0 l 62 109 m 96 1049 l 161 1059 q 113 1147 113 1090 q 152 1239 113 1206 q 254 1272 191 1272 q 346 1251 309 1272 l 325 1188 q 256 1205 297 1205 q 204 1188 225 1205 q 183 1134 183 1171 q 195 1094 183 1110 q 225 1069 208 1077 q 292 1079 239 1072 q 364 1086 345 1086 l 364 1019 q 315 1015 353 1019 q 174 998 277 1011 l 96 985 l 96 1049 z "},"ﻸ":{"ha":985,"x_min":62,"x_max":999,"o":"m 62 109 l 374 109 l 195 868 l 323 868 l 503 109 l 688 109 l 688 1055 l 811 1055 l 811 109 l 991 109 q 999 103 999 109 l 999 7 q 991 0 999 0 l 62 0 l 62 109 m 96 1049 l 161 1059 q 113 1147 113 1090 q 152 1239 113 1206 q 254 1272 191 1272 q 346 1251 309 1272 l 325 1188 q 256 1205 297 1205 q 204 1188 225 1205 q 183 1134 183 1171 q 195 1094 183 1110 q 225 1069 208 1077 q 292 1079 239 1072 q 364 1086 345 1086 l 364 1019 q 315 1015 353 1019 q 174 998 277 1011 l 96 985 l 96 1049 z "},"ﻹ":{"ha":936,"x_min":62,"x_max":811,"o":"m 62 109 l 374 109 l 195 868 l 323 868 l 503 109 l 541 109 q 688 269 688 109 l 688 1055 l 811 1055 l 811 253 q 741 69 811 138 q 554 0 671 0 l 62 0 l 62 109 m 321 -357 l 387 -348 q 352 -313 367 -336 q 338 -260 338 -291 q 375 -169 338 -202 q 479 -136 413 -136 q 571 -157 534 -136 l 550 -219 q 481 -202 522 -202 q 429 -219 450 -202 q 408 -273 408 -237 q 450 -338 408 -317 q 519 -328 464 -335 q 589 -320 575 -320 l 589 -389 q 457 -401 558 -389 q 321 -422 357 -414 l 321 -357 z "},"ﻺ":{"ha":985,"x_min":62,"x_max":999,"o":"m 62 109 l 374 109 l 195 868 l 323 868 l 503 109 l 688 109 l 688 1055 l 811 1055 l 811 109 l 991 109 q 999 103 999 109 l 999 7 q 991 0 999 0 l 62 0 l 62 109 m 321 -357 l 387 -348 q 352 -313 367 -336 q 338 -260 338 -291 q 375 -169 338 -202 q 479 -136 413 -136 q 571 -157 534 -136 l 550 -219 q 481 -202 522 -202 q 429 -219 450 -202 q 408 -273 408 -237 q 450 -338 408 -317 q 519 -328 464 -335 q 589 -320 575 -320 l 589 -389 q 457 -401 558 -389 q 321 -422 357 -414 l 321 -357 z "},"ﻵ":{"ha":936,"x_min":31,"x_max":811,"o":"m 62 109 l 374 109 l 195 868 l 323 868 l 503 109 l 541 109 q 688 269 688 109 l 688 1055 l 811 1055 l 811 253 q 741 69 811 138 q 554 0 671 0 l 62 0 l 62 109 m 31 972 q 69 1077 38 1039 q 158 1116 100 1116 q 208 1106 183 1116 q 257 1085 233 1097 q 301 1064 280 1074 q 340 1055 323 1055 q 382 1069 368 1055 q 406 1117 396 1084 l 468 1117 q 429 1013 460 1051 q 340 975 398 975 q 291 984 315 975 q 243 1005 267 994 q 199 1026 220 1017 q 158 1036 177 1036 q 116 1021 130 1036 q 93 972 102 1006 l 31 972 z "},"ﻶ":{"ha":985,"x_min":31,"x_max":999,"o":"m 62 109 l 374 109 l 195 868 l 323 868 l 503 109 l 688 109 l 688 1055 l 811 1055 l 811 109 l 991 109 q 999 103 999 109 l 999 7 q 991 0 999 0 l 62 0 l 62 109 m 31 972 q 69 1077 38 1039 q 158 1116 100 1116 q 208 1106 183 1116 q 257 1085 233 1097 q 301 1064 280 1074 q 340 1055 323 1055 q 382 1069 368 1055 q 406 1117 396 1084 l 468 1117 q 429 1013 460 1051 q 340 975 398 975 q 291 984 315 975 q 243 1005 267 994 q 199 1026 220 1017 q 158 1036 177 1036 q 116 1021 130 1036 q 93 972 102 1006 l 31 972 z "},"ۂ":{"ha":905,"x_min":69,"x_max":920,"o":"m 69 0 q 245 291 173 197 q 402 444 318 385 q 599 534 487 503 l 729 534 l 729 109 l 913 109 q 920 103 920 109 l 920 7 q 913 0 920 0 l 606 0 l 606 421 q 455 341 515 386 q 345 225 395 296 q 218 0 294 154 l 69 0 m 473 730 l 539 739 q 490 827 490 771 q 529 920 490 887 q 632 952 568 952 q 724 931 686 952 l 703 869 q 633 886 675 886 q 582 868 603 886 q 561 814 561 851 q 573 774 561 791 q 603 749 585 758 q 669 760 616 753 q 742 767 722 767 l 742 699 q 693 695 731 699 q 551 678 654 692 l 473 666 l 473 730 z "},"ﮦ":{"ha":829,"x_min":90,"x_max":739,"o":"m 412 -14 q 175 70 259 -14 q 90 309 90 154 q 133 498 90 410 q 250 637 175 587 q 416 688 325 688 q 577 636 503 688 q 696 494 652 584 q 739 309 739 405 q 657 69 739 151 q 412 -14 574 -14 m 415 93 q 614 307 614 93 q 561 507 614 433 q 414 581 508 581 q 272 505 329 581 q 215 307 215 429 q 415 93 215 93 z "},"ۃ":{"ha":905,"x_min":69,"x_max":920,"o":"m 69 0 q 245 291 173 197 q 402 444 318 385 q 599 534 487 503 l 729 534 l 729 109 l 913 109 q 920 103 920 109 l 920 7 q 913 0 920 0 l 606 0 l 606 421 q 455 341 515 386 q 345 225 395 296 q 218 0 294 154 l 69 0 m 431 673 q 375 692 398 673 q 353 756 353 712 q 375 820 353 800 q 431 840 398 840 q 487 818 466 840 q 508 756 508 797 q 487 694 508 716 q 431 673 467 673 m 671 673 q 614 694 635 673 q 593 756 593 716 q 613 818 593 796 q 671 840 634 840 q 728 817 708 840 q 749 756 749 794 q 728 695 749 718 q 671 673 708 673 z "},"ﮫ":{"ha":1175,"x_min":90,"x_max":1189,"o":"m 90 109 l 250 109 q 179 190 205 137 q 153 307 153 242 q 190 456 153 392 q 291 555 227 519 q 432 590 356 590 q 701 292 701 590 l 701 109 l 884 109 l 884 380 q 798 660 884 570 q 529 749 711 749 q 272 708 395 749 l 240 815 q 529 859 370 859 q 878 737 754 859 q 1002 392 1002 615 l 1002 109 l 1182 109 q 1189 103 1189 109 l 1189 7 q 1182 0 1189 0 l 90 0 l 90 109 m 583 109 l 583 271 q 545 420 583 372 q 427 468 506 468 q 316 425 356 468 q 277 302 277 382 q 329 161 277 214 q 469 109 382 109 l 583 109 z "},"ﮬ":{"ha":1078,"x_min":-14,"x_max":960,"o":"m 542 109 l 542 271 q 502 420 542 373 q 385 468 463 468 q 274 425 314 468 q 235 302 235 382 q 288 161 235 214 q 428 109 342 109 l 542 109 m -7 0 q -14 7 -14 0 l -14 103 q -7 109 -14 109 l 208 109 q 138 189 164 136 q 111 307 111 242 q 149 456 111 392 q 250 555 186 520 q 390 590 314 590 q 660 292 660 590 l 660 109 l 842 109 l 842 380 q 756 659 842 570 q 488 749 671 749 q 231 708 353 749 l 199 815 q 488 859 329 859 q 837 736 714 859 q 960 392 960 614 l 960 0 l -7 0 z "},"ﮭ":{"ha":1133,"x_min":-14,"x_max":1147,"o":"m -7 0 q -14 7 -14 0 l -14 103 q -7 109 -14 109 l 208 109 q 138 189 164 136 q 111 307 111 242 q 149 456 111 392 q 250 555 186 520 q 390 590 314 590 q 660 292 660 590 l 660 109 l 842 109 l 842 380 q 756 659 842 570 q 488 749 671 749 q 231 708 353 749 l 199 815 q 488 859 329 859 q 837 736 714 859 q 960 392 960 614 l 960 109 l 1140 109 q 1147 103 1147 109 l 1147 7 q 1140 0 1147 0 l -7 0 m 542 109 l 542 271 q 502 420 542 373 q 385 468 463 468 q 274 425 314 468 q 235 302 235 382 q 288 161 235 214 q 428 109 342 109 l 542 109 z "},"۰":{"ha":457,"x_min":139,"x_max":318,"o":"m 139 524 l 318 524 l 318 264 l 139 264 l 139 524 z "},"۱":{"ha":401,"x_min":139,"x_max":262,"o":"m 139 936 l 262 936 l 262 0 l 139 0 l 139 936 z "},"۲":{"ha":665,"x_min":62,"x_max":616,"o":"m 62 838 l 62 936 l 616 936 l 616 823 l 196 823 l 488 0 l 354 0 l 62 838 z "},"۳":{"ha":818,"x_min":62,"x_max":755,"o":"m 62 936 l 195 936 l 257 726 q 302 720 269 720 q 360 772 343 720 q 378 936 378 824 l 501 936 q 495 814 501 865 q 472 728 489 764 q 534 720 500 720 q 610 768 589 720 q 632 936 632 817 l 755 936 l 755 917 q 706 687 755 758 q 541 615 656 615 q 410 647 456 615 q 342 616 379 616 q 285 631 303 616 l 490 0 l 358 0 l 62 936 z "},"۹":{"ha":757,"x_min":41,"x_max":632,"o":"m 515 374 l 358 374 q 124 450 207 374 q 41 667 41 526 q 116 873 41 795 q 315 950 191 950 q 557 842 481 950 q 632 498 632 734 l 632 0 l 515 0 l 515 374 m 514 482 q 494 690 514 611 q 432 805 473 769 q 315 842 390 842 q 200 795 242 842 q 158 665 158 749 q 355 482 158 482 l 514 482 z "},"۷":{"ha":733,"x_min":28,"x_max":705,"o":"m 28 936 l 155 936 l 323 300 q 366 117 352 194 q 408 300 380 205 l 576 936 l 705 936 l 443 0 l 289 0 l 28 936 z "},"۸":{"ha":733,"x_min":28,"x_max":705,"o":"m 289 936 l 443 936 l 705 0 l 576 0 l 408 636 q 366 819 378 736 q 323 636 352 741 l 155 0 l 28 0 l 289 936 z "},"ﹰ":{"ha":0,"x_min":-163,"x_max":163,"o":"m -163 1154 l 163 1275 l 163 1200 l -163 1078 l -163 1154 m -163 1311 l 163 1432 l 163 1357 l -163 1235 l -163 1311 z "},"ﹲ":{"ha":0,"x_min":-249,"x_max":239,"o":"m 7 1083 q -126 1131 -71 1083 l -147 1149 l -204 1103 l -249 1156 l -140 1254 q -67 1179 -104 1206 q 1 1153 -30 1153 q 40 1160 29 1153 q 7 1217 20 1185 q -5 1280 -5 1250 q 29 1364 -5 1333 q 119 1396 64 1396 q 206 1365 174 1396 q 239 1286 239 1335 q 207 1183 239 1230 q 121 1110 175 1137 q 7 1083 68 1083 m 104 1182 q 167 1280 167 1217 q 153 1316 167 1302 q 117 1329 138 1329 q 80 1316 96 1329 q 65 1274 65 1302 q 104 1182 65 1233 z "},"ﹴ":{"ha":0,"x_min":-163,"x_max":163,"o":"m -163 -461 l 163 -340 l 163 -415 l -163 -538 l -163 -461 m -163 -304 l 163 -183 l 163 -258 l -163 -380 l -163 -304 z "},"ﹶ":{"ha":0,"x_min":-163,"x_max":163,"o":"m -163 1154 l 163 1275 l 163 1200 l -163 1078 l -163 1154 z "},"ﹸ":{"ha":0,"x_min":-204,"x_max":204,"o":"m -62 1083 q -204 1129 -140 1083 l -164 1187 q -65 1153 -113 1153 q 4 1162 -24 1153 q -40 1280 -40 1219 q -5 1364 -40 1333 q 85 1396 29 1396 q 172 1364 140 1396 q 204 1286 204 1333 q 167 1188 204 1236 q 68 1112 130 1141 q -62 1083 5 1083 m 65 1186 q 117 1231 102 1206 q 132 1280 132 1257 q 118 1316 132 1302 q 82 1329 104 1329 q 46 1316 61 1329 q 31 1274 31 1302 q 65 1186 31 1231 z "},"ﹺ":{"ha":0,"x_min":-163,"x_max":163,"o":"m -163 -304 l 163 -183 l 163 -258 l -163 -380 l -163 -304 z "},"ﹼ":{"ha":0,"x_min":-221,"x_max":222,"o":"m -107 1120 q -192 1154 -162 1120 q -221 1254 -221 1188 l -221 1341 l -149 1341 l -149 1267 q -136 1207 -149 1225 q -93 1190 -124 1190 q -32 1254 -32 1190 l -32 1377 l 33 1377 l 33 1282 q 46 1232 33 1245 q 86 1218 59 1218 q 137 1236 123 1218 q 150 1295 150 1254 l 150 1397 l 222 1397 l 222 1282 q 192 1182 222 1217 q 103 1147 162 1147 q 5 1189 38 1147 q -107 1120 -28 1120 z "},"ﹾ":{"ha":0,"x_min":-153,"x_max":154,"o":"m -1 1133 q -112 1172 -71 1133 q -153 1279 -153 1211 q -111 1386 -153 1348 q -1 1425 -70 1425 q 111 1385 68 1425 q 154 1280 154 1345 q 111 1173 154 1213 q -1 1133 68 1133 m -1 1203 q 54 1223 32 1203 q 75 1279 75 1242 q 54 1336 75 1316 q -1 1356 32 1356 q -57 1336 -35 1356 q -78 1279 -78 1316 q -1 1203 -78 1203 z "},"ﱞ":{"ha":0,"x_min":-249,"x_max":239,"o":"m -107 1120 q -192 1154 -162 1120 q -221 1254 -221 1188 l -221 1341 l -149 1341 l -149 1267 q -136 1207 -149 1225 q -93 1190 -124 1190 q -32 1254 -32 1190 l -32 1377 l 33 1377 l 33 1282 q 46 1232 33 1245 q 86 1218 59 1218 q 137 1236 123 1218 q 150 1295 150 1254 l 150 1397 l 222 1397 l 222 1282 q 192 1182 222 1217 q 103 1147 162 1147 q 5 1189 38 1147 q -107 1120 -28 1120 m 7 1449 q -126 1497 -71 1449 l -147 1514 l -204 1468 l -249 1521 l -140 1619 q -67 1545 -104 1571 q 1 1518 -30 1518 q 40 1525 29 1518 q 7 1583 20 1550 q -5 1646 -5 1615 q 29 1730 -5 1699 q 119 1761 64 1761 q 206 1731 174 1761 q 239 1651 239 1700 q 207 1549 239 1596 q 121 1475 175 1502 q 7 1449 68 1449 m 104 1548 q 167 1646 167 1582 q 153 1681 167 1668 q 117 1695 138 1695 q 80 1681 96 1695 q 65 1639 65 1668 q 104 1548 65 1598 z "},"ﱟ":{"ha":0,"x_min":-221,"x_max":246,"o":"m -107 1120 q -192 1154 -162 1120 q -221 1254 -221 1188 l -221 1341 l -149 1341 l -149 1267 q -136 1207 -149 1225 q -93 1190 -124 1190 q -32 1254 -32 1190 l -32 1377 l 33 1377 l 33 1282 q 46 1232 33 1245 q 86 1218 59 1218 q 137 1236 123 1218 q 150 1295 150 1254 l 150 1397 l 222 1397 l 222 1282 q 192 1182 222 1217 q 103 1147 162 1147 q 5 1189 38 1147 q -107 1120 -28 1120 m -79 859 l 246 979 l 246 905 l -79 782 l -79 859 m -79 1015 l 246 1137 l 246 1061 l -79 939 l -79 1015 z "},"ﱠ":{"ha":0,"x_min":-226,"x_max":222,"o":"m -107 1120 q -192 1154 -162 1120 q -221 1254 -221 1188 l -221 1341 l -149 1341 l -149 1267 q -136 1207 -149 1225 q -93 1190 -124 1190 q -32 1254 -32 1190 l -32 1377 l 33 1377 l 33 1282 q 46 1232 33 1245 q 86 1218 59 1218 q 137 1236 123 1218 q 150 1295 150 1254 l 150 1397 l 222 1397 l 222 1282 q 192 1182 222 1217 q 103 1147 162 1147 q 5 1189 38 1147 q -107 1120 -28 1120 m -226 1501 l 100 1622 l 100 1547 l -226 1425 l -226 1501 z "},"ﱡ":{"ha":0,"x_min":-221,"x_max":222,"o":"m -107 1120 q -192 1154 -162 1120 q -221 1254 -221 1188 l -221 1341 l -149 1341 l -149 1267 q -136 1207 -149 1225 q -93 1190 -124 1190 q -32 1254 -32 1190 l -32 1377 l 33 1377 l 33 1282 q 46 1232 33 1245 q 86 1218 59 1218 q 137 1236 123 1218 q 150 1295 150 1254 l 150 1397 l 222 1397 l 222 1282 q 192 1182 222 1217 q 103 1147 162 1147 q 5 1189 38 1147 q -107 1120 -28 1120 m -62 1454 q -204 1500 -140 1454 l -164 1558 q -65 1524 -113 1524 q 4 1533 -24 1524 q -40 1651 -40 1590 q -5 1735 -40 1704 q 85 1767 29 1767 q 172 1735 140 1767 q 204 1657 204 1704 q 167 1559 204 1607 q 68 1483 130 1512 q -62 1454 5 1454 m 65 1557 q 117 1602 102 1577 q 132 1651 132 1628 q 118 1687 132 1673 q 82 1700 104 1700 q 46 1687 61 1700 q 31 1645 31 1673 q 65 1557 31 1602 z "},"ﱢ":{"ha":0,"x_min":-221,"x_max":239,"o":"m -107 1120 q -192 1154 -162 1120 q -221 1254 -221 1188 l -221 1341 l -149 1341 l -149 1267 q -136 1207 -149 1225 q -93 1190 -124 1190 q -32 1254 -32 1190 l -32 1377 l 33 1377 l 33 1282 q 46 1232 33 1245 q 86 1218 59 1218 q 137 1236 123 1218 q 150 1295 150 1254 l 150 1397 l 222 1397 l 222 1282 q 192 1182 222 1217 q 103 1147 162 1147 q 5 1189 38 1147 q -107 1120 -28 1120 m -86 986 l 239 1107 l 239 1032 l -86 910 l -86 986 z "},"ﱣ":{"ha":0,"x_min":-221,"x_max":222,"o":"m -107 1120 q -192 1154 -162 1120 q -221 1254 -221 1188 l -221 1341 l -149 1341 l -149 1267 q -136 1207 -149 1225 q -93 1190 -124 1190 q -32 1254 -32 1190 l -32 1377 l 33 1377 l 33 1282 q 46 1232 33 1245 q 86 1218 59 1218 q 137 1236 123 1218 q 150 1295 150 1254 l 150 1397 l 222 1397 l 222 1282 q 192 1182 222 1217 q 103 1147 162 1147 q 5 1189 38 1147 q -107 1120 -28 1120 m -40 1750 l 39 1750 l 39 1480 l -40 1480 l -40 1750 z "},"ٲ":{"ha":401,"x_min":-52,"x_max":334,"o":"m 139 972 l 262 972 l 262 0 l 139 0 l 139 972 m 147 1053 q 115 1056 129 1053 q 89 1063 101 1059 q 67 1070 77 1067 q 46 1074 57 1074 q -20 1043 16 1074 l -52 1072 q -1 1122 -22 1109 q 37 1135 19 1135 q 77 1124 51 1135 q 131 1114 104 1114 q 82 1202 82 1145 q 121 1294 82 1261 q 224 1326 160 1326 q 315 1305 278 1326 l 294 1243 q 225 1260 267 1260 q 174 1243 195 1260 q 153 1189 153 1225 q 165 1148 153 1165 q 195 1124 177 1132 q 260 1133 210 1125 q 334 1146 311 1141 l 334 1078 q 241 1063 313 1073 q 147 1053 169 1053 z "},"ٳ":{"ha":401,"x_min":-46,"x_max":339,"o":"m 139 1055 l 262 1055 l 262 0 l 139 0 l 139 1055 m 153 -354 q 95 -344 124 -354 q 52 -334 65 -334 q -14 -364 21 -334 l -46 -335 q 4 -284 -16 -296 q 43 -272 24 -272 q 83 -282 56 -272 q 136 -293 109 -293 q 102 -258 117 -281 q 87 -205 87 -236 q 125 -114 87 -147 q 229 -81 163 -81 q 321 -102 283 -81 l 300 -164 q 231 -147 272 -147 q 179 -164 200 -147 q 158 -218 158 -182 q 200 -283 158 -262 q 266 -274 215 -282 q 339 -261 316 -267 l 339 -329 q 234 -346 302 -337 q 153 -354 166 -354 z "},"ٵ":{"ha":401,"x_min":139,"x_max":600,"o":"m 139 972 l 262 972 l 262 0 l 139 0 l 139 972 m 332 751 l 397 760 q 349 848 349 792 q 388 941 349 908 q 490 973 427 973 q 582 952 545 973 l 561 890 q 492 907 533 907 q 440 889 461 907 q 419 836 419 872 q 431 795 419 812 q 461 770 444 779 q 528 781 475 774 q 600 788 581 788 l 600 720 q 551 716 589 720 q 410 699 513 713 l 332 687 l 332 751 z "},"ٶ":{"ha":779,"x_min":90,"x_max":798,"o":"m 340 -334 q 90 -262 199 -334 l 146 -170 q 238 -209 191 -193 q 343 -225 286 -225 q 491 -175 437 -225 q 545 -40 545 -124 l 545 0 l 408 0 q 179 81 260 0 q 98 317 98 163 q 202 577 98 480 q 479 673 306 673 l 661 673 l 661 -33 q 577 -254 661 -175 q 340 -334 494 -334 m 543 109 l 543 566 l 484 566 q 291 500 360 566 q 222 318 222 435 q 270 159 222 210 q 412 109 317 109 l 543 109 m 529 859 l 595 869 q 546 957 546 901 q 585 1049 546 1017 q 688 1082 624 1082 q 779 1061 742 1082 l 758 998 q 689 1015 730 1015 q 637 998 659 1015 q 616 944 616 981 q 629 904 616 920 q 659 879 641 887 q 725 889 672 882 q 798 897 778 897 l 798 829 q 748 825 787 829 q 607 808 710 821 l 529 795 l 529 859 z "},"ٷ":{"ha":779,"x_min":-8,"x_max":798,"o":"m 340 -334 q 90 -262 199 -334 l 146 -170 q 238 -209 191 -193 q 343 -225 286 -225 q 491 -175 437 -225 q 545 -40 545 -124 l 545 0 l 408 0 q 179 81 260 0 q 98 317 98 163 q 202 577 98 480 q 479 673 306 673 l 661 673 l 661 -33 q 577 -254 661 -175 q 340 -334 494 -334 m 543 109 l 543 566 l 484 566 q 291 500 360 566 q 222 318 222 435 q 270 159 222 210 q 412 109 317 109 l 543 109 m 529 859 l 595 869 q 546 957 546 901 q 585 1049 546 1017 q 688 1082 624 1082 q 779 1061 742 1082 l 758 998 q 689 1015 730 1015 q 637 998 659 1015 q 616 944 616 981 q 629 904 616 920 q 659 879 641 887 q 725 889 672 882 q 798 897 778 897 l 798 829 q 748 825 787 829 q 607 808 710 821 l 529 795 l 529 859 m 134 759 q -8 805 56 759 l 32 863 q 131 829 83 829 q 200 838 172 829 q 156 956 156 895 q 191 1040 156 1009 q 281 1072 225 1072 q 368 1040 336 1072 q 400 962 400 1008 q 363 864 400 912 q 264 788 326 817 q 134 759 201 759 m 261 862 q 313 907 298 882 q 328 956 328 932 q 314 991 328 978 q 278 1005 300 1005 q 242 991 257 1005 q 227 949 227 978 q 261 862 227 907 z "},"ٸ":{"ha":1165,"x_min":90,"x_max":1117,"o":"m 370 -334 q 165 -243 239 -334 q 90 1 90 -153 q 102 132 90 74 q 139 252 114 191 l 254 252 q 230 177 239 213 q 218 109 222 142 q 215 9 215 75 q 262 -164 215 -103 q 396 -225 309 -225 l 668 -225 q 837 -186 774 -225 q 899 -83 899 -148 q 881 -33 899 -58 q 833 15 863 -9 q 732 82 804 39 q 615 160 648 132 q 565 220 582 189 q 547 288 547 251 q 609 462 547 370 q 761 614 670 554 q 937 673 852 673 q 1030 654 970 673 q 1117 618 1090 635 l 1067 525 q 1009 542 1046 535 q 942 549 971 549 q 833 511 895 549 q 728 417 771 473 q 685 311 685 361 q 789 201 685 264 q 934 98 891 139 q 1001 11 977 58 q 1025 -86 1025 -37 q 932 -268 1025 -202 q 668 -334 839 -334 l 370 -334 m 760 833 l 825 842 q 777 930 777 874 q 815 1023 777 990 q 918 1055 854 1055 q 1010 1034 972 1055 l 989 972 q 920 989 961 989 q 868 971 889 989 q 847 918 847 954 q 859 877 847 894 q 889 852 871 861 q 956 863 903 856 q 1028 870 1008 870 l 1028 802 q 979 799 1017 802 q 838 781 941 795 l 760 769 l 760 833 z "},"ٺ":{"ha":1080,"x_min":90,"x_max":962,"o":"m 350 0 q 160 72 230 0 q 90 269 90 144 q 100 376 90 315 q 125 478 110 436 l 236 478 q 215 279 215 378 q 251 156 215 203 q 346 109 287 109 l 844 109 l 844 673 l 962 673 l 962 0 l 350 0 m 524 508 q 467 530 488 508 q 446 591 446 551 q 466 653 446 631 q 524 675 487 675 q 581 652 561 675 q 602 591 602 629 q 581 531 602 553 q 524 508 561 508 m 524 760 q 467 781 488 760 q 446 842 446 803 q 466 904 446 882 q 524 926 487 926 q 581 903 561 926 q 602 842 602 880 q 581 782 602 805 q 524 760 561 760 z "},"ٻ":{"ha":1080,"x_min":90,"x_max":962,"o":"m 350 0 q 160 72 230 0 q 90 269 90 144 q 100 376 90 315 q 125 478 110 436 l 236 478 q 215 279 215 378 q 251 156 215 203 q 346 109 287 109 l 844 109 l 844 673 l 962 673 l 962 0 l 350 0 m 579 -529 q 522 -507 543 -529 q 501 -446 501 -486 q 522 -385 501 -406 q 579 -363 543 -363 q 636 -385 616 -363 q 657 -446 657 -408 q 637 -506 657 -484 q 579 -529 616 -529 m 579 -278 q 522 -256 543 -278 q 501 -195 501 -235 q 522 -133 501 -155 q 579 -111 543 -111 q 637 -134 616 -111 q 657 -195 657 -157 q 637 -255 657 -233 q 579 -278 616 -278 z "},"ټ":{"ha":1080,"x_min":90,"x_max":962,"o":"m 350 0 q 160 72 230 0 q 90 269 90 144 q 100 376 90 315 q 125 478 110 436 l 236 478 q 215 279 215 378 q 251 156 215 203 q 346 109 287 109 l 844 109 l 844 673 l 962 673 l 962 0 l 350 0 m 406 674 q 350 694 373 674 q 328 758 328 713 q 350 821 328 802 q 406 841 373 841 q 462 820 441 841 q 483 758 483 798 q 462 696 483 718 q 406 674 441 674 m 646 674 q 589 696 610 674 q 568 758 568 718 q 588 819 568 798 q 646 841 609 841 q 703 818 683 841 q 724 758 724 795 q 703 697 724 720 q 646 674 683 674 m 561 -222 q 451 -183 492 -222 q 410 -76 410 -144 q 451 31 410 -7 q 561 70 492 70 q 673 30 631 70 q 716 -75 716 -9 q 673 -182 716 -142 q 561 -222 631 -222 m 561 -152 q 616 -132 594 -152 q 637 -76 637 -113 q 616 -19 637 -39 q 561 1 594 1 q 506 -19 527 1 q 484 -76 484 -39 q 561 -152 484 -152 z "},"ٽ":{"ha":1080,"x_min":90,"x_max":962,"o":"m 350 0 q 160 72 230 0 q 90 269 90 144 q 100 376 90 315 q 125 478 110 436 l 236 478 q 215 279 215 378 q 251 156 215 203 q 346 109 287 109 l 844 109 l 844 673 l 962 673 l 962 0 l 350 0 m 533 653 q 585 635 564 653 q 605 576 605 617 q 585 519 605 537 q 533 500 564 500 q 483 519 504 500 q 461 576 461 537 q 483 635 461 617 q 533 653 504 653 m 652 841 q 708 821 685 841 q 730 758 730 802 q 708 694 730 713 q 652 674 685 674 q 595 697 615 674 q 574 758 574 720 q 595 818 574 795 q 652 841 615 841 m 412 841 q 469 819 448 841 q 490 758 490 798 q 470 696 490 718 q 412 674 449 674 q 355 696 376 674 q 334 758 334 718 q 355 819 334 798 q 412 841 376 841 z "},"ٿ":{"ha":1080,"x_min":90,"x_max":962,"o":"m 350 0 q 160 72 230 0 q 90 269 90 144 q 100 376 90 315 q 125 478 110 436 l 236 478 q 215 279 215 378 q 251 156 215 203 q 346 109 287 109 l 844 109 l 844 673 l 962 673 l 962 0 l 350 0 m 425 537 q 373 556 391 537 q 354 612 354 575 q 375 669 354 651 q 425 687 395 687 q 474 669 453 687 q 494 612 494 652 q 476 556 494 576 q 425 537 457 537 m 640 537 q 590 554 610 537 q 570 612 570 572 q 590 669 570 652 q 640 687 610 687 q 691 667 672 687 q 711 612 711 647 q 692 557 711 576 q 640 537 673 537 m 425 769 q 373 788 391 769 q 354 844 354 807 q 375 901 354 883 q 425 919 395 919 q 474 901 453 919 q 494 844 494 884 q 476 788 494 808 q 425 769 457 769 m 640 769 q 590 786 610 769 q 570 844 570 804 q 590 901 570 884 q 640 919 610 919 q 691 899 672 919 q 711 844 711 879 q 692 789 711 808 q 640 769 673 769 z "},"ڀ":{"ha":1080,"x_min":90,"x_max":962,"o":"m 350 0 q 160 72 230 0 q 90 269 90 144 q 100 376 90 315 q 125 478 110 436 l 236 478 q 215 279 215 378 q 251 156 215 203 q 346 109 287 109 l 844 109 l 844 673 l 962 673 l 962 0 l 350 0 m 427 -517 q 375 -497 395 -517 q 356 -441 356 -478 q 377 -385 356 -402 q 427 -367 397 -367 q 476 -385 455 -367 q 496 -441 496 -402 q 476 -499 496 -481 q 427 -517 455 -517 m 642 -517 q 592 -499 612 -517 q 572 -441 572 -481 q 592 -384 572 -401 q 642 -367 612 -367 q 694 -387 675 -367 q 713 -441 713 -407 q 693 -497 713 -477 q 642 -517 674 -517 m 427 -285 q 375 -266 395 -285 q 356 -210 356 -246 q 377 -153 356 -170 q 427 -135 397 -135 q 476 -153 455 -135 q 496 -210 496 -170 q 476 -267 496 -250 q 427 -285 455 -285 m 642 -285 q 592 -267 612 -285 q 572 -210 572 -250 q 592 -152 572 -170 q 642 -135 612 -135 q 694 -155 675 -135 q 713 -210 713 -175 q 693 -265 713 -245 q 642 -285 674 -285 z "},"ځ":{"ha":895,"x_min":62,"x_max":804,"o":"m 730 17 q 667 75 693 47 q 621 139 640 102 q 289 3 388 76 q 189 -167 189 -71 q 241 -297 189 -256 q 401 -339 292 -339 q 606 -317 471 -339 l 621 -412 q 465 -439 522 -433 q 351 -446 407 -446 q 140 -375 217 -446 q 62 -178 62 -305 q 113 -17 62 -90 q 273 117 164 56 q 583 237 382 178 q 557 363 572 274 q 489 526 538 473 q 354 579 439 579 q 235 559 304 579 q 111 510 165 539 l 62 606 q 197 664 116 640 q 355 688 277 688 q 667 395 621 688 q 716 218 684 286 q 804 113 749 150 l 730 17 m 168 865 l 234 874 q 185 962 185 906 q 224 1055 185 1022 q 327 1087 263 1087 q 418 1066 381 1087 l 397 1004 q 328 1021 370 1021 q 277 1003 298 1021 q 256 949 256 986 q 268 909 256 926 q 298 884 280 892 q 364 895 311 888 q 437 902 417 902 l 437 834 q 388 830 426 834 q 246 813 349 827 l 168 801 l 168 865 z "},"ڂ":{"ha":895,"x_min":62,"x_max":804,"o":"m 730 17 q 667 75 693 47 q 621 139 640 102 q 289 3 388 76 q 189 -167 189 -71 q 241 -297 189 -256 q 401 -339 292 -339 q 606 -317 471 -339 l 621 -412 q 465 -439 522 -433 q 351 -446 407 -446 q 140 -375 217 -446 q 62 -178 62 -305 q 113 -17 62 -90 q 273 117 164 56 q 583 237 382 178 q 557 363 572 274 q 489 526 538 473 q 354 579 439 579 q 235 559 304 579 q 111 510 165 539 l 62 606 q 197 664 116 640 q 355 688 277 688 q 667 395 621 688 q 716 218 684 286 q 804 113 749 150 l 730 17 m 300 806 q 243 827 264 806 q 222 889 222 849 q 242 951 222 929 q 300 972 263 972 q 357 950 337 972 q 378 889 378 927 q 357 828 378 851 q 300 806 337 806 m 300 1057 q 243 1079 264 1057 q 222 1140 222 1101 q 242 1202 222 1180 q 300 1223 263 1223 q 357 1201 337 1223 q 378 1140 378 1178 q 357 1080 378 1103 q 300 1057 337 1057 z "},"ڃ":{"ha":895,"x_min":62,"x_max":804,"o":"m 730 17 q 667 75 693 47 q 621 139 640 102 q 289 3 388 76 q 189 -167 189 -71 q 241 -297 189 -256 q 401 -339 292 -339 q 606 -317 471 -339 l 621 -412 q 465 -439 522 -433 q 351 -446 407 -446 q 140 -375 217 -446 q 62 -178 62 -305 q 113 -17 62 -90 q 273 117 164 56 q 583 237 382 178 q 557 363 572 274 q 489 526 538 473 q 354 579 439 579 q 235 559 304 579 q 111 510 165 539 l 62 606 q 197 664 116 640 q 355 688 277 688 q 667 395 621 688 q 716 218 684 286 q 804 113 749 150 l 730 17 m 412 -231 q 357 -211 380 -231 q 334 -147 334 -191 q 357 -83 334 -103 q 412 -64 380 -64 q 469 -85 448 -64 q 490 -147 490 -106 q 469 -209 490 -187 q 412 -231 448 -231 m 652 -231 q 595 -209 616 -231 q 574 -147 574 -187 q 595 -85 574 -107 q 652 -64 616 -64 q 710 -86 690 -64 q 730 -147 730 -109 q 710 -208 730 -185 q 652 -231 690 -231 z "},"ڄ":{"ha":895,"x_min":62,"x_max":804,"o":"m 730 17 q 667 75 693 47 q 621 139 640 102 q 289 3 388 76 q 189 -167 189 -71 q 378 -339 189 -339 l 351 -446 q 140 -375 217 -446 q 62 -178 62 -305 q 113 -17 62 -90 q 273 117 164 56 q 583 237 382 178 q 557 363 572 274 q 489 526 538 473 q 354 579 439 579 q 235 559 304 579 q 111 510 165 539 l 62 606 q 197 664 116 640 q 355 688 277 688 q 667 395 621 688 q 716 218 684 286 q 804 113 749 150 l 730 17 m 545 -444 q 488 -422 509 -444 q 467 -361 467 -401 q 488 -300 467 -321 q 545 -278 509 -278 q 602 -300 581 -278 q 623 -361 623 -323 q 602 -421 623 -399 q 545 -444 582 -444 m 545 -193 q 488 -172 509 -193 q 467 -110 467 -150 q 487 -48 467 -70 q 545 -26 508 -26 q 602 -49 582 -26 q 623 -110 623 -72 q 602 -171 623 -148 q 545 -193 582 -193 z "},"څ":{"ha":895,"x_min":62,"x_max":804,"o":"m 730 17 q 667 75 693 47 q 621 139 640 102 q 289 3 388 76 q 189 -167 189 -71 q 241 -297 189 -256 q 401 -339 292 -339 q 606 -317 471 -339 l 621 -412 q 465 -439 522 -433 q 351 -446 407 -446 q 140 -375 217 -446 q 62 -178 62 -305 q 113 -17 62 -90 q 273 117 164 56 q 583 237 382 178 q 557 363 572 274 q 489 526 538 473 q 354 579 439 579 q 235 559 304 579 q 111 510 165 539 l 62 606 q 197 664 116 640 q 355 688 277 688 q 667 395 621 688 q 716 218 684 286 q 804 113 749 150 l 730 17 m 318 993 q 267 1011 287 993 q 246 1069 246 1029 q 267 1128 246 1109 q 318 1146 287 1146 q 369 1127 347 1146 q 390 1069 390 1109 q 369 1011 390 1029 q 318 993 347 993 m 199 806 q 143 825 166 806 q 121 889 121 845 q 143 953 121 933 q 199 972 166 972 q 256 950 236 972 q 277 889 277 927 q 256 828 277 851 q 199 806 236 806 m 439 806 q 382 827 403 806 q 361 889 361 849 q 381 951 361 929 q 439 972 402 972 q 496 950 476 972 q 517 889 517 927 q 496 828 517 851 q 439 806 476 806 z "},"ڇ":{"ha":895,"x_min":62,"x_max":804,"o":"m 730 17 q 667 75 693 47 q 621 139 640 102 q 289 3 388 76 q 189 -167 189 -71 q 378 -339 189 -339 l 351 -446 q 140 -375 217 -446 q 62 -178 62 -305 q 113 -17 62 -90 q 273 117 164 56 q 583 237 382 178 q 557 363 572 274 q 489 526 538 473 q 354 579 439 579 q 235 559 304 579 q 111 510 165 539 l 62 606 q 197 664 116 640 q 355 688 277 688 q 667 395 621 688 q 716 218 684 286 q 804 113 749 150 l 730 17 m 497 -441 q 446 -422 465 -441 q 427 -366 427 -403 q 447 -309 427 -327 q 497 -292 468 -292 q 546 -309 526 -292 q 567 -366 567 -327 q 546 -424 567 -406 q 497 -441 526 -441 m 713 -441 q 663 -424 683 -441 q 643 -366 643 -406 q 663 -309 643 -326 q 713 -292 683 -292 q 765 -312 746 -292 q 783 -366 783 -332 q 764 -421 783 -401 q 713 -441 745 -441 m 497 -210 q 446 -190 465 -210 q 427 -134 427 -171 q 447 -77 427 -95 q 497 -60 468 -60 q 546 -77 526 -60 q 567 -134 567 -95 q 546 -192 567 -174 q 497 -210 526 -210 m 713 -210 q 663 -192 683 -210 q 643 -134 643 -174 q 663 -77 643 -94 q 713 -60 683 -60 q 765 -80 746 -60 q 783 -134 783 -100 q 764 -190 783 -170 q 713 -210 745 -210 z "},"ډ":{"ha":707,"x_min":62,"x_max":644,"o":"m 62 109 l 525 109 q 421 426 498 295 q 203 653 345 557 l 248 758 q 508 511 408 675 q 644 106 609 347 l 644 0 l 62 0 l 62 109 m 350 -222 q 240 -183 281 -222 q 199 -76 199 -144 q 240 31 199 -7 q 350 70 281 70 q 463 30 420 70 q 505 -75 505 -9 q 463 -182 505 -142 q 350 -222 420 -222 m 350 -152 q 405 -132 383 -152 q 427 -76 427 -113 q 405 -19 427 -39 q 350 1 383 1 q 295 -19 316 1 q 273 -76 273 -39 q 350 -152 273 -152 z "},"ڊ":{"ha":707,"x_min":62,"x_max":644,"o":"m 62 109 l 525 109 q 421 426 498 295 q 203 653 345 557 l 248 758 q 508 511 408 675 q 644 106 609 347 l 644 0 l 62 0 l 62 109 m 359 -278 q 302 -256 323 -278 q 281 -195 281 -235 q 302 -133 281 -155 q 359 -111 323 -111 q 417 -134 397 -111 q 437 -195 437 -157 q 417 -255 437 -233 q 359 -278 397 -278 z "},"ڋ":{"ha":707,"x_min":62,"x_max":644,"o":"m 62 109 l 525 109 q 421 426 498 295 q 203 653 345 557 l 248 758 q 508 511 408 675 q 644 106 609 347 l 644 0 l 62 0 l 62 109 m 121 940 l 142 940 l 142 1193 l 197 1193 l 197 1017 q 240 1082 214 1057 q 306 1107 265 1107 q 408 986 408 1107 l 408 880 l 121 880 l 121 940 m 353 940 l 353 975 q 340 1029 353 1011 q 299 1047 328 1047 q 242 1025 267 1047 q 197 954 217 1003 l 197 940 l 353 940 m 359 -278 q 302 -256 323 -278 q 281 -195 281 -235 q 302 -133 281 -155 q 359 -111 323 -111 q 417 -134 397 -111 q 437 -195 437 -157 q 417 -255 437 -233 q 359 -278 397 -278 z "},"ڌ":{"ha":707,"x_min":49,"x_max":644,"o":"m 62 109 l 525 109 q 421 426 498 295 q 203 653 345 557 l 248 758 q 508 511 408 675 q 644 106 609 347 l 644 0 l 62 0 l 62 109 m 127 889 q 72 909 94 889 q 49 972 49 928 q 72 1036 49 1017 q 127 1056 94 1056 q 183 1035 162 1056 q 204 972 204 1013 q 183 911 204 932 q 127 889 163 889 m 367 889 q 310 911 331 889 q 289 972 289 932 q 310 1034 289 1013 q 367 1056 330 1056 q 425 1033 404 1056 q 445 972 445 1010 q 425 912 445 935 q 367 889 404 889 z "},"ڍ":{"ha":707,"x_min":62,"x_max":644,"o":"m 62 109 l 525 109 q 421 426 498 295 q 203 653 345 557 l 248 758 q 508 511 408 675 q 644 106 609 347 l 644 0 l 62 0 l 62 109 m 241 -278 q 185 -258 208 -278 q 163 -195 163 -239 q 185 -131 163 -151 q 241 -111 208 -111 q 297 -133 276 -111 q 318 -195 318 -154 q 297 -256 318 -235 q 241 -278 277 -278 m 481 -278 q 424 -256 445 -278 q 403 -195 403 -235 q 424 -133 403 -155 q 481 -111 444 -111 q 538 -134 518 -111 q 559 -195 559 -157 q 538 -255 559 -233 q 481 -278 518 -278 z "},"ڎ":{"ha":707,"x_min":48,"x_max":644,"o":"m 62 109 l 525 109 q 421 426 498 295 q 203 653 345 557 l 248 758 q 508 511 408 675 q 644 106 609 347 l 644 0 l 62 0 l 62 109 m 245 1076 q 194 1094 214 1076 q 174 1153 174 1112 q 194 1211 174 1193 q 245 1230 214 1230 q 296 1211 275 1230 q 317 1153 317 1192 q 296 1094 317 1112 q 245 1076 275 1076 m 126 889 q 71 909 94 889 q 48 972 48 928 q 71 1036 48 1017 q 126 1056 94 1056 q 184 1033 163 1056 q 204 972 204 1010 q 184 912 204 935 q 126 889 163 889 m 366 889 q 309 911 330 889 q 288 972 288 932 q 309 1034 288 1013 q 366 1056 330 1056 q 424 1033 404 1056 q 444 972 444 1010 q 424 912 444 935 q 366 889 404 889 z "},"ڏ":{"ha":707,"x_min":52,"x_max":644,"o":"m 62 109 l 525 109 q 421 426 498 295 q 203 653 345 557 l 248 758 q 508 511 408 675 q 644 106 609 347 l 644 0 l 62 0 l 62 109 m 250 1035 q 302 1017 281 1035 q 322 958 322 999 q 302 901 322 919 q 250 882 281 882 q 200 901 221 882 q 178 958 178 919 q 200 1017 178 999 q 250 1035 221 1035 m 370 1223 q 425 1203 402 1223 q 448 1139 448 1183 q 425 1076 448 1095 q 370 1056 402 1056 q 312 1079 332 1056 q 292 1139 292 1101 q 312 1200 292 1177 q 370 1223 332 1223 m 130 1223 q 186 1201 165 1223 q 208 1139 208 1179 q 187 1078 208 1099 q 130 1056 166 1056 q 73 1078 94 1056 q 52 1139 52 1099 q 72 1201 52 1179 q 130 1223 93 1223 z "},"ڐ":{"ha":707,"x_min":62,"x_max":644,"o":"m 62 109 l 525 109 q 421 426 498 295 q 203 653 345 557 l 248 758 q 508 511 408 675 q 644 106 609 347 l 644 0 l 62 0 l 62 109 m 139 827 q 87 846 106 827 q 68 901 68 865 q 89 959 68 941 q 139 977 110 977 q 188 959 168 977 q 209 901 209 941 q 190 846 209 865 q 139 827 172 827 m 355 827 q 305 844 325 827 q 285 901 285 861 q 305 959 285 941 q 355 977 325 977 q 406 957 387 977 q 425 901 425 937 q 406 846 425 866 q 355 827 387 827 m 139 1059 q 87 1078 106 1059 q 68 1133 68 1097 q 89 1191 68 1173 q 139 1208 110 1208 q 188 1191 168 1208 q 209 1133 209 1173 q 190 1078 209 1097 q 139 1059 172 1059 m 355 1059 q 305 1076 325 1059 q 285 1133 285 1093 q 305 1191 285 1173 q 355 1208 325 1208 q 406 1188 387 1208 q 425 1133 425 1168 q 406 1078 425 1098 q 355 1059 387 1059 z "},"ڒ":{"ha":452,"x_min":-56,"x_max":467,"o":"m 86 -334 q -56 -294 20 -334 l -20 -201 q 36 -221 14 -216 q 83 -225 58 -225 q 181 -174 146 -225 q 216 -40 216 -123 l 216 673 l 334 673 l 334 -33 q 270 -254 334 -174 q 86 -334 206 -334 m 467 1086 l 314 809 l 228 809 l 73 1086 l 182 1086 l 269 907 l 359 1086 l 467 1086 z "},"ړ":{"ha":452,"x_min":-56,"x_max":427,"o":"m 86 -334 q -56 -294 20 -334 l -20 -201 q 36 -221 14 -216 q 83 -225 58 -225 q 181 -174 146 -225 q 216 -40 216 -123 l 216 673 l 334 673 l 334 -33 q 270 -254 334 -174 q 86 -334 206 -334 m 272 -503 q 162 -464 203 -503 q 121 -357 121 -425 q 162 -250 121 -288 q 272 -211 203 -211 q 385 -251 342 -211 q 427 -355 427 -290 q 385 -463 427 -422 q 272 -503 342 -503 m 272 -433 q 327 -413 305 -433 q 349 -357 349 -393 q 327 -300 349 -320 q 272 -280 305 -280 q 217 -300 238 -280 q 195 -357 195 -320 q 272 -433 195 -433 z "},"ڔ":{"ha":452,"x_min":-56,"x_max":334,"o":"m 86 -334 q -56 -294 20 -334 l -20 -201 q 36 -221 14 -216 q 83 -225 58 -225 q 181 -174 146 -225 q 216 -40 216 -123 l 216 673 l 334 673 l 334 -33 q 270 -254 334 -174 q 86 -334 206 -334 m 184 -573 q 127 -551 149 -573 q 106 -490 106 -530 q 127 -428 106 -450 q 184 -406 148 -406 q 242 -429 222 -406 q 262 -490 262 -452 q 242 -550 262 -528 q 184 -573 222 -573 z "},"ڕ":{"ha":452,"x_min":-56,"x_max":366,"o":"m 86 -334 q -56 -294 20 -334 l -20 -201 q 36 -221 14 -216 q 83 -225 58 -225 q 181 -174 146 -225 q 216 -40 216 -123 l 216 673 l 334 673 l 334 -33 q 270 -254 334 -174 q 86 -334 206 -334 m 366 -442 l 213 -719 l 127 -719 l -28 -442 l 81 -442 l 168 -621 l 258 -442 l 366 -442 z "},"ږ":{"ha":452,"x_min":-56,"x_max":334,"o":"m 86 -334 q -56 -294 20 -334 l -20 -201 q 36 -221 14 -216 q 83 -225 58 -225 q 181 -174 146 -225 q 216 -40 216 -123 l 216 673 l 334 673 l 334 -33 q 270 -254 334 -174 q 86 -334 206 -334 m 184 -573 q 127 -551 149 -573 q 106 -490 106 -530 q 127 -428 106 -450 q 184 -406 148 -406 q 242 -429 222 -406 q 262 -490 262 -452 q 242 -550 262 -528 q 184 -573 222 -573 m 107 0 q 50 22 71 0 q 29 83 29 43 q 50 145 29 123 q 107 167 71 167 q 165 144 144 167 q 185 83 185 121 q 165 23 185 45 q 107 0 144 0 z "},"ڗ":{"ha":452,"x_min":-56,"x_max":467,"o":"m 86 -334 q -56 -294 20 -334 l -20 -201 q 36 -221 14 -216 q 83 -225 58 -225 q 181 -174 146 -225 q 216 -40 216 -123 l 216 673 l 334 673 l 334 -33 q 270 -254 334 -174 q 86 -334 206 -334 m 149 806 q 93 825 116 806 q 71 889 71 845 q 93 953 71 933 q 149 972 116 972 q 205 951 184 972 q 226 889 226 930 q 205 827 226 849 q 149 806 184 806 m 389 806 q 332 827 353 806 q 311 889 311 849 q 331 951 311 929 q 389 972 352 972 q 446 950 426 972 q 467 889 467 927 q 446 828 467 851 q 389 806 426 806 z "},"ڙ":{"ha":452,"x_min":-56,"x_max":448,"o":"m 86 -334 q -56 -294 20 -334 l -20 -201 q 36 -221 14 -216 q 83 -225 58 -225 q 181 -174 146 -225 q 216 -40 216 -123 l 216 673 l 334 673 l 334 -33 q 270 -254 334 -174 q 86 -334 206 -334 m 162 810 q 110 829 129 810 q 92 885 92 848 q 112 942 92 924 q 162 960 133 960 q 211 943 191 960 q 232 885 232 925 q 213 830 232 849 q 162 810 195 810 m 378 810 q 328 828 348 810 q 308 885 308 845 q 328 943 308 925 q 378 960 348 960 q 429 940 410 960 q 448 885 448 920 q 429 830 448 850 q 378 810 410 810 m 162 1042 q 110 1061 129 1042 q 92 1117 92 1080 q 112 1174 92 1156 q 162 1192 133 1192 q 211 1175 191 1192 q 232 1117 232 1157 q 213 1062 232 1081 q 162 1042 195 1042 m 378 1042 q 328 1060 348 1042 q 308 1117 308 1077 q 328 1175 308 1157 q 378 1192 348 1192 q 429 1172 410 1192 q 448 1117 448 1152 q 429 1062 448 1082 q 378 1042 410 1042 z "},"ښ":{"ha":1725,"x_min":90,"x_max":1607,"o":"m 1404 0 q 1290 21 1342 0 q 1181 96 1237 41 q 1098 26 1149 53 q 978 0 1047 0 l 815 0 q 732 -249 815 -164 q 469 -334 648 -334 l 370 -334 q 165 -239 241 -334 q 90 22 90 -144 q 105 196 90 108 q 147 350 120 283 l 262 350 q 215 22 215 230 q 262 -161 215 -96 q 396 -225 310 -225 l 464 -225 q 641 -170 585 -225 q 697 -4 697 -115 l 697 566 l 815 566 l 815 109 l 965 109 q 1069 153 1032 109 q 1107 269 1107 197 l 1107 566 l 1225 566 l 1225 232 l 1223 216 q 1300 132 1258 156 q 1404 109 1342 109 l 1489 109 l 1489 673 l 1607 673 l 1607 0 l 1404 0 m 1164 806 q 1107 827 1128 806 q 1086 889 1086 849 q 1106 951 1086 929 q 1164 972 1127 972 q 1221 950 1201 972 q 1242 889 1242 927 q 1221 828 1242 851 q 1164 806 1201 806 m 1158 -278 q 1101 -256 1122 -278 q 1080 -195 1080 -235 q 1101 -133 1080 -155 q 1158 -111 1122 -111 q 1216 -134 1196 -111 q 1236 -195 1236 -157 q 1216 -255 1236 -233 q 1158 -278 1196 -278 z "},"ڛ":{"ha":1725,"x_min":90,"x_max":1607,"o":"m 1404 0 q 1290 21 1342 0 q 1181 96 1237 41 q 1098 26 1149 53 q 978 0 1047 0 l 815 0 q 732 -249 815 -164 q 469 -334 648 -334 l 370 -334 q 165 -239 241 -334 q 90 22 90 -144 q 105 196 90 108 q 147 350 120 283 l 262 350 q 215 22 215 230 q 262 -161 215 -96 q 396 -225 310 -225 l 464 -225 q 641 -170 585 -225 q 697 -4 697 -115 l 697 566 l 815 566 l 815 109 l 965 109 q 1069 153 1032 109 q 1107 269 1107 197 l 1107 566 l 1225 566 l 1225 232 l 1223 216 q 1300 132 1258 156 q 1404 109 1342 109 l 1489 109 l 1489 673 l 1607 673 l 1607 0 l 1404 0 m 1157 -467 q 1105 -449 1126 -467 q 1085 -390 1085 -431 q 1105 -332 1085 -351 q 1157 -314 1126 -314 q 1207 -332 1186 -314 q 1229 -390 1229 -351 q 1207 -449 1229 -431 q 1157 -467 1186 -467 m 1038 -297 q 982 -277 1005 -297 q 960 -214 960 -258 q 982 -151 960 -170 q 1038 -131 1005 -131 q 1095 -153 1074 -131 q 1116 -214 1116 -176 q 1095 -274 1116 -252 q 1038 -297 1075 -297 m 1278 -297 q 1221 -275 1242 -297 q 1200 -214 1200 -254 q 1221 -153 1200 -174 q 1278 -131 1242 -131 q 1335 -153 1314 -131 q 1356 -214 1356 -176 q 1335 -274 1356 -252 q 1278 -297 1315 -297 z "},"ڜ":{"ha":1725,"x_min":90,"x_max":1607,"o":"m 1404 0 q 1290 21 1342 0 q 1181 96 1237 41 q 1098 26 1149 53 q 978 0 1047 0 l 815 0 q 732 -249 815 -164 q 469 -334 648 -334 l 370 -334 q 165 -239 241 -334 q 90 22 90 -144 q 105 196 90 108 q 147 350 120 283 l 262 350 q 215 22 215 230 q 262 -161 215 -96 q 396 -225 310 -225 l 464 -225 q 641 -170 585 -225 q 697 -4 697 -115 l 697 566 l 815 566 l 815 109 l 965 109 q 1069 153 1032 109 q 1107 269 1107 197 l 1107 566 l 1225 566 l 1225 232 l 1223 216 q 1300 132 1258 156 q 1404 109 1342 109 l 1489 109 l 1489 673 l 1607 673 l 1607 0 l 1404 0 m 1157 -467 q 1105 -449 1126 -467 q 1085 -390 1085 -431 q 1105 -332 1085 -351 q 1157 -314 1126 -314 q 1207 -332 1186 -314 q 1229 -390 1229 -351 q 1207 -449 1229 -431 q 1157 -467 1186 -467 m 1038 -297 q 982 -277 1005 -297 q 960 -214 960 -258 q 982 -151 960 -170 q 1038 -131 1005 -131 q 1095 -153 1074 -131 q 1116 -214 1116 -176 q 1095 -274 1116 -252 q 1038 -297 1075 -297 m 1278 -297 q 1221 -275 1242 -297 q 1200 -214 1200 -254 q 1221 -153 1200 -174 q 1278 -131 1242 -131 q 1335 -153 1314 -131 q 1356 -214 1356 -176 q 1335 -274 1356 -252 q 1278 -297 1315 -297 m 1171 993 q 1119 1011 1139 993 q 1099 1069 1099 1029 q 1119 1128 1099 1109 q 1171 1146 1139 1146 q 1221 1127 1200 1146 q 1242 1069 1242 1109 q 1221 1011 1242 1029 q 1171 993 1200 993 m 1051 806 q 996 825 1019 806 q 973 889 973 845 q 996 953 973 933 q 1051 972 1019 972 q 1109 950 1088 972 q 1129 889 1129 927 q 1109 828 1129 851 q 1051 806 1088 806 m 1291 806 q 1234 827 1255 806 q 1213 889 1213 849 q 1234 951 1213 929 q 1291 972 1255 972 q 1349 950 1329 972 q 1369 889 1369 927 q 1349 828 1369 851 q 1291 806 1329 806 z "},"ڝ":{"ha":1622,"x_min":90,"x_max":1518,"o":"m 370 -334 q 165 -239 241 -334 q 90 22 90 -144 q 105 196 90 108 q 147 350 120 283 l 262 350 q 215 22 215 230 q 262 -161 215 -96 q 396 -225 310 -225 l 464 -225 q 641 -170 585 -225 q 697 -4 697 -115 l 697 673 l 815 673 l 815 375 q 979 609 880 530 q 1200 688 1077 688 q 1437 602 1357 688 q 1518 335 1518 517 l 1518 0 l 815 0 q 732 -251 815 -168 q 469 -334 648 -334 l 370 -334 m 1400 109 l 1400 329 q 1344 517 1400 457 q 1175 578 1289 578 q 815 225 960 578 l 815 109 l 1400 109 m 1014 -278 q 959 -258 981 -278 q 936 -195 936 -239 q 959 -131 936 -151 q 1014 -111 981 -111 q 1070 -133 1049 -111 q 1091 -195 1091 -154 q 1070 -256 1091 -235 q 1014 -278 1050 -278 m 1254 -278 q 1197 -256 1218 -278 q 1176 -195 1176 -235 q 1197 -133 1176 -155 q 1254 -111 1217 -111 q 1312 -134 1291 -111 q 1332 -195 1332 -157 q 1312 -255 1332 -233 q 1254 -278 1291 -278 z "},"ڞ":{"ha":1622,"x_min":90,"x_max":1518,"o":"m 370 -334 q 165 -239 241 -334 q 90 22 90 -144 q 105 196 90 108 q 147 350 120 283 l 262 350 q 215 22 215 230 q 262 -161 215 -96 q 396 -225 310 -225 l 464 -225 q 641 -170 585 -225 q 697 -4 697 -115 l 697 673 l 815 673 l 815 375 q 979 609 880 530 q 1200 688 1077 688 q 1437 602 1357 688 q 1518 335 1518 517 l 1518 0 l 815 0 q 732 -251 815 -168 q 469 -334 648 -334 l 370 -334 m 1400 109 l 1400 329 q 1344 517 1400 457 q 1175 578 1289 578 q 815 225 960 578 l 815 109 l 1400 109 m 1171 993 q 1119 1011 1139 993 q 1099 1069 1099 1029 q 1119 1128 1099 1109 q 1171 1146 1139 1146 q 1221 1127 1200 1146 q 1242 1069 1242 1109 q 1221 1011 1242 1029 q 1171 993 1200 993 m 1051 806 q 996 825 1019 806 q 973 889 973 845 q 996 953 973 933 q 1051 972 1019 972 q 1109 950 1088 972 q 1129 889 1129 927 q 1109 828 1129 851 q 1051 806 1088 806 m 1291 806 q 1234 827 1255 806 q 1213 889 1213 849 q 1234 951 1213 929 q 1291 972 1255 972 q 1349 950 1329 972 q 1369 889 1369 927 q 1349 828 1369 851 q 1291 806 1329 806 z "},"ڟ":{"ha":1116,"x_min":28,"x_max":1025,"o":"m 35 0 q 28 7 28 0 l 28 103 q 35 109 28 109 l 204 109 l 204 1055 l 322 1055 l 322 375 q 486 609 387 530 q 707 688 584 688 q 944 602 864 688 q 1025 335 1025 517 l 1025 0 l 35 0 m 907 109 l 907 329 q 851 517 907 457 q 682 578 795 578 q 486 489 577 578 q 322 222 395 401 l 322 109 l 907 109 m 694 993 q 643 1011 663 993 q 623 1069 623 1029 q 643 1128 623 1109 q 694 1146 663 1146 q 745 1127 724 1146 q 766 1069 766 1109 q 745 1011 766 1029 q 694 993 724 993 m 575 806 q 520 825 543 806 q 497 889 497 845 q 520 953 497 933 q 575 972 543 972 q 633 950 612 972 q 653 889 653 927 q 633 828 653 851 q 575 806 612 806 m 815 806 q 758 827 779 806 q 737 889 737 849 q 758 951 737 929 q 815 972 779 972 q 873 950 852 972 q 893 889 893 927 q 873 828 893 851 q 815 806 852 806 z "},"ڠ":{"ha":743,"x_min":90,"x_max":681,"o":"m 379 -446 q 168 -375 245 -446 q 90 -178 90 -305 q 269 96 90 -24 q 146 372 146 203 q 190 540 146 469 q 312 649 234 611 q 488 688 391 688 q 598 676 547 688 q 681 647 648 664 l 643 543 q 481 579 557 579 q 327 526 381 579 q 272 374 272 473 q 295 242 272 302 q 357 147 317 182 q 596 241 473 205 l 629 139 q 409 59 507 109 q 263 -48 311 9 q 216 -167 216 -105 q 269 -298 216 -256 q 429 -339 321 -339 q 633 -317 499 -339 l 648 -412 q 492 -439 550 -433 q 379 -446 435 -446 m 437 993 q 386 1011 406 993 q 366 1069 366 1029 q 386 1128 366 1109 q 437 1146 406 1146 q 488 1127 467 1146 q 509 1069 509 1109 q 488 1011 509 1029 q 437 993 467 993 m 318 806 q 263 825 286 806 q 240 889 240 845 q 263 953 240 933 q 318 972 286 972 q 376 950 355 972 q 396 889 396 927 q 376 828 396 851 q 318 806 355 806 m 558 806 q 501 827 522 806 q 480 889 480 849 q 501 951 480 929 q 558 972 522 972 q 616 950 595 972 q 636 889 636 927 q 616 828 636 851 q 558 806 595 806 z "},"ڡ":{"ha":1406,"x_min":90,"x_max":1287,"o":"m 350 0 q 160 72 230 0 q 90 269 90 144 q 100 376 90 315 q 125 478 110 436 l 236 478 q 215 279 215 378 q 251 156 215 203 q 346 109 287 109 l 798 109 q 745 201 765 144 q 725 318 725 259 q 827 577 725 481 q 1105 673 929 673 l 1287 673 l 1287 0 l 350 0 m 1169 109 l 1169 566 l 1109 566 q 917 501 986 566 q 848 319 848 437 q 1039 109 848 109 l 1169 109 z "},"ڢ":{"ha":1406,"x_min":90,"x_max":1287,"o":"m 350 0 q 160 72 230 0 q 90 269 90 144 q 100 376 90 315 q 125 478 110 436 l 236 478 q 215 279 215 378 q 251 156 215 203 q 346 109 287 109 l 798 109 q 745 201 765 144 q 725 318 725 259 q 827 577 725 481 q 1105 673 929 673 l 1287 673 l 1287 0 l 350 0 m 1169 109 l 1169 566 l 1109 566 q 917 501 986 566 q 848 319 848 437 q 1039 109 848 109 l 1169 109 m 1042 -278 q 985 -256 1006 -278 q 964 -195 964 -235 q 984 -133 964 -155 q 1042 -111 1005 -111 q 1099 -134 1079 -111 q 1120 -195 1120 -157 q 1099 -255 1120 -233 q 1042 -278 1079 -278 z "},"ڣ":{"ha":1406,"x_min":90,"x_max":1287,"o":"m 350 0 q 160 72 230 0 q 90 269 90 144 q 100 376 90 315 q 125 478 110 436 l 236 478 q 215 279 215 378 q 251 156 215 203 q 346 109 287 109 l 798 109 q 745 201 765 144 q 725 318 725 259 q 827 577 725 481 q 1105 673 929 673 l 1287 673 l 1287 0 l 350 0 m 1169 109 l 1169 566 l 1109 566 q 917 501 986 566 q 848 319 848 437 q 1039 109 848 109 l 1169 109 m 1025 806 q 968 827 989 806 q 947 889 947 849 q 967 951 947 929 q 1025 972 988 972 q 1082 950 1062 972 q 1103 889 1103 927 q 1082 828 1103 851 q 1025 806 1062 806 m 1042 -278 q 985 -256 1006 -278 q 964 -195 964 -235 q 984 -133 964 -155 q 1042 -111 1005 -111 q 1099 -134 1079 -111 q 1120 -195 1120 -157 q 1099 -255 1120 -233 q 1042 -278 1079 -278 z "},"ڥ":{"ha":1406,"x_min":90,"x_max":1287,"o":"m 350 0 q 160 72 230 0 q 90 269 90 144 q 100 376 90 315 q 125 478 110 436 l 236 478 q 215 279 215 378 q 251 156 215 203 q 346 109 287 109 l 798 109 q 745 201 765 144 q 725 318 725 259 q 827 577 725 481 q 1105 673 929 673 l 1287 673 l 1287 0 l 350 0 m 1169 109 l 1169 566 l 1109 566 q 917 501 986 566 q 848 319 848 437 q 1039 109 848 109 l 1169 109 m 1015 -467 q 964 -449 984 -467 q 943 -390 943 -431 q 964 -332 943 -351 q 1015 -314 984 -314 q 1066 -332 1044 -314 q 1087 -390 1087 -351 q 1066 -449 1087 -431 q 1015 -467 1044 -467 m 896 -297 q 841 -277 863 -297 q 818 -214 818 -258 q 841 -151 818 -170 q 896 -131 863 -131 q 953 -153 932 -131 q 974 -214 974 -176 q 954 -274 974 -252 q 896 -297 933 -297 m 1136 -297 q 1079 -275 1100 -297 q 1058 -214 1058 -254 q 1079 -153 1058 -174 q 1136 -131 1100 -131 q 1193 -153 1173 -131 q 1214 -214 1214 -176 q 1194 -274 1214 -252 q 1136 -297 1173 -297 z "},"ڦ":{"ha":1406,"x_min":90,"x_max":1287,"o":"m 350 0 q 160 72 230 0 q 90 269 90 144 q 100 376 90 315 q 125 478 110 436 l 236 478 q 215 279 215 378 q 251 156 215 203 q 346 109 287 109 l 798 109 q 745 201 765 144 q 725 318 725 259 q 827 577 725 481 q 1105 673 929 673 l 1287 673 l 1287 0 l 350 0 m 1169 109 l 1169 566 l 1109 566 q 917 501 986 566 q 848 319 848 437 q 1039 109 848 109 l 1169 109 m 900 827 q 848 846 867 827 q 829 901 829 865 q 850 959 829 941 q 900 977 871 977 q 949 959 928 977 q 970 901 970 941 q 951 846 970 865 q 900 827 932 827 m 1116 827 q 1066 844 1086 827 q 1046 901 1046 861 q 1066 959 1046 941 q 1116 977 1086 977 q 1167 957 1147 977 q 1186 901 1186 937 q 1167 846 1186 866 q 1116 827 1148 827 m 900 1059 q 848 1078 867 1059 q 829 1133 829 1097 q 850 1191 829 1173 q 900 1208 871 1208 q 949 1191 928 1208 q 970 1133 970 1173 q 951 1078 970 1097 q 900 1059 932 1059 m 1116 1059 q 1066 1076 1086 1059 q 1046 1133 1046 1093 q 1066 1191 1046 1173 q 1116 1208 1086 1208 q 1167 1188 1147 1208 q 1186 1133 1186 1168 q 1167 1078 1186 1098 q 1116 1059 1148 1059 z "},"ڧ":{"ha":1217,"x_min":90,"x_max":1099,"o":"m 419 -334 q 178 -243 267 -334 q 90 1 90 -153 q 147 329 90 178 l 262 329 q 215 9 215 196 q 275 -164 215 -103 q 444 -225 335 -225 l 725 -225 q 921 -173 861 -225 q 981 -9 981 -120 l 981 0 l 852 0 q 617 81 699 0 q 536 317 536 163 q 640 577 536 481 q 917 673 744 673 l 1099 673 l 1099 -8 q 747 -334 1099 -334 l 419 -334 m 981 109 l 981 566 l 921 566 q 729 500 798 566 q 660 318 660 435 q 707 159 660 210 q 850 109 754 109 l 981 109 m 850 806 q 793 827 814 806 q 772 889 772 849 q 792 951 772 929 q 850 972 813 972 q 907 950 887 972 q 928 889 928 927 q 907 828 928 851 q 850 806 887 806 z "},"ڨ":{"ha":1217,"x_min":90,"x_max":1099,"o":"m 419 -334 q 178 -243 267 -334 q 90 1 90 -153 q 147 329 90 178 l 262 329 q 215 9 215 196 q 275 -164 215 -103 q 444 -225 335 -225 l 725 -225 q 921 -173 861 -225 q 981 -9 981 -120 l 981 0 l 852 0 q 617 81 699 0 q 536 317 536 163 q 640 577 536 481 q 917 673 744 673 l 1099 673 l 1099 -8 q 747 -334 1099 -334 l 419 -334 m 981 109 l 981 566 l 921 566 q 729 500 798 566 q 660 318 660 435 q 707 159 660 210 q 850 109 754 109 l 981 109 m 861 993 q 810 1011 830 993 q 789 1069 789 1029 q 810 1128 789 1109 q 861 1146 830 1146 q 912 1127 890 1146 q 933 1069 933 1109 q 912 1011 933 1029 q 861 993 890 993 m 742 806 q 687 825 709 806 q 664 889 664 845 q 687 953 664 933 q 742 972 709 972 q 800 950 779 972 q 820 889 820 927 q 800 828 820 851 q 742 806 779 806 m 982 806 q 925 827 946 806 q 904 889 904 849 q 925 951 904 929 q 982 972 945 972 q 1040 950 1019 972 q 1060 889 1060 927 q 1040 828 1060 851 q 982 806 1019 806 z "},"ڪ":{"ha":1573,"x_min":28,"x_max":1470,"o":"m 526 0 q 251 27 398 0 q 28 87 104 54 l 41 150 q 210 118 138 127 q 432 109 283 109 l 1352 109 l 1352 147 q 1288 300 1352 252 q 1096 349 1225 349 l 349 349 l 349 463 q 556 732 416 605 q 838 914 695 859 l 882 808 q 632 655 752 756 q 464 457 512 555 l 1096 457 q 1374 382 1278 457 q 1470 168 1470 307 l 1470 0 l 526 0 z "},"ګ":{"ha":1122,"x_min":90,"x_max":1018,"o":"m 802 713 q 698 745 739 713 q 650 836 657 777 q 524 673 561 750 l 644 673 q 922 599 826 673 q 1018 385 1018 524 l 1018 0 l 350 0 q 157 64 224 0 q 90 249 90 129 q 98 336 90 284 q 118 436 105 389 l 229 436 q 208 262 208 321 q 245 150 208 191 q 346 109 282 109 l 900 109 l 900 364 q 838 517 900 468 q 644 566 775 566 l 408 566 l 408 679 q 532 863 453 772 q 708 1024 610 954 q 897 1131 805 1095 l 942 1025 q 869 991 891 1003 q 933 942 909 976 q 957 860 957 908 q 915 753 957 794 q 802 713 873 713 m 802 782 q 856 802 835 782 q 878 859 878 822 q 856 915 878 895 q 802 935 835 935 q 746 915 768 935 q 725 859 725 895 q 744 802 725 822 q 802 782 764 782 z "},"ڬ":{"ha":1101,"x_min":90,"x_max":962,"o":"m 397 496 l 463 505 q 414 593 414 537 q 452 685 414 652 q 555 718 491 718 q 647 697 607 718 l 627 635 q 557 652 597 652 q 506 634 526 652 q 485 581 485 617 q 497 540 485 557 q 526 515 509 524 q 594 526 543 519 q 665 533 646 533 l 665 465 q 604 460 654 465 q 531 452 555 455 q 397 432 411 435 l 397 496 m 350 0 q 157 64 224 0 q 90 249 90 129 q 125 436 90 341 l 229 436 q 208 258 208 337 q 245 149 208 189 q 346 109 282 109 l 844 109 l 844 1055 l 962 1055 l 962 0 l 350 0 m 530 889 q 473 911 494 889 q 452 972 452 932 q 473 1034 452 1013 q 530 1056 494 1056 q 588 1033 568 1056 q 608 972 608 1010 q 588 912 608 935 q 530 889 568 889 z "},"ڭ":{"ha":1101,"x_min":90,"x_max":962,"o":"m 397 496 l 463 505 q 414 593 414 537 q 452 685 414 652 q 555 718 491 718 q 647 697 607 718 l 627 635 q 557 652 597 652 q 506 634 526 652 q 485 581 485 617 q 497 540 485 557 q 526 515 509 524 q 594 526 543 519 q 665 533 646 533 l 665 465 q 604 460 654 465 q 531 452 555 455 q 397 432 411 435 l 397 496 m 350 0 q 157 64 224 0 q 90 249 90 129 q 125 436 90 341 l 229 436 q 208 258 208 337 q 245 149 208 189 q 346 109 282 109 l 844 109 l 844 1055 l 962 1055 l 962 0 l 350 0 m 528 993 q 476 1011 496 993 q 456 1069 456 1029 q 476 1128 456 1109 q 528 1146 496 1146 q 578 1127 557 1146 q 600 1069 600 1109 q 578 1011 600 1029 q 528 993 557 993 m 408 806 q 353 825 376 806 q 330 889 330 845 q 353 953 330 933 q 408 972 376 972 q 466 950 446 972 q 486 889 486 927 q 466 828 486 851 q 408 806 446 806 m 648 806 q 591 827 612 806 q 570 889 570 849 q 591 951 570 929 q 648 972 612 972 q 706 950 686 972 q 726 889 726 927 q 706 828 726 851 q 648 806 686 806 z "},"ڮ":{"ha":1101,"x_min":90,"x_max":962,"o":"m 397 496 l 463 505 q 414 593 414 537 q 452 685 414 652 q 555 718 491 718 q 647 697 607 718 l 627 635 q 557 652 597 652 q 506 634 526 652 q 485 581 485 617 q 497 540 485 557 q 526 515 509 524 q 594 526 543 519 q 665 533 646 533 l 665 465 q 604 460 654 465 q 531 452 555 455 q 397 432 411 435 l 397 496 m 350 0 q 157 64 224 0 q 90 249 90 129 q 125 436 90 341 l 229 436 q 208 258 208 337 q 245 149 208 189 q 346 109 282 109 l 844 109 l 844 1055 l 962 1055 l 962 0 l 350 0 m 543 -467 q 492 -449 512 -467 q 471 -390 471 -431 q 492 -332 471 -351 q 543 -314 512 -314 q 594 -332 572 -314 q 615 -390 615 -351 q 594 -449 615 -431 q 543 -467 572 -467 m 424 -297 q 369 -277 391 -297 q 346 -214 346 -258 q 369 -151 346 -170 q 424 -131 391 -131 q 481 -153 460 -131 q 502 -214 502 -176 q 481 -274 502 -252 q 424 -297 461 -297 m 664 -297 q 607 -275 628 -297 q 586 -214 586 -254 q 607 -153 586 -174 q 664 -131 628 -131 q 721 -153 701 -131 q 742 -214 742 -176 q 722 -274 742 -252 q 664 -297 701 -297 z "},"ڰ":{"ha":1122,"x_min":90,"x_max":1018,"o":"m 802 713 q 698 745 739 713 q 650 836 657 777 q 524 673 561 750 l 644 673 q 922 599 826 673 q 1018 385 1018 524 l 1018 0 l 350 0 q 157 64 224 0 q 90 249 90 129 q 98 336 90 284 q 118 436 105 389 l 229 436 q 208 262 208 321 q 245 150 208 191 q 346 109 282 109 l 900 109 l 900 364 q 838 517 900 468 q 644 566 775 566 l 408 566 l 408 679 q 532 863 453 772 q 708 1024 610 954 q 897 1131 805 1095 l 942 1025 q 869 991 891 1003 q 933 942 909 976 q 957 860 957 908 q 915 753 957 794 q 802 713 873 713 m 802 782 q 856 802 835 782 q 878 859 878 822 q 856 915 878 895 q 802 935 835 935 q 746 915 768 935 q 725 859 725 895 q 744 802 725 822 q 802 782 764 782 m 371 871 q 551 1096 416 972 q 820 1275 685 1219 l 860 1182 q 680 1082 774 1149 q 512 936 585 1014 q 408 789 440 858 l 371 871 z "},"ڱ":{"ha":1122,"x_min":90,"x_max":1018,"o":"m 350 0 q 157 64 224 0 q 90 249 90 129 q 98 336 90 284 q 118 436 105 389 l 229 436 q 208 262 208 321 q 245 150 208 191 q 346 109 282 109 l 900 109 l 900 364 q 838 517 900 468 q 644 566 775 566 l 408 566 l 408 679 q 532 863 453 772 q 708 1024 610 954 q 897 1131 805 1095 l 942 1025 q 693 873 816 976 q 524 673 570 771 l 644 673 q 922 599 826 673 q 1018 385 1018 524 l 1018 0 l 350 0 m 371 871 q 551 1096 416 972 q 820 1275 685 1219 l 860 1182 q 680 1082 774 1149 q 512 936 585 1014 q 408 789 440 858 l 371 871 m 443 1121 q 404 1135 420 1121 q 389 1179 389 1149 q 404 1224 389 1210 q 443 1238 420 1238 q 481 1224 465 1238 q 497 1179 497 1210 q 481 1135 497 1149 q 443 1121 465 1121 m 583 1236 q 545 1250 560 1236 q 529 1295 529 1264 q 545 1339 529 1325 q 583 1353 560 1353 q 621 1339 605 1353 q 637 1295 637 1325 q 621 1250 637 1264 q 583 1236 605 1236 z "},"ڲ":{"ha":1122,"x_min":90,"x_max":1018,"o":"m 350 0 q 157 64 224 0 q 90 249 90 129 q 98 336 90 284 q 118 436 105 389 l 229 436 q 208 262 208 321 q 245 150 208 191 q 346 109 282 109 l 900 109 l 900 364 q 838 517 900 468 q 644 566 775 566 l 408 566 l 408 679 q 532 863 453 772 q 708 1024 610 954 q 897 1131 805 1095 l 942 1025 q 693 873 816 976 q 524 673 570 771 l 644 673 q 922 599 826 673 q 1018 385 1018 524 l 1018 0 l 350 0 m 371 871 q 551 1096 416 972 q 820 1275 685 1219 l 860 1182 q 680 1082 774 1149 q 512 936 585 1014 q 408 789 440 858 l 371 871 m 458 -278 q 403 -258 426 -278 q 380 -195 380 -239 q 403 -131 380 -151 q 458 -111 426 -111 q 515 -133 494 -111 q 536 -195 536 -154 q 515 -256 536 -235 q 458 -278 494 -278 m 699 -278 q 642 -256 663 -278 q 621 -195 621 -235 q 641 -133 621 -155 q 699 -111 662 -111 q 756 -134 736 -111 q 777 -195 777 -157 q 756 -255 777 -233 q 699 -278 736 -278 z "},"ڳ":{"ha":1122,"x_min":90,"x_max":1018,"o":"m 350 0 q 157 64 224 0 q 90 249 90 129 q 98 336 90 284 q 118 436 105 389 l 229 436 q 208 262 208 321 q 245 150 208 191 q 346 109 282 109 l 900 109 l 900 364 q 838 517 900 468 q 644 566 775 566 l 408 566 l 408 679 q 532 863 453 772 q 708 1024 610 954 q 897 1131 805 1095 l 942 1025 q 693 873 816 976 q 524 673 570 771 l 644 673 q 922 599 826 673 q 1018 385 1018 524 l 1018 0 l 350 0 m 371 871 q 551 1096 416 972 q 820 1275 685 1219 l 860 1182 q 680 1082 774 1149 q 512 936 585 1014 q 408 789 440 858 l 371 871 m 582 -529 q 525 -507 546 -529 q 504 -446 504 -486 q 525 -385 504 -406 q 582 -363 546 -363 q 639 -385 618 -363 q 660 -446 660 -408 q 640 -506 660 -484 q 582 -529 619 -529 m 582 -278 q 525 -256 546 -278 q 504 -195 504 -235 q 525 -133 504 -155 q 582 -111 545 -111 q 640 -134 619 -111 q 660 -195 660 -157 q 640 -255 660 -233 q 582 -278 619 -278 z "},"ڴ":{"ha":1122,"x_min":90,"x_max":1018,"o":"m 350 0 q 157 64 224 0 q 90 249 90 129 q 98 336 90 284 q 118 436 105 389 l 229 436 q 208 262 208 321 q 245 150 208 191 q 346 109 282 109 l 900 109 l 900 364 q 838 517 900 468 q 644 566 775 566 l 408 566 l 408 679 q 532 863 453 772 q 708 1024 610 954 q 897 1131 805 1095 l 942 1025 q 693 873 816 976 q 524 673 570 771 l 644 673 q 922 599 826 673 q 1018 385 1018 524 l 1018 0 l 350 0 m 371 871 q 551 1096 416 972 q 820 1275 685 1219 l 860 1182 q 680 1082 774 1149 q 512 936 585 1014 q 408 789 440 858 l 371 871 m 444 1121 q 405 1135 420 1121 q 389 1179 389 1149 q 405 1224 389 1210 q 444 1238 420 1238 q 481 1224 465 1238 q 498 1179 498 1210 q 481 1135 498 1149 q 444 1121 465 1121 m 584 1236 q 545 1250 561 1236 q 530 1295 530 1264 q 545 1339 530 1325 q 584 1353 561 1353 q 622 1339 606 1353 q 638 1295 638 1325 q 622 1250 638 1264 q 584 1236 606 1236 m 420 1300 q 381 1314 397 1300 q 366 1358 366 1328 q 381 1403 366 1389 q 420 1417 397 1417 q 458 1403 441 1417 q 474 1358 474 1389 q 458 1314 474 1328 q 420 1300 441 1300 z "},"ڵ":{"ha":954,"x_min":90,"x_max":949,"o":"m 370 -334 q 165 -239 241 -334 q 90 22 90 -144 q 105 196 90 108 q 147 350 120 283 l 262 350 q 215 22 215 230 q 262 -161 215 -96 q 396 -225 310 -225 l 464 -225 q 641 -170 585 -225 q 697 -4 697 -115 l 697 1055 l 815 1055 l 815 5 q 732 -248 815 -163 q 469 -334 648 -334 l 370 -334 m 949 1410 l 796 1133 l 710 1133 l 555 1410 l 664 1410 l 751 1231 l 842 1410 l 949 1410 z "},"ڶ":{"ha":954,"x_min":90,"x_max":829,"o":"m 370 -334 q 165 -239 241 -334 q 90 22 90 -144 q 105 196 90 108 q 147 350 120 283 l 262 350 q 215 22 215 230 q 262 -161 215 -96 q 396 -225 310 -225 l 464 -225 q 641 -170 585 -225 q 697 -4 697 -115 l 697 1055 l 815 1055 l 815 5 q 732 -248 815 -163 q 469 -334 648 -334 l 370 -334 m 751 1141 q 694 1162 715 1141 q 673 1224 673 1184 q 694 1286 673 1264 q 751 1308 715 1308 q 809 1285 789 1308 q 829 1224 829 1262 q 809 1163 829 1186 q 751 1141 789 1141 z "},"ڷ":{"ha":954,"x_min":90,"x_max":882,"o":"m 370 -334 q 165 -239 241 -334 q 90 22 90 -144 q 105 196 90 108 q 147 350 120 283 l 262 350 q 215 22 215 230 q 262 -161 215 -96 q 396 -225 310 -225 l 464 -225 q 641 -170 585 -225 q 697 -4 697 -115 l 697 1055 l 815 1055 l 815 5 q 732 -248 815 -163 q 469 -334 648 -334 l 370 -334 m 743 1299 q 693 1353 693 1299 q 707 1393 693 1380 q 743 1406 722 1406 q 780 1393 764 1406 q 795 1353 795 1380 q 780 1311 795 1324 q 743 1299 764 1299 m 660 1168 q 606 1227 606 1168 q 621 1271 606 1257 q 660 1285 637 1285 q 698 1271 682 1285 q 714 1227 714 1257 q 698 1182 714 1195 q 660 1168 682 1168 m 828 1168 q 774 1227 774 1168 q 789 1271 774 1257 q 828 1285 805 1285 q 866 1271 850 1285 q 882 1227 882 1257 q 866 1182 882 1195 q 828 1168 850 1168 z "},"ڸ":{"ha":954,"x_min":90,"x_max":815,"o":"m 370 -334 q 165 -239 241 -334 q 90 22 90 -144 q 105 196 90 108 q 147 350 120 283 l 262 350 q 215 22 215 230 q 262 -161 215 -96 q 396 -225 310 -225 l 464 -225 q 641 -170 585 -225 q 697 -4 697 -115 l 697 1055 l 815 1055 l 815 5 q 732 -248 815 -163 q 469 -334 648 -334 l 370 -334 m 460 -680 q 410 -626 410 -680 q 424 -586 410 -598 q 460 -573 438 -573 q 496 -586 481 -573 q 511 -626 511 -598 q 496 -667 511 -655 q 460 -680 481 -680 m 376 -560 q 322 -502 322 -560 q 338 -457 322 -471 q 376 -444 353 -444 q 414 -457 398 -444 q 431 -502 431 -471 q 414 -547 431 -534 q 376 -560 398 -560 m 545 -560 q 490 -502 490 -560 q 506 -457 490 -471 q 545 -444 522 -444 q 583 -457 566 -444 q 599 -502 599 -471 q 583 -547 599 -534 q 545 -560 566 -560 z "},"ڹ":{"ha":933,"x_min":90,"x_max":815,"o":"m 370 -334 q 165 -243 239 -334 q 90 1 90 -153 q 147 309 90 168 l 262 309 q 215 9 215 189 q 262 -164 215 -103 q 396 -225 309 -225 l 464 -225 q 641 -170 585 -225 q 697 -4 697 -115 l 697 673 l 815 673 l 815 5 q 732 -248 815 -163 q 469 -334 648 -334 l 370 -334 m 456 674 q 399 696 420 674 q 378 758 378 718 q 398 819 378 798 q 456 841 419 841 q 513 818 493 841 q 534 758 534 795 q 513 697 534 720 q 456 674 493 674 m 449 -611 q 392 -589 413 -611 q 371 -528 371 -568 q 392 -466 371 -488 q 449 -444 412 -444 q 507 -467 486 -444 q 527 -528 527 -490 q 507 -588 527 -566 q 449 -611 486 -611 z "},"ڻ":{"ha":933,"x_min":90,"x_max":815,"o":"m 370 -334 q 165 -243 239 -334 q 90 1 90 -153 q 147 309 90 168 l 262 309 q 215 9 215 189 q 262 -164 215 -103 q 396 -225 309 -225 l 464 -225 q 641 -170 585 -225 q 697 -4 697 -115 l 697 673 l 815 673 l 815 5 q 732 -248 815 -163 q 469 -334 648 -334 l 370 -334 m 307 674 l 328 674 l 328 927 l 383 927 l 383 751 q 426 816 400 791 q 492 841 451 841 q 594 720 594 841 l 594 614 l 307 614 l 307 674 m 538 674 l 538 709 q 526 763 538 745 q 485 781 514 781 q 428 759 452 781 q 383 688 403 737 l 383 674 l 538 674 z "},"ڼ":{"ha":933,"x_min":90,"x_max":815,"o":"m 370 -334 q 165 -243 239 -334 q 90 1 90 -153 q 147 309 90 168 l 262 309 q 215 9 215 189 q 262 -164 215 -103 q 396 -225 309 -225 l 464 -225 q 641 -170 585 -225 q 697 -4 697 -115 l 697 673 l 815 673 l 815 5 q 732 -248 815 -163 q 469 -334 648 -334 l 370 -334 m 456 674 q 399 696 420 674 q 378 758 378 718 q 398 819 378 798 q 456 841 419 841 q 513 818 493 841 q 534 758 534 795 q 513 697 534 720 q 456 674 493 674 m 431 -555 q 320 -516 361 -555 q 279 -409 279 -477 q 321 -302 279 -340 q 431 -263 362 -263 q 543 -303 500 -263 q 586 -408 586 -342 q 543 -515 586 -475 q 431 -555 500 -555 m 431 -485 q 486 -465 464 -485 q 507 -409 507 -446 q 486 -352 507 -372 q 431 -332 464 -332 q 375 -352 397 -332 q 354 -409 354 -372 q 431 -485 354 -485 z "},"ڽ":{"ha":933,"x_min":90,"x_max":815,"o":"m 370 -334 q 165 -243 239 -334 q 90 1 90 -153 q 147 309 90 168 l 262 309 q 215 9 215 189 q 262 -164 215 -103 q 396 -225 309 -225 l 464 -225 q 641 -170 585 -225 q 697 -4 697 -115 l 697 673 l 815 673 l 815 5 q 732 -248 815 -163 q 469 -334 648 -334 l 370 -334 m 427 695 q 375 713 395 695 q 355 772 355 731 q 375 830 355 812 q 427 848 395 848 q 477 830 456 848 q 498 772 498 811 q 477 713 498 731 q 427 695 456 695 m 307 508 q 252 528 275 508 q 229 591 229 547 q 252 655 229 635 q 307 675 275 675 q 365 652 345 675 q 385 591 385 629 q 365 531 385 553 q 307 508 345 508 m 547 508 q 490 530 511 508 q 469 591 469 551 q 490 653 469 631 q 547 675 511 675 q 605 652 585 675 q 625 591 625 629 q 605 531 625 553 q 547 508 585 508 z "},"ڿ":{"ha":895,"x_min":62,"x_max":804,"o":"m 730 17 q 667 75 693 47 q 621 139 640 102 q 289 3 388 76 q 189 -167 189 -71 q 378 -339 189 -339 l 351 -446 q 140 -375 217 -446 q 62 -178 62 -305 q 113 -17 62 -90 q 273 117 164 56 q 583 237 382 178 q 557 363 572 274 q 489 526 538 473 q 354 579 439 579 q 235 559 304 579 q 111 510 165 539 l 62 606 q 197 664 116 640 q 355 688 277 688 q 667 395 621 688 q 716 218 684 286 q 804 113 749 150 l 730 17 m 359 806 q 302 827 323 806 q 281 889 281 849 q 302 951 281 929 q 359 972 323 972 q 417 950 397 972 q 437 889 437 927 q 417 828 437 851 q 359 806 397 806 m 558 -400 q 507 -382 527 -400 q 486 -323 486 -364 q 507 -266 486 -284 q 558 -248 527 -248 q 609 -266 587 -248 q 630 -323 630 -284 q 609 -382 630 -364 q 558 -400 587 -400 m 439 -231 q 384 -211 406 -231 q 361 -147 361 -191 q 384 -84 361 -104 q 439 -64 406 -64 q 496 -87 475 -64 q 517 -147 517 -109 q 496 -208 517 -185 q 439 -231 476 -231 m 679 -231 q 622 -209 643 -231 q 601 -147 601 -187 q 622 -86 601 -108 q 679 -64 643 -64 q 736 -87 715 -64 q 757 -147 757 -109 q 736 -208 757 -185 q 679 -231 716 -231 z "},"ۄ":{"ha":779,"x_min":98,"x_max":661,"o":"m 359 -357 l 411 -313 q 334 -270 361 -303 q 306 -183 306 -237 q 341 -85 306 -119 q 443 -52 376 -52 q 543 -85 506 -52 l 545 -77 l 545 0 l 408 0 q 179 81 260 0 q 98 317 98 163 q 202 577 98 480 q 479 673 306 673 l 661 673 l 661 -61 q 608 -251 661 -160 q 436 -444 555 -342 l 359 -357 m 543 109 l 543 566 l 484 566 q 291 500 360 566 q 222 318 222 435 q 270 159 222 210 q 412 109 317 109 l 543 109 m 443 -245 q 487 -229 469 -245 q 505 -183 505 -212 q 487 -135 505 -150 q 443 -121 468 -121 q 398 -138 416 -121 q 380 -183 380 -156 q 396 -229 380 -212 q 443 -245 412 -245 z "},"ۅ":{"ha":779,"x_min":98,"x_max":661,"o":"m 241 -138 q 302 -98 278 -109 q 354 -87 326 -87 q 440 -106 388 -87 q 534 -138 507 -132 q 545 -68 545 -101 l 545 0 l 408 0 q 179 81 260 0 q 98 317 98 163 q 202 577 98 480 q 479 673 306 673 l 661 673 l 661 -61 q 608 -251 661 -160 q 436 -444 555 -342 l 359 -357 q 501 -210 460 -273 l 462 -195 q 399 -174 421 -179 q 353 -168 377 -168 q 277 -189 325 -168 l 241 -138 m 543 109 l 543 566 l 484 566 q 291 500 360 566 q 222 318 222 435 q 270 159 222 210 q 412 109 317 109 l 543 109 z "},"ۍ":{"ha":1331,"x_min":28,"x_max":1282,"o":"m 419 279 q 380 9 380 157 q 427 -164 380 -103 q 561 -225 473 -225 l 833 -225 q 1002 -186 940 -225 q 1064 -83 1064 -148 q 1047 -35 1064 -58 q 1006 9 1031 -12 q 952 48 981 30 q 897 82 922 66 q 781 160 814 132 q 730 220 747 189 q 713 288 713 251 q 774 463 713 371 q 927 614 836 555 q 1103 673 1019 673 q 1195 655 1135 673 q 1282 618 1255 636 l 1232 525 q 1174 542 1212 535 q 1107 549 1137 549 q 995 508 1058 549 q 890 413 931 468 q 850 311 850 359 q 874 261 850 288 q 954 201 899 235 q 1100 98 1057 139 q 1166 11 1143 58 q 1190 -86 1190 -37 q 1097 -268 1190 -202 q 833 -334 1004 -334 l 534 -334 q 330 -243 405 -334 q 256 1 256 -153 q 265 125 256 74 q 297 235 274 177 l 50 164 l 28 233 l 367 368 l 419 279 z "},"ۖ":{"ha":0,"x_min":-313,"x_max":321,"o":"m -207 807 q -262 760 -262 807 q -229 717 -262 717 l 31 717 l 31 673 l -229 673 q -289 694 -265 673 q -313 760 -313 715 q -282 828 -313 806 q -201 850 -252 850 l -135 850 l -135 1196 l -85 1196 l -85 850 l -7 850 l -7 1026 l 40 1026 l 40 958 q 193 1048 99 1048 q 289 1015 257 1048 q 321 907 321 981 l 321 807 l -207 807 m 273 850 l 273 905 q 251 981 273 957 q 183 1004 229 1004 q 111 982 143 1004 q 40 897 78 960 l 40 850 l 273 850 z "},"ۗ":{"ha":0,"x_min":-271,"x_max":279,"o":"m -93 1196 l -43 1196 l -43 850 l 83 850 q 62 888 70 865 q 54 935 54 911 q 96 1039 54 1001 q 207 1076 138 1076 l 279 1076 l 279 807 l -165 807 q -221 760 -221 807 q -187 717 -221 717 l 72 717 l 72 673 l -187 673 q -247 694 -223 673 q -271 760 -271 715 q -240 828 -271 806 q -160 850 -210 850 l -93 850 l -93 1196 m 232 850 l 232 1034 l 208 1034 q 132 1008 160 1034 q 104 935 104 983 q 179 850 104 850 l 232 850 m 140 1129 q 109 1162 109 1129 q 140 1196 109 1196 q 162 1188 153 1196 q 171 1162 171 1180 q 162 1137 171 1145 q 140 1129 153 1129 m 236 1129 q 204 1162 204 1129 q 236 1196 204 1196 q 267 1162 267 1196 q 236 1129 267 1129 z "},"ۘ":{"ha":0,"x_min":-142,"x_max":146,"o":"m -139 673 q -142 676 -142 673 l -142 715 q -139 718 -142 718 l -69 718 q -92 812 -92 767 q -71 901 -92 859 q 31 937 -29 937 q 115 904 84 937 q 146 815 146 871 q 111 712 146 751 q 20 673 77 673 l -139 673 m -41 822 q -21 718 -41 770 l 20 718 q 96 815 96 718 q 77 872 96 849 q 31 896 58 896 q -35 872 -5 896 q -41 822 -41 853 z "},"ۙ":{"ha":0,"x_min":-143,"x_max":155,"o":"m -143 717 l -20 717 l -90 1021 l -39 1021 l 32 717 l 47 717 q 107 782 107 717 l 107 1096 l 155 1096 l 155 775 q 128 702 155 730 q 53 673 101 673 l -143 673 l -143 717 z "},"ۚ":{"ha":0,"x_min":-123,"x_max":174,"o":"m 144 859 q 100 907 111 886 q -34 851 4 881 q -72 785 -72 822 q -51 732 -72 748 q 12 717 -29 717 q 94 725 47 717 l 100 686 q -8 673 41 673 q -92 701 -60 673 q -123 781 -123 728 q -77 873 -123 833 q 85 947 -31 913 l 75 997 q -7 1083 60 1083 q -104 1055 -53 1083 l -123 1095 q -66 1118 -98 1109 q -5 1126 -33 1126 q 118 1010 100 1126 q 174 897 131 925 l 144 859 m 18 757 q -12 790 -12 757 q 18 823 -12 823 q 40 815 31 823 q 50 790 50 808 q 40 765 50 772 q 18 757 31 757 z "},"ۛ":{"ha":0,"x_min":-138,"x_max":139,"o":"m 0 806 q -50 861 -50 806 q -36 901 -50 888 q 0 913 -22 913 q 36 901 21 913 q 52 861 52 888 q 36 819 52 831 q 0 806 21 806 m -83 676 q -138 734 -138 676 q -122 779 -138 765 q -83 793 -106 793 q -45 779 -62 793 q -29 734 -29 765 q -45 689 -29 703 q -83 676 -62 676 m 85 676 q 31 734 31 676 q 46 779 31 765 q 85 793 62 793 q 123 779 106 793 q 139 734 139 765 q 123 689 139 703 q 85 676 106 676 z "},"ۜ":{"ha":0,"x_min":-269,"x_max":336,"o":"m 256 807 q 165 846 201 807 q 85 807 137 807 l 20 807 q -118 673 20 673 l -158 673 q -239 710 -209 673 q -269 817 -269 747 q -248 947 -269 894 l -201 947 q -220 817 -220 902 q -202 745 -220 772 q -147 718 -185 718 l -121 718 q -50 740 -72 718 q -28 806 -28 761 l -28 1034 l 20 1034 l 20 851 l 81 851 q 122 869 108 851 q 136 916 136 888 l 136 1034 l 183 1034 l 183 893 q 211 862 195 872 q 256 851 227 851 l 289 851 l 289 1076 l 336 1076 l 336 807 l 256 807 z "},"۟":{"ha":0,"x_min":-78,"x_max":78,"o":"m 0 676 q -57 698 -36 676 q -78 760 -78 720 q -57 821 -78 800 q 0 843 -37 843 q 58 820 37 843 q 78 760 78 798 q 58 699 78 722 q 0 676 37 676 z "},"ۡ":{"ha":0,"x_min":-150,"x_max":142,"o":"m -147 673 q -150 676 -150 673 l -150 715 q -147 718 -150 718 l 92 718 q 57 819 71 739 q 33 886 49 867 q -14 905 18 905 q -94 884 -51 905 l -114 922 q -12 949 -68 949 q 64 921 37 949 q 100 832 92 894 q 142 717 116 740 l 142 673 l -147 673 z "},"ۢ":{"ha":0,"x_min":-134,"x_max":154,"o":"m -47 851 q -87 811 -87 851 l -87 673 l -134 673 l -134 819 q -115 876 -134 855 q -66 896 -96 896 l -61 896 q -83 990 -83 945 q -62 1079 -83 1037 q 39 1116 -20 1116 q 122 1083 91 1116 q 154 993 154 1050 q 119 890 154 928 q 28 851 85 851 l -47 851 m -33 1000 q -12 896 -33 949 l 28 896 q 87 923 69 896 q 104 993 104 951 q 85 1052 104 1029 q 39 1074 65 1074 q -26 1050 3 1074 q -33 1000 -33 1031 z "},"ۣ":{"ha":0,"x_min":-269,"x_max":336,"o":"m 256 -200 q 200 -188 221 -200 q 165 -161 180 -176 q 85 -200 135 -200 l 20 -200 q -118 -334 20 -334 l -158 -334 q -239 -297 -209 -334 q -269 -191 -269 -260 q -248 -60 -269 -113 l -201 -60 q -220 -191 -220 -108 q -202 -262 -220 -235 q -147 -289 -185 -289 l -121 -289 q -50 -268 -72 -289 q -28 -201 -28 -246 l -28 26 l 20 26 l 20 -155 l 81 -155 q 122 -137 108 -155 q 136 -92 136 -119 l 136 26 l 183 26 l 183 -114 q 211 -144 195 -134 q 256 -155 227 -155 l 289 -155 l 289 69 l 336 69 l 336 -200 l 256 -200 z "},"ۤ":{"ha":0,"x_min":-86,"x_max":89,"o":"m -86 789 q -35 846 -79 846 q 5 834 -21 846 q 39 822 31 822 q 55 828 50 822 q 64 847 60 833 l 89 847 q 74 806 87 821 q 39 790 62 790 q 0 802 24 790 q -35 814 -25 814 q -52 808 -46 814 q -61 789 -57 802 l -86 789 z "},"ۥ":{"ha":285,"x_min":28,"x_max":257,"o":"m 127 673 q 28 703 70 673 l 50 741 q 129 718 87 718 q 189 738 168 718 q 210 791 210 758 l 210 807 l 155 807 q 66 838 100 807 q 32 935 32 869 q 73 1038 32 1000 q 183 1076 113 1076 l 257 1076 l 257 794 q 224 706 257 739 q 127 673 191 673 m 210 851 l 210 1034 l 184 1034 q 106 1006 132 1034 q 81 935 81 979 q 99 871 81 890 q 157 851 118 851 l 210 851 z "},"ۦ":{"ha":399,"x_min":28,"x_max":371,"o":"m 111 673 q 52 691 75 673 q 28 746 28 708 q 50 800 28 777 q 139 848 73 823 q 210 888 196 872 q 224 940 224 905 l 224 962 l 273 962 l 273 940 q 265 889 273 909 q 238 854 256 869 q 168 817 220 840 q 94 780 110 793 q 78 746 78 767 q 88 725 78 732 q 111 718 98 718 l 371 718 l 371 673 l 111 673 z "},"ۧ":{"ha":0,"x_min":-205,"x_max":138,"o":"m -122 673 q -182 691 -158 673 q -205 746 -205 708 q -183 800 -205 777 q -94 848 -161 823 q -23 888 -37 872 q -9 940 -9 905 l -9 962 l 40 962 l 40 940 q 32 889 40 909 q 5 854 23 869 q -65 817 -13 840 q -139 780 -123 793 q -155 746 -155 767 q -145 725 -155 732 q -122 718 -136 718 l 138 718 l 138 673 l -122 673 z "},"ۨ":{"ha":0,"x_min":-132,"x_max":157,"o":"m -21 673 q -102 708 -71 673 q -132 808 -132 743 q -110 930 -132 874 l -64 930 q -82 811 -82 885 q -9 718 -82 718 l 17 718 q 88 740 66 718 q 110 806 110 761 l 110 1076 l 157 1076 l 157 810 q 124 708 157 743 q 20 673 92 673 l -21 673 m 14 1076 q -9 1085 0 1076 q -18 1109 -18 1093 q 14 1143 -18 1143 q 36 1135 26 1143 q 45 1109 45 1127 q 36 1085 45 1093 q 14 1076 26 1076 z "},"۪":{"ha":0,"x_min":-114,"x_max":114,"o":"m 114 -332 l 0 -446 l -114 -332 l 0 -218 l 114 -332 m 71 -332 l 0 -261 l -71 -332 l 0 -403 l 71 -332 z "},"۫":{"ha":0,"x_min":-114,"x_max":114,"o":"m 114 785 l 0 671 l -114 785 l 0 899 l 114 785 m 71 785 l 0 854 l -71 785 l 0 714 l 71 785 z "},"ۭ":{"ha":0,"x_min":-134,"x_max":154,"o":"m -47 -334 q -87 -374 -87 -334 l -87 -511 l -134 -511 l -134 -366 q -115 -309 -134 -330 q -66 -289 -96 -289 l -61 -289 q -83 -195 -83 -237 q -62 -106 -83 -148 q 39 -69 -20 -69 q 122 -102 91 -69 q 154 -192 154 -135 q 119 -295 154 -256 q 28 -334 85 -334 l -47 -334 m -33 -184 q -12 -289 -33 -233 l 28 -289 q 87 -261 69 -289 q 104 -192 104 -234 q 85 -133 104 -155 q 39 -111 65 -111 q -26 -135 3 -111 q -33 -184 -33 -154 z "},"ۻ":{"ha":1622,"x_min":90,"x_max":1518,"o":"m 370 -334 q 165 -239 241 -334 q 90 22 90 -144 q 105 196 90 108 q 147 350 120 283 l 262 350 q 215 22 215 230 q 262 -161 215 -96 q 396 -225 310 -225 l 464 -225 q 641 -170 585 -225 q 697 -4 697 -115 l 697 673 l 815 673 l 815 375 q 979 609 880 530 q 1200 688 1077 688 q 1437 602 1357 688 q 1518 335 1518 517 l 1518 0 l 815 0 q 732 -251 815 -168 q 469 -334 648 -334 l 370 -334 m 1400 109 l 1400 329 q 1344 517 1400 457 q 1175 578 1289 578 q 815 225 960 578 l 815 109 l 1400 109 m 1158 806 q 1101 827 1122 806 q 1080 889 1080 849 q 1101 951 1080 929 q 1158 972 1122 972 q 1216 950 1196 972 q 1236 889 1236 927 q 1216 828 1236 851 q 1158 806 1196 806 m 1164 -372 q 1107 -350 1128 -372 q 1086 -288 1086 -328 q 1106 -227 1086 -248 q 1164 -205 1127 -205 q 1221 -228 1201 -205 q 1242 -288 1242 -250 q 1221 -349 1242 -326 q 1164 -372 1201 -372 z "},"ۼ":{"ha":743,"x_min":90,"x_max":681,"o":"m 379 -446 q 168 -375 245 -446 q 90 -178 90 -305 q 269 96 90 -24 q 146 372 146 203 q 190 540 146 469 q 312 649 234 611 q 488 688 391 688 q 598 676 547 688 q 681 647 648 664 l 643 543 q 481 579 557 579 q 327 526 381 579 q 272 374 272 473 q 295 242 272 302 q 357 147 317 182 q 596 241 473 205 l 629 139 q 409 59 507 109 q 263 -48 311 9 q 216 -167 216 -105 q 269 -298 216 -256 q 429 -339 321 -339 q 633 -317 499 -339 l 648 -412 q 492 -439 550 -433 q 379 -446 435 -446 m 460 806 q 403 827 424 806 q 382 889 382 849 q 402 951 382 929 q 460 972 423 972 q 517 950 497 972 q 538 889 538 927 q 517 828 538 851 q 460 806 497 806 m 460 -237 q 403 -215 424 -237 q 382 -153 382 -193 q 402 -92 382 -113 q 460 -70 423 -70 q 517 -93 497 -70 q 538 -153 538 -115 q 517 -214 538 -191 q 460 -237 497 -237 z "},"۽":{"ha":681,"x_min":90,"x_max":625,"o":"m 90 89 q 135 97 119 92 l 214 111 q 150 189 175 137 q 125 301 125 240 q 160 445 125 385 q 261 536 196 505 q 412 568 327 568 q 581 528 512 568 l 550 424 q 415 460 481 460 q 292 417 334 460 q 250 293 250 374 q 274 198 250 241 q 338 136 298 155 l 368 140 q 625 167 578 167 l 625 54 q 358 28 557 54 q 90 -12 159 3 l 90 89 m 424 -119 l 503 -119 l 503 -389 l 424 -389 l 424 -119 m 254 -119 l 333 -119 l 333 -389 l 254 -389 l 254 -119 z "},"۾":{"ha":901,"x_min":90,"x_max":811,"o":"m 306 0 q 207 -102 207 0 l 207 -444 l 90 -444 l 90 -81 q 113 22 90 -20 q 173 86 135 64 q 260 109 212 109 l 269 109 q 218 346 218 241 q 268 567 218 469 q 385 635 319 610 q 522 660 451 660 q 675 622 609 660 q 776 513 741 583 q 811 353 811 442 q 771 164 811 243 q 660 42 732 85 q 494 0 587 0 l 306 0 m 343 370 q 354 243 343 305 q 396 109 366 181 l 494 109 q 637 172 587 109 q 686 354 686 235 q 638 497 686 441 q 522 553 591 553 q 359 496 435 553 q 346 436 348 467 q 343 370 343 406 m 534 -119 l 612 -119 l 612 -389 l 534 -389 l 534 -119 m 364 -119 l 443 -119 l 443 -389 l 364 -389 l 364 -119 z "},"؀":{"ha":1261,"x_min":47,"x_max":1192,"o":"m 1192 -269 l 131 -269 q 47 -160 47 -269 l 920 -160 q 993 75 920 -20 l 1097 14 q 1039 -160 1039 -75 l 1192 -160 l 1192 -269 z "},"؁":{"ha":2108,"x_min":57,"x_max":2032,"o":"m 2032 -90 q 1993 -197 2032 -151 q 1870 -288 1954 -244 l 1830 -225 q 1901 -175 1875 -201 q 1927 -132 1927 -149 q 1919 -111 1927 -119 q 1896 -103 1910 -103 q 1657 -146 1830 -103 q 1415 -204 1445 -199 q 925 -265 1090 -265 q 812 -184 858 -265 q 746 -243 787 -222 q 661 -265 705 -265 q 534 -187 606 -265 q 470 -124 488 -138 q 440 -110 453 -110 q 399 -126 418 -110 q 342 -190 379 -142 q 211 -271 282 -271 q 92 -232 127 -271 q 57 -114 57 -193 q 75 0 57 -63 l 174 0 q 155 -106 155 -66 q 215 -161 155 -161 q 261 -145 241 -161 q 311 -81 281 -129 q 368 -20 336 -40 q 446 0 400 0 q 568 -77 511 0 q 621 -138 600 -120 q 664 -155 642 -155 q 729 -132 706 -155 q 753 -66 753 -109 l 753 0 l 864 0 l 864 -66 q 889 -133 864 -111 q 951 -155 915 -155 q 1394 -97 1096 -155 l 1681 -38 q 1919 0 1862 0 q 2000 -26 1968 0 q 2032 -90 2032 -53 z "},"؂":{"ha":1622,"x_min":62,"x_max":1622,"o":"m 1622 -161 q 1604 -245 1622 -220 q 1539 -271 1585 -271 l 401 -271 q 144 -215 225 -271 q 62 -47 62 -159 q 121 89 62 37 q 273 140 180 140 q 475 60 391 140 q 593 -161 559 -21 l 1622 -161 m 273 26 q 183 -54 183 26 q 257 -132 183 -104 q 471 -161 331 -160 q 389 -18 438 -63 q 273 26 340 26 z "},"؃":{"ha":1247,"x_min":28,"x_max":1164,"o":"m 1046 -161 l 1046 -100 q 990 89 1046 28 q 821 149 935 149 q 461 -77 635 149 l 461 -161 l 1046 -161 m 343 -161 l 343 216 l 461 216 l 461 53 q 846 258 651 258 q 1083 173 1003 258 q 1164 -94 1164 87 l 1164 -269 l 111 -269 q 28 -161 28 -269 l 343 -161 z "},"؎":{"ha":1622,"x_min":62,"x_max":1622,"o":"m 1622 110 q 1604 26 1622 52 q 1539 0 1585 0 l 401 0 q 144 56 225 0 q 62 224 62 111 q 122 360 62 309 q 273 411 181 411 q 475 331 391 411 q 593 110 559 252 l 1622 110 m 273 297 q 183 216 183 297 q 256 139 183 166 q 471 110 328 111 q 390 252 439 206 q 273 297 342 297 z "},"؏":{"ha":888,"x_min":90,"x_max":825,"o":"m 736 184 q 444 55 553 138 q 325 -131 334 -27 q 590 -31 470 -31 q 707 -56 652 -31 q 794 -124 762 -81 q 825 -225 825 -168 q 745 -385 825 -326 q 532 -443 664 -443 q 369 -409 445 -443 q 248 -315 293 -375 l 154 -406 l 90 -339 q 205 -227 151 -274 q 197 -161 197 -195 q 382 138 197 6 q 281 248 309 195 q 253 375 253 302 q 297 543 253 471 q 419 652 341 614 q 595 690 498 690 q 705 679 654 690 q 787 650 755 667 l 750 546 q 587 582 664 582 q 434 528 488 582 q 379 376 379 475 q 399 272 379 315 q 467 191 420 229 q 703 288 572 248 l 736 184 m 585 -134 q 463 -161 523 -134 q 340 -237 404 -189 q 536 -336 382 -336 q 666 -308 616 -336 q 715 -228 715 -279 q 680 -159 715 -184 q 585 -134 644 -134 z "},"ؐ":{"ha":0,"x_min":-160,"x_max":135,"o":"m -160 1008 q -131 1088 -131 1051 l -131 1206 l -83 1219 l -83 1152 q -30 1210 -58 1192 q 41 1227 -2 1227 q 110 1199 84 1227 q 135 1121 135 1170 l 135 1055 l -83 1055 q -136 986 -101 1015 l -160 1008 m 87 1099 l 87 1120 q 73 1167 87 1150 q 32 1183 58 1183 q -32 1165 -6 1183 q -83 1104 -58 1146 l -83 1099 l 87 1099 z "},"ؑ":{"ha":0,"x_min":-135,"x_max":129,"o":"m -58 1096 q -19 1093 -43 1093 l 0 1093 q -29 1149 -29 1112 q -4 1208 -29 1188 q 60 1227 22 1227 q 119 1215 89 1227 l 106 1175 q 61 1185 85 1185 q 30 1174 43 1185 q 17 1139 17 1162 q 41 1099 17 1107 q 129 1125 87 1104 l 129 1080 q 62 1062 106 1071 q -18 1053 17 1053 q -65 1063 -46 1053 q -111 1004 -79 1029 l -135 1026 q -106 1105 -106 1069 l -106 1136 l -58 1150 l -58 1096 z "},"ؒ":{"ha":0,"x_min":-224,"x_max":176,"o":"m 36 966 q -7 1014 7 989 q -138 958 -102 987 q -174 893 -174 929 q -168 863 -174 873 l -212 838 q -224 889 -224 859 q -177 984 -224 943 q -26 1059 -130 1026 l -30 1070 q -58 1145 -43 1126 q -107 1164 -74 1164 q -204 1136 -153 1164 l -224 1175 q -166 1199 -199 1190 q -107 1207 -134 1207 q -22 1178 -54 1207 q 18 1096 9 1148 q 38 1038 24 1057 q 72 1006 52 1018 l 36 966 m 77 847 q 21 863 50 847 l 35 900 q 77 890 58 890 q 115 911 102 890 q 129 965 129 932 l 129 1187 l 176 1202 l 176 968 q 151 880 176 913 q 77 847 125 847 z "},"ؓ":{"ha":0,"x_min":-215,"x_max":199,"o":"m -215 925 q -186 1004 -186 968 l -186 1122 l -139 1136 l -139 1068 q -83 1128 -112 1111 q -14 1145 -54 1145 q 54 1116 29 1145 q 79 1038 79 1086 l 79 972 l -139 972 q -192 903 -157 931 l -215 925 m 32 1015 l 32 1036 q 17 1083 32 1067 q -24 1100 2 1100 q -88 1081 -62 1100 q -139 1021 -114 1063 l -139 1015 l 32 1015 m 98 847 q 43 863 72 847 l 57 900 q 98 890 81 890 q 138 911 124 890 q 151 965 151 932 l 151 1187 l 199 1202 l 199 968 q 173 880 199 913 q 98 847 148 847 m -20 1193 q -42 1201 -32 1193 q -52 1225 -52 1208 q -20 1258 -52 1258 q 11 1225 11 1258 q 1 1201 11 1208 q -20 1193 -8 1193 z "},"ؔ":{"ha":0,"x_min":-195,"x_max":171,"o":"m -182 961 l -195 990 q -84 1011 -134 1000 q -14 1036 -35 1023 q 7 1071 7 1050 l 7 1109 l 49 1124 l 49 1089 q 54 1060 49 1072 q 83 1047 60 1047 q 115 1059 107 1047 q 123 1097 123 1070 l 123 1132 l 171 1146 l 171 1089 q 94 1000 171 1000 q 55 1008 69 1000 q 29 1029 41 1016 q -7 996 12 1006 q -57 979 -25 986 q -182 961 -90 972 z "},"ٗ":{"ha":0,"x_min":-71,"x_max":94,"o":"m 71 1136 l 94 1101 l 87 1099 l 63 1084 q -4 1031 14 1054 q 51 997 30 1020 q 72 949 72 974 q 48 896 72 919 q -8 873 24 873 q -53 897 -36 873 q -71 956 -71 921 q -53 1027 -71 990 q 3 1092 -36 1064 l 20 1105 q 71 1136 44 1122 m -25 997 q -36 960 -36 979 q -26 928 -36 941 q -1 914 -16 914 q 21 925 11 914 q 32 946 32 937 q 16 974 32 960 q -25 997 1 988 z "},"٘":{"ha":0,"x_min":-83,"x_max":69,"o":"m 69 1040 q 50 938 69 970 q -8 905 31 905 q -63 932 -43 905 q -83 1011 -83 958 l -54 1011 q -8 946 -54 946 q 25 967 14 946 q 36 1039 36 989 l 69 1040 z "},"ۮ":{"ha":707,"x_min":60,"x_max":644,"o":"m 62 109 l 525 109 q 421 426 498 295 q 203 653 345 557 l 248 758 q 508 511 408 675 q 644 106 609 347 l 644 0 l 62 0 l 62 109 m 60 872 l 212 1149 l 271 1149 l 425 872 l 330 872 l 243 1051 l 153 872 l 60 872 z "},"ۯ":{"ha":452,"x_min":-56,"x_max":447,"o":"m 86 -334 q -56 -294 20 -334 l -20 -201 q 36 -221 14 -216 q 83 -225 58 -225 q 181 -174 146 -225 q 216 -40 216 -123 l 216 673 l 334 673 l 334 -33 q 270 -254 334 -174 q 86 -334 206 -334 m 82 776 l 235 1053 l 293 1053 l 447 776 l 353 776 l 265 955 l 175 776 l 82 776 z "},"ۿ":{"ha":1182,"x_min":91,"x_max":1064,"o":"m 646 109 l 646 271 q 607 420 646 373 q 489 468 567 468 q 379 425 418 468 q 339 302 339 382 q 393 161 339 214 q 532 109 446 109 l 646 109 m 98 0 q 91 7 91 0 l 91 103 q 98 109 91 109 l 313 109 q 242 189 269 136 q 216 307 216 242 q 253 456 216 392 q 354 555 290 520 q 494 590 418 590 q 764 292 764 590 l 764 109 l 946 109 l 946 380 q 861 659 946 570 q 592 749 775 749 q 335 708 457 749 l 303 815 q 592 859 433 859 q 941 736 819 859 q 1064 392 1064 614 l 1064 0 l 98 0 m 437 972 l 590 1249 l 648 1249 l 802 972 l 708 972 l 621 1151 l 530 972 l 437 972 z "},"ﷲ":{"ha":2179,"x_min":90,"x_max":2041,"o":"m 443 0 q 183 84 276 0 q 90 321 90 169 q 193 579 90 485 q 471 673 296 673 l 562 673 l 562 761 l 681 761 l 681 109 l 1008 109 l 1008 847 l 1132 847 l 1132 109 l 1482 109 l 1482 847 l 1605 847 l 1605 0 l 443 0 m 562 109 l 562 566 l 475 566 q 282 502 350 566 q 214 322 214 437 q 273 163 214 218 q 440 109 332 109 l 562 109 m 1917 1055 l 2041 1055 l 2041 0 l 1917 0 l 1917 1055 m 945 908 q 861 943 890 908 q 831 1043 831 977 l 831 1131 l 903 1131 l 903 1055 q 914 999 903 1018 q 958 979 925 979 q 1019 1043 1019 979 l 1019 1165 l 1084 1165 l 1084 1071 q 1097 1021 1084 1034 q 1137 1007 1110 1007 q 1188 1025 1175 1007 q 1202 1083 1202 1042 l 1202 1186 l 1274 1186 l 1274 1071 q 1243 971 1274 1006 q 1154 936 1213 936 q 1057 978 1090 936 q 945 908 1024 908 m 1013 1466 l 1092 1466 l 1092 1236 l 1013 1236 l 1013 1466 z "},"﷼":{"ha":2228,"x_min":90,"x_max":2110,"o":"m 370 -334 q 165 -239 241 -334 q 90 22 90 -144 q 105 196 90 108 q 147 350 120 283 l 262 350 q 215 22 215 230 q 262 -161 215 -96 q 396 -225 310 -225 l 464 -225 q 641 -170 585 -225 q 697 -4 697 -115 l 697 1055 l 815 1055 l 815 5 q 732 -248 815 -163 q 469 -334 648 -334 l 370 -334 m 1061 1055 l 1185 1055 l 1185 109 l 1546 109 l 1546 673 l 1670 673 l 1670 0 l 1061 0 l 1061 1055 m 1862 -334 q 1721 -294 1797 -334 l 1757 -201 q 1860 -225 1809 -225 q 1957 -175 1921 -225 q 1993 -40 1993 -125 l 1993 673 l 2110 673 l 2110 -33 q 2046 -254 2110 -174 q 1862 -334 1982 -334 m 1314 -278 q 1257 -256 1278 -278 q 1236 -195 1236 -235 q 1257 -133 1236 -155 q 1314 -111 1277 -111 q 1371 -134 1351 -111 q 1392 -195 1392 -157 q 1371 -255 1392 -233 q 1314 -278 1351 -278 m 1554 -278 q 1499 -258 1522 -278 q 1476 -195 1476 -239 q 1499 -131 1476 -151 q 1554 -111 1522 -111 q 1611 -133 1590 -111 q 1632 -195 1632 -154 q 1611 -256 1632 -235 q 1554 -278 1590 -278 z "},"؋":{"ha":812,"x_min":-14,"x_max":694,"o":"m 576 109 l 576 566 l 517 566 q 325 501 393 566 q 256 319 256 437 q 446 109 256 109 l 576 109 m -7 0 q -14 7 -14 0 l -14 103 q -7 109 -14 109 l 204 109 q 151 205 169 149 q 132 318 132 262 q 234 577 132 481 q 513 673 336 673 l 694 673 l 694 0 l -7 0 m 431 806 q 374 827 395 806 q 353 889 353 849 q 373 951 353 929 q 431 972 394 972 q 488 950 468 972 q 509 889 509 927 q 488 828 509 851 q 431 806 468 806 m 382 -121 l 461 -121 l 461 -391 l 382 -391 l 382 -121 z "},"؞":{"ha":452,"x_min":28,"x_max":424,"o":"m 225 378 q 174 396 194 378 q 153 455 153 414 q 174 513 153 495 q 225 532 194 532 q 276 513 254 532 q 297 455 297 494 q 276 396 297 414 q 225 378 254 378 m 106 191 q 51 211 73 191 q 28 275 28 231 q 51 338 28 319 q 106 358 73 358 q 163 335 143 358 q 184 275 184 313 q 163 214 184 237 q 106 191 143 191 m 346 191 q 289 213 310 191 q 268 275 268 235 q 289 336 268 315 q 346 358 309 358 q 404 335 383 358 q 424 275 424 313 q 404 214 424 237 q 346 191 383 191 z "},"ٙ":{"ha":0,"x_min":-144,"x_max":147,"o":"m 147 991 l 92 882 l -144 882 l -96 991 l 147 991 z "},"ٚ":{"ha":0,"x_min":-196,"x_max":197,"o":"m 197 966 l 45 690 l -41 690 l -196 966 l -87 966 l 0 787 l 90 966 l 197 966 z "},"ٛ":{"ha":0,"x_min":-183,"x_max":182,"o":"m -183 724 l -31 1001 l 28 1001 l 182 724 l 87 724 l 0 903 l -90 724 l -183 724 z "},"ٜ":{"ha":0,"x_min":-78,"x_max":78,"o":"m 0 -55 q -57 -33 -36 -55 q -78 28 -78 -12 q -57 90 -78 68 q 0 112 -37 112 q 58 89 37 112 q 78 28 78 66 q 58 -32 78 -9 q 0 -55 37 -55 z "},"ٝ":{"ha":0,"x_min":-204,"x_max":204,"o":"m 62 818 q -69 847 -7 818 q -168 924 -131 876 q -204 1021 -204 972 q -171 1100 -204 1069 q -85 1131 -138 1131 q 5 1099 -29 1131 q 40 1015 40 1068 q -4 897 40 954 q 65 888 24 888 q 164 922 113 888 l 204 864 q 62 818 140 818 m -65 921 q -31 1008 -31 966 q -46 1050 -31 1037 q -82 1064 -61 1064 q -118 1050 -104 1064 q -132 1015 -132 1037 q -117 966 -132 991 q -65 921 -102 941 z "},"ٞ":{"ha":0,"x_min":-172,"x_max":175,"o":"m 175 1006 l 119 896 l -172 785 l -123 895 l 175 1006 m -49 971 q -82 983 -68 971 q -96 1022 -96 995 q -82 1060 -96 1048 q -49 1072 -68 1072 q -16 1060 -30 1072 q -1 1022 -1 1048 q -16 983 -1 995 q -49 971 -30 971 m 64 728 q 31 740 44 728 q 17 779 17 752 q 31 817 17 805 q 64 829 44 829 q 97 817 83 829 q 111 779 111 805 q 97 740 111 752 q 64 728 83 728 z "},"ݐ":{"ha":1358,"x_min":90,"x_max":1240,"o":"m 350 0 q 160 72 230 0 q 90 269 90 144 q 100 376 90 315 q 125 478 110 436 l 236 478 q 215 279 215 378 q 251 156 215 203 q 346 109 287 109 l 1122 109 l 1122 673 l 1240 673 l 1240 0 l 350 0 m 437 -278 q 381 -256 401 -278 q 360 -195 360 -235 q 380 -133 360 -155 q 437 -111 401 -111 q 495 -134 475 -111 q 515 -195 515 -157 q 495 -255 515 -233 q 437 -278 475 -278 m 685 -278 q 628 -256 649 -278 q 607 -195 607 -235 q 628 -133 607 -155 q 685 -111 648 -111 q 743 -134 722 -111 q 763 -195 763 -157 q 743 -255 763 -233 q 685 -278 722 -278 m 925 -278 q 868 -256 889 -278 q 848 -195 848 -235 q 868 -133 848 -155 q 925 -111 888 -111 q 983 -134 962 -111 q 1003 -195 1003 -157 q 983 -255 1003 -233 q 925 -278 962 -278 z "},"ݑ":{"ha":1080,"x_min":90,"x_max":962,"o":"m 350 0 q 160 72 230 0 q 90 269 90 144 q 100 376 90 315 q 125 478 110 436 l 236 478 q 215 279 215 378 q 251 156 215 203 q 346 109 287 109 l 844 109 l 844 673 l 962 673 l 962 0 l 350 0 m 536 863 q 485 881 505 863 q 465 939 465 899 q 485 998 465 979 q 536 1016 505 1016 q 587 997 566 1016 q 608 939 608 979 q 587 881 608 899 q 536 863 566 863 m 417 675 q 362 695 385 675 q 339 759 339 715 q 362 823 339 803 q 417 842 385 842 q 475 820 454 842 q 495 759 495 797 q 475 698 495 721 q 417 675 454 675 m 657 675 q 600 697 621 675 q 579 759 579 719 q 600 821 579 799 q 657 842 621 842 q 715 820 694 842 q 735 759 735 797 q 715 698 735 721 q 657 675 694 675 m 533 -278 q 476 -256 497 -278 q 455 -195 455 -235 q 476 -133 455 -155 q 533 -111 496 -111 q 591 -134 570 -111 q 611 -195 611 -157 q 591 -255 611 -233 q 533 -278 570 -278 z "},"ݒ":{"ha":1080,"x_min":90,"x_max":962,"o":"m 350 0 q 160 72 230 0 q 90 269 90 144 q 100 376 90 315 q 125 478 110 436 l 236 478 q 215 279 215 378 q 251 156 215 203 q 346 109 287 109 l 844 109 l 844 673 l 962 673 l 962 0 l 350 0 m 539 -131 q 591 -149 570 -131 q 611 -207 611 -166 q 591 -265 611 -247 q 539 -283 570 -283 q 486 -263 505 -283 q 467 -207 467 -242 q 487 -151 467 -171 q 539 -131 506 -131 m 659 -300 q 714 -319 691 -300 q 736 -383 736 -339 q 714 -447 736 -427 q 659 -467 691 -467 q 601 -444 621 -467 q 581 -383 581 -421 q 601 -322 581 -345 q 659 -300 621 -300 m 418 -300 q 475 -321 454 -300 q 496 -383 496 -343 q 476 -445 496 -423 q 418 -467 455 -467 q 361 -445 382 -467 q 340 -383 340 -423 q 361 -321 340 -343 q 418 -300 382 -300 z "},"ݓ":{"ha":1080,"x_min":90,"x_max":962,"o":"m 350 0 q 160 72 230 0 q 90 269 90 144 q 100 376 90 315 q 125 478 110 436 l 236 478 q 215 279 215 378 q 251 156 215 203 q 346 109 287 109 l 844 109 l 844 673 l 962 673 l 962 0 l 350 0 m 406 674 q 350 694 373 674 q 328 758 328 713 q 350 821 328 802 q 406 841 373 841 q 462 820 441 841 q 483 758 483 798 q 462 696 483 718 q 406 674 441 674 m 646 674 q 589 696 610 674 q 568 758 568 718 q 588 819 568 798 q 646 841 609 841 q 703 818 683 841 q 724 758 724 795 q 703 697 724 720 q 646 674 683 674 m 539 -131 q 591 -149 570 -131 q 611 -207 611 -166 q 591 -265 611 -247 q 539 -283 570 -283 q 486 -263 505 -283 q 467 -207 467 -242 q 487 -151 467 -171 q 539 -131 506 -131 m 659 -300 q 714 -319 691 -300 q 736 -383 736 -339 q 714 -447 736 -427 q 659 -467 691 -467 q 601 -444 621 -467 q 581 -383 581 -421 q 601 -322 581 -345 q 659 -300 621 -300 m 418 -300 q 475 -321 454 -300 q 496 -383 496 -343 q 476 -445 496 -423 q 418 -467 455 -467 q 361 -445 382 -467 q 340 -383 340 -423 q 361 -321 340 -343 q 418 -300 382 -300 z "},"ݔ":{"ha":1080,"x_min":90,"x_max":962,"o":"m 350 0 q 160 72 230 0 q 90 269 90 144 q 100 376 90 315 q 125 478 110 436 l 236 478 q 215 279 215 378 q 251 156 215 203 q 346 109 287 109 l 844 109 l 844 673 l 962 673 l 962 0 l 350 0 m 456 -278 q 400 -258 423 -278 q 378 -195 378 -239 q 400 -131 378 -151 q 456 -111 423 -111 q 512 -133 491 -111 q 533 -195 533 -154 q 512 -256 533 -235 q 456 -278 492 -278 m 696 -278 q 639 -256 660 -278 q 618 -195 618 -235 q 638 -133 618 -155 q 696 -111 659 -111 q 753 -134 733 -111 q 774 -195 774 -157 q 753 -255 774 -233 q 696 -278 733 -278 m 550 674 q 493 696 514 674 q 472 758 472 718 q 493 819 472 798 q 550 841 513 841 q 608 818 587 841 q 628 758 628 795 q 608 697 628 720 q 550 674 587 674 z "},"ݕ":{"ha":1080,"x_min":90,"x_max":962,"o":"m 350 0 q 160 72 230 0 q 90 269 90 144 q 100 376 90 315 q 125 478 110 436 l 236 478 q 215 279 215 378 q 251 156 215 203 q 346 109 287 109 l 844 109 l 844 673 l 962 673 l 962 0 l 350 0 m 388 -389 l 541 -112 l 599 -112 l 753 -389 l 659 -389 l 571 -210 l 481 -389 l 388 -389 z "},"ݖ":{"ha":1080,"x_min":90,"x_max":962,"o":"m 350 0 q 160 72 230 0 q 90 269 90 144 q 100 376 90 315 q 125 478 110 436 l 236 478 q 215 279 215 378 q 251 156 215 203 q 346 109 287 109 l 844 109 l 844 673 l 962 673 l 962 0 l 350 0 m 722 880 l 570 604 l 484 604 l 329 880 l 437 880 l 525 701 l 615 880 l 722 880 z "},"ݗ":{"ha":895,"x_min":62,"x_max":804,"o":"m 730 17 q 667 75 693 47 q 621 139 640 102 q 289 3 388 76 q 189 -167 189 -71 q 241 -297 189 -256 q 401 -339 292 -339 q 606 -317 471 -339 l 621 -412 q 465 -439 522 -433 q 351 -446 407 -446 q 140 -375 217 -446 q 62 -178 62 -305 q 113 -17 62 -90 q 273 117 164 56 q 583 237 382 178 q 557 363 572 274 q 489 526 538 473 q 354 579 439 579 q 235 559 304 579 q 111 510 165 539 l 62 606 q 197 664 116 640 q 355 688 277 688 q 667 395 621 688 q 716 218 684 286 q 804 113 749 150 l 730 17 m 236 806 q 181 825 203 806 q 158 889 158 845 q 181 953 158 933 q 236 972 203 972 q 292 951 271 972 q 313 889 313 930 q 293 827 313 849 q 236 806 272 806 m 476 806 q 419 827 440 806 q 398 889 398 849 q 419 951 398 929 q 476 972 439 972 q 534 950 513 972 q 554 889 554 927 q 534 828 554 851 q 476 806 513 806 z "},"ݘ":{"ha":895,"x_min":62,"x_max":804,"o":"m 730 17 q 667 75 693 47 q 621 139 640 102 q 289 3 388 76 q 189 -167 189 -71 q 378 -339 189 -339 l 351 -446 q 140 -375 217 -446 q 62 -178 62 -305 q 113 -17 62 -90 q 273 117 164 56 q 583 237 382 178 q 557 363 572 274 q 489 526 538 473 q 354 579 439 579 q 235 559 304 579 q 111 510 165 539 l 62 606 q 197 664 116 640 q 355 688 277 688 q 667 395 621 688 q 716 218 684 286 q 804 113 749 150 l 730 17 m 550 -421 q 489 -393 517 -421 q 461 -332 461 -366 q 487 -278 461 -302 q 542 -254 512 -254 q 601 -282 572 -254 q 629 -340 629 -310 q 605 -396 629 -371 q 550 -421 581 -421 m 428 -123 q 451 -74 428 -97 q 501 -50 474 -50 q 556 -76 529 -50 q 583 -129 583 -102 q 561 -181 583 -157 q 510 -204 538 -204 q 454 -178 480 -204 q 428 -123 428 -153 m 720 -250 q 659 -222 686 -250 q 631 -161 631 -195 q 656 -107 631 -131 q 711 -83 682 -83 q 770 -111 741 -83 q 799 -170 799 -139 q 774 -225 799 -200 q 720 -250 750 -250 z "},"ݙ":{"ha":707,"x_min":62,"x_max":644,"o":"m 62 109 l 525 109 q 421 426 498 295 q 203 653 345 557 l 248 758 q 508 511 408 675 q 644 106 609 347 l 644 0 l 62 0 l 62 109 m 121 940 l 142 940 l 142 1193 l 197 1193 l 197 1017 q 240 1082 214 1057 q 306 1107 265 1107 q 408 986 408 1107 l 408 880 l 121 880 l 121 940 m 353 940 l 353 975 q 340 1029 353 1011 q 299 1047 328 1047 q 242 1025 267 1047 q 197 954 217 1003 l 197 940 l 353 940 m 323 -529 q 267 -507 288 -529 q 245 -446 245 -486 q 267 -385 245 -406 q 323 -363 288 -363 q 381 -385 360 -363 q 401 -446 401 -408 q 381 -506 401 -484 q 323 -529 361 -529 m 323 -278 q 267 -256 288 -278 q 245 -195 245 -235 q 266 -133 245 -155 q 323 -111 287 -111 q 381 -134 361 -111 q 401 -195 401 -157 q 381 -255 401 -233 q 323 -278 361 -278 z "},"ݚ":{"ha":707,"x_min":62,"x_max":644,"o":"m 62 109 l 525 109 q 421 426 498 295 q 203 653 345 557 l 248 758 q 508 511 408 675 q 644 106 609 347 l 644 0 l 62 0 l 62 109 m 163 -389 l 315 -112 l 374 -112 l 528 -389 l 433 -389 l 346 -210 l 256 -389 l 163 -389 z "},"ݛ":{"ha":452,"x_min":47,"x_max":439,"o":"m 47 -126 l 237 -126 q 244 -68 244 -98 l 243 673 l 361 673 l 361 -61 q 355 -126 361 -101 l 439 -126 l 439 -205 l 330 -205 q 256 -324 304 -267 q 136 -444 208 -381 l 60 -357 q 204 -205 164 -271 l 47 -205 l 47 -126 z "},"ݜ":{"ha":1725,"x_min":90,"x_max":1607,"o":"m 1404 0 q 1290 21 1342 0 q 1181 96 1237 41 q 1098 26 1149 53 q 978 0 1047 0 l 815 0 q 732 -249 815 -164 q 469 -334 648 -334 l 370 -334 q 165 -239 241 -334 q 90 22 90 -144 q 105 196 90 108 q 147 350 120 283 l 262 350 q 215 22 215 230 q 262 -161 215 -96 q 396 -225 310 -225 l 464 -225 q 641 -170 585 -225 q 697 -4 697 -115 l 697 566 l 815 566 l 815 109 l 965 109 q 1069 153 1032 109 q 1107 269 1107 197 l 1107 566 l 1225 566 l 1225 232 l 1223 216 q 1300 132 1258 156 q 1404 109 1342 109 l 1489 109 l 1489 673 l 1607 673 l 1607 0 l 1404 0 m 1057 772 q 1005 791 1023 772 q 986 846 986 810 q 1007 904 986 886 q 1057 922 1027 922 q 1106 904 1085 922 q 1126 846 1126 886 q 1108 791 1126 810 q 1057 772 1089 772 m 1272 772 q 1222 789 1242 772 q 1202 846 1202 806 q 1222 904 1202 886 q 1272 922 1242 922 q 1323 902 1304 922 q 1343 846 1343 882 q 1324 791 1343 811 q 1272 772 1305 772 m 1057 1004 q 1005 1023 1023 1004 q 986 1078 986 1042 q 1007 1136 986 1118 q 1057 1154 1027 1154 q 1106 1136 1085 1154 q 1126 1078 1126 1118 q 1108 1023 1126 1042 q 1057 1004 1089 1004 m 1272 1004 q 1222 1021 1242 1004 q 1202 1078 1202 1038 q 1222 1136 1202 1118 q 1272 1154 1242 1154 q 1323 1134 1304 1154 q 1343 1078 1343 1114 q 1324 1023 1343 1043 q 1272 1004 1305 1004 z "},"ݝ":{"ha":743,"x_min":90,"x_max":681,"o":"m 379 -446 q 168 -375 245 -446 q 90 -178 90 -305 q 269 96 90 -24 q 146 372 146 203 q 190 540 146 469 q 312 649 234 611 q 488 688 391 688 q 598 676 547 688 q 681 647 648 664 l 643 543 q 481 579 557 579 q 327 526 381 579 q 272 374 272 473 q 295 242 272 302 q 357 147 317 182 q 596 241 473 205 l 629 139 q 409 59 507 109 q 263 -48 311 9 q 216 -167 216 -105 q 269 -298 216 -256 q 429 -339 321 -339 q 633 -317 499 -339 l 648 -412 q 492 -439 550 -433 q 379 -446 435 -446 m 309 806 q 253 825 276 806 q 231 889 231 845 q 253 953 231 933 q 309 972 276 972 q 365 951 344 972 q 386 889 386 930 q 365 827 386 849 q 309 806 345 806 m 549 806 q 492 827 513 806 q 471 889 471 849 q 491 951 471 929 q 549 972 512 972 q 606 950 586 972 q 627 889 627 927 q 606 828 627 851 q 549 806 586 806 z "},"ݞ":{"ha":743,"x_min":90,"x_max":681,"o":"m 379 -446 q 168 -375 245 -446 q 90 -178 90 -305 q 269 96 90 -24 q 146 372 146 203 q 190 540 146 469 q 312 649 234 611 q 488 688 391 688 q 598 676 547 688 q 681 647 648 664 l 643 543 q 481 579 557 579 q 327 526 381 579 q 272 374 272 473 q 295 242 272 302 q 357 147 317 182 q 596 241 473 205 l 629 139 q 409 59 507 109 q 263 -48 311 9 q 216 -167 216 -105 q 269 -298 216 -256 q 429 -339 321 -339 q 633 -317 499 -339 l 648 -412 q 492 -439 550 -433 q 379 -446 435 -446 m 440 957 q 492 939 471 957 q 512 880 512 921 q 492 823 512 841 q 440 804 471 804 q 390 823 411 804 q 368 880 368 841 q 390 939 368 921 q 440 957 411 957 m 559 1145 q 615 1125 592 1145 q 637 1061 637 1105 q 615 998 637 1017 q 559 978 592 978 q 502 1001 522 978 q 481 1061 481 1023 q 502 1122 481 1099 q 559 1145 522 1145 m 319 1145 q 376 1123 355 1145 q 397 1061 397 1101 q 377 1000 397 1021 q 319 978 356 978 q 262 1000 283 978 q 241 1061 241 1021 q 262 1123 241 1101 q 319 1145 283 1145 z "},"ݟ":{"ha":743,"x_min":90,"x_max":681,"o":"m 379 -446 q 168 -375 245 -446 q 90 -178 90 -305 q 269 96 90 -24 q 146 372 146 203 q 190 540 146 469 q 312 649 234 611 q 488 688 391 688 q 598 676 547 688 q 681 647 648 664 l 643 543 q 481 579 557 579 q 327 526 381 579 q 272 374 272 473 q 295 242 272 302 q 357 147 317 182 q 596 241 473 205 l 629 139 q 409 59 507 109 q 263 -48 311 9 q 216 -167 216 -105 q 269 -298 216 -256 q 429 -339 321 -339 q 633 -317 499 -339 l 648 -412 q 492 -439 550 -433 q 379 -446 435 -446 m 421 806 q 364 827 385 806 q 343 889 343 849 q 364 951 343 929 q 421 972 385 972 q 479 950 458 972 q 499 889 499 927 q 479 828 499 851 q 421 806 458 806 m 421 1057 q 364 1079 385 1057 q 343 1140 343 1101 q 364 1202 343 1180 q 421 1223 385 1223 q 479 1201 458 1223 q 499 1140 499 1178 q 479 1080 499 1103 q 421 1057 458 1057 z "},"ݠ":{"ha":1406,"x_min":90,"x_max":1287,"o":"m 350 0 q 160 72 230 0 q 90 269 90 144 q 100 376 90 315 q 125 478 110 436 l 236 478 q 215 279 215 378 q 251 156 215 203 q 346 109 287 109 l 798 109 q 745 201 765 144 q 725 318 725 259 q 827 577 725 481 q 1105 673 929 673 l 1287 673 l 1287 0 l 350 0 m 1169 109 l 1169 566 l 1109 566 q 917 501 986 566 q 848 319 848 437 q 1039 109 848 109 l 1169 109 m 928 -278 q 872 -258 895 -278 q 850 -195 850 -239 q 872 -131 850 -151 q 928 -111 895 -111 q 984 -133 963 -111 q 1005 -195 1005 -154 q 984 -256 1005 -235 q 928 -278 964 -278 m 1168 -278 q 1111 -256 1132 -278 q 1090 -195 1090 -235 q 1111 -133 1090 -155 q 1168 -111 1131 -111 q 1225 -134 1205 -111 q 1246 -195 1246 -157 q 1225 -255 1246 -233 q 1168 -278 1205 -278 z "}}}
